M48
; DRILL file KiCad 10.0.1-1.fc44 date 2026-05-14T21:29:10
; FORMAT={-:-/ absolute / inch / decimal}
; #@! TF.CreationDate,2026-05-14T21:29:10+03:00
; #@! TF.GenerationSoftware,Kicad,Pcbnew,10.0.1-1.fc44
; #@! TF.FileFunction,Plated,1,2,PTH
FMAT,2
INCH
; #@! TA.AperFunction,Plated,PTH,ViaDrill
T1C0.0118
; #@! TA.AperFunction,Plated,PTH,ComponentDrill
T2C0.0118
; #@! TA.AperFunction,Plated,PTH,ViaDrill
T3C0.0157
; #@! TA.AperFunction,Plated,PTH,ComponentDrill
T4C0.0236
; #@! TA.AperFunction,Plated,PTH,ComponentDrill
T5C0.0394
; #@! TA.AperFunction,Plated,PTH,ComponentDrill
T6C0.0866
%
G90
G05
T1
X4.0404Y-4.2795
X4.0443Y-4.1378
X4.0866Y-3.7842
X4.1142Y-5.3619
X4.1875Y-5.2369
X4.2773Y-2.419
X4.3031Y-5.3353
X4.3425Y-3.3115
X4.3504Y-5.2369
X4.3616Y-2.5241
X4.3642Y-2.1791
X4.3647Y-3.4115
X4.3877Y-5.4954
X4.4075Y-2.2141
X4.4488Y-5.483
X4.4783Y-4.252
X4.5079Y-4.7418
X4.5157Y-4.859
X4.5236Y-4.6085
X4.5346Y-4.5707
X4.5709Y-3.9928
X4.5807Y-4.3511
X4.5963Y-4.918
X4.6161Y-4.1831
X4.6319Y-4.0716
X4.6358Y-4.8038
X4.6358Y-4.8432
X4.6378Y-4.5716
X4.6378Y-4.7133
X4.6403Y-4.6165
X4.6457Y-4.2392
X4.6654Y-3.9534
X4.6673Y-5.6011
X4.6699Y-3.9946
X4.6713Y-4.3464
X4.7205Y-4.3176
X4.7362Y-3.9889
X4.7421Y-2.0802
X4.7421Y-2.1267
X4.7421Y-2.1775
X4.8169Y-3.0453
X4.8169Y-4.7205
X4.8354Y-3.4468
X4.8386Y-4.4094
X4.8425Y-2.9528
X4.8465Y-3.9869
X4.8819Y-4.4094
X4.9071Y-3.0369
X4.9213Y-3.2185
X4.922Y-3.7684
X4.9232Y-4.3716
X4.9419Y-3.9908
X4.948Y-3.9062
X4.9528Y-3.8078
X4.9642Y-3.0315
X4.9764Y-2.7756
X4.9783Y-5.1975
X4.9853Y-5.1262
X4.9921Y-3.3228
X4.9961Y-3.418
X5.0031Y-3.9023
X5.0031Y-3.9452
X5.0054Y-5.3058
X5.0224Y-3.6755
X5.0331Y-2.8684
X5.0492Y-2.983
X5.0512Y-4.5243
X5.0512Y-4.9141
X5.0531Y-4.9869
X5.0546Y-3.1503
X5.0787Y-2.8613
X5.0791Y-2.9338
X5.0843Y-3.0899
X5.0862Y-3.4062
X5.0906Y-3.1791
X5.0945Y-4.3465
X5.1201Y-5.0558
T2
X4.7224Y-4.0991
X4.7224Y-4.1503
X4.7224Y-4.2015
X4.7748Y-4.0991
X4.7748Y-4.1503
X4.7748Y-4.2015
X4.8449Y-4.0991
X4.8449Y-4.1503
X4.8449Y-4.2015
X4.915Y-4.0991
X4.915Y-4.1503
X4.915Y-4.2015
X4.985Y-4.0991
X4.985Y-4.1503
X4.985Y-4.2015
X5.0374Y-4.0991
X5.0374Y-4.1503
X5.0374Y-4.2015
T3
X4.124Y-5.4731
X4.2126Y-2.0578
X4.2126Y-2.0984
X4.252Y-2.0578
X4.252Y-2.0984
X4.2913Y-2.0578
X4.2913Y-2.0984
X4.3307Y-2.0578
X4.3307Y-2.0932
X4.3504Y-5.483
X4.3622Y-3.8071
X4.3642Y-3.8497
X4.3701Y-2.0578
X4.3701Y-2.0932
X4.4134Y-1.937
X4.4134Y-1.9764
X4.4134Y-2.0157
X4.4134Y-2.0551
X4.4134Y-2.0906
X4.4173Y-3.8071
X4.4193Y-3.8497
X4.4705Y-3.8071
X4.4724Y-3.8497
X4.5177Y-3.8071
X4.5197Y-3.8497
X4.5709Y-3.5709
X4.5709Y-3.6102
X4.5709Y-3.6496
X4.5709Y-3.689
X4.5709Y-3.7283
X4.5709Y-3.7677
X4.5709Y-3.8071
X4.5728Y-3.8497
X4.5984Y-2.5873
X4.5984Y-2.6365
X4.6299Y-3.5709
X4.6299Y-3.6102
X4.6299Y-3.6496
X4.6299Y-3.689
X4.6299Y-3.7283
X4.6299Y-3.7677
X4.6299Y-3.8071
X4.6319Y-3.8497
X4.6358Y-2.7723
X4.6378Y-2.5873
X4.6378Y-2.6365
X4.6378Y-2.6798
X4.6378Y-2.729
X4.6457Y-3.1503
X4.6457Y-3.1897
X4.6457Y-3.229
X4.6457Y-3.2684
X4.6457Y-3.3078
X4.6752Y-2.7723
X4.6772Y-2.5873
X4.6772Y-2.6365
X4.6772Y-2.6798
X4.6772Y-2.729
X4.685Y-3.5709
X4.685Y-3.6102
X4.685Y-3.6496
X4.685Y-3.689
X4.685Y-3.7283
X4.685Y-3.7677
X4.685Y-3.8071
X4.687Y-3.8497
X4.6949Y-3.1503
X4.6949Y-3.1897
X4.6949Y-3.229
X4.6949Y-3.2684
X4.6949Y-3.3078
X4.7047Y-2.8465
X4.7047Y-2.8858
X4.7047Y-2.9252
X4.7047Y-2.9685
X4.7047Y-3.0079
X4.7047Y-3.0472
X4.7047Y-3.0866
X4.7146Y-2.7723
X4.7165Y-2.5866
X4.7165Y-2.6358
X4.7165Y-2.6798
X4.7165Y-2.729
X4.7382Y-3.5709
X4.7382Y-3.6102
X4.7382Y-3.6496
X4.7382Y-3.689
X4.7382Y-3.7283
X4.7382Y-3.7677
X4.7382Y-3.8071
X4.7402Y-3.8497
X4.7559Y-5.0512
X4.7559Y-5.0906
X4.7559Y-5.1299
X4.7559Y-5.1693
X4.7559Y-5.2087
X4.7559Y-5.248
X4.7559Y-5.2913
X4.7559Y-5.3346
X4.7854Y-3.5709
X4.7854Y-3.6102
X4.7854Y-3.6496
X4.7854Y-3.689
X4.7854Y-3.7283
X4.7854Y-3.7677
X4.7854Y-3.8071
X4.7874Y-3.8497
X4.815Y-5.0512
X4.815Y-5.0906
X4.815Y-5.1299
X4.815Y-5.1693
X4.815Y-5.2087
X4.815Y-5.248
X4.815Y-5.2913
X4.815Y-5.3346
T5
X4.0748Y-4.4243
X4.0748Y-4.5243
X4.0748Y-4.6243
X4.0748Y-4.7243
X4.0748Y-4.8243
X4.0748Y-4.9243
X4.0748Y-5.0243
X4.0748Y-5.1243
X4.3071Y-4.7888
X4.3071Y-4.8888
T6
X4.0748Y-1.9889
X4.0748Y-5.6109
X5.0591Y-1.9889
X5.0591Y-5.6109
T4
G00X4.2295Y-5.4178
M15
G01X4.2295Y-5.4611
M16
G05
G00X4.2295Y-5.5883
M15
G01X4.2295Y-5.6198
M16
G05
G00X4.5697Y-5.4178
M15
G01X4.5697Y-5.4611
M16
G05
G00X4.5697Y-5.5883
M15
G01X4.5697Y-5.6198
M16
G05
M30
