%TF.GenerationSoftware,KiCad,Pcbnew,10.0.1-1.fc44*%
%TF.CreationDate,2026-05-14T21:29:10+03:00*%
%TF.ProjectId,helix_vape,68656c69-785f-4766-9170-652e6b696361,rev?*%
%TF.SameCoordinates,Original*%
%TF.FileFunction,Copper,L2,Bot*%
%TF.FilePolarity,Positive*%
%FSLAX46Y46*%
G04 Gerber Fmt 4.6, Leading zero omitted, Abs format (unit mm)*
G04 Created by KiCad (PCBNEW 10.0.1-1.fc44) date 2026-05-14 21:29:10*
%MOMM*%
%LPD*%
G01*
G04 APERTURE LIST*
%TA.AperFunction,ComponentPad*%
%ADD10C,0.800000*%
%TD*%
%TA.AperFunction,SMDPad,CuDef*%
%ADD11R,9.500000X3.400000*%
%TD*%
%TA.AperFunction,ComponentPad*%
%ADD12C,3.800000*%
%TD*%
%TA.AperFunction,ComponentPad*%
%ADD13O,1.200000X2.500000*%
%TD*%
%TA.AperFunction,ComponentPad*%
%ADD14O,1.200000X2.100000*%
%TD*%
%TA.AperFunction,ComponentPad*%
%ADD15R,1.700000X1.700000*%
%TD*%
%TA.AperFunction,ComponentPad*%
%ADD16C,1.700000*%
%TD*%
%TA.AperFunction,SMDPad,CuDef*%
%ADD17R,6.470000X7.460000*%
%TD*%
%TA.AperFunction,ViaPad*%
%ADD18C,0.800000*%
%TD*%
%TA.AperFunction,Conductor*%
%ADD19C,0.200000*%
%TD*%
%TA.AperFunction,Conductor*%
%ADD20C,0.500000*%
%TD*%
G04 APERTURE END LIST*
D10*
%TO.P,U1,29,PowerPAD_29*%
%TO.N,GND*%
X119950000Y-106717500D03*
X121280000Y-106717500D03*
X123060000Y-106717500D03*
X124840000Y-106717500D03*
X126620000Y-106717500D03*
X127950000Y-106717500D03*
X119950000Y-105417500D03*
X121280000Y-105417500D03*
X123060000Y-105417500D03*
D11*
X123950000Y-105417500D03*
D10*
X124840000Y-105417500D03*
X126620000Y-105417500D03*
X127950000Y-105417500D03*
X119950000Y-104117500D03*
X121280000Y-104117500D03*
X123060000Y-104117500D03*
X124840000Y-104117500D03*
X126620000Y-104117500D03*
X127950000Y-104117500D03*
%TD*%
D12*
%TO.P,H2,1,1_1*%
%TO.N,GND*%
X103500000Y-50517500D03*
%TD*%
D13*
%TO.P,J1,SH,SHIELD_SH*%
%TO.N,GND*%
X107430000Y-138162500D03*
D14*
X107430000Y-142342500D03*
D13*
X116070000Y-138162500D03*
D14*
X116070000Y-142342500D03*
%TD*%
D12*
%TO.P,H3,1,1_1*%
%TO.N,GND*%
X103500000Y-142517500D03*
%TD*%
%TO.P,H4,1,1_1*%
%TO.N,GND*%
X128500000Y-142517500D03*
%TD*%
%TO.P,H1,1,1_1*%
%TO.N,GND*%
X128500000Y-50517500D03*
%TD*%
D15*
%TO.P,J2,1,Pin_1_1*%
%TO.N,GND*%
X109400000Y-124175000D03*
D16*
%TO.P,J2,2,Pin_2_2*%
%TO.N,FIRE*%
X109400000Y-121635000D03*
%TD*%
D15*
%TO.P,J3,1,Pin_1_1*%
%TO.N,GND*%
X103500000Y-130157500D03*
D16*
%TO.P,J3,2,Pin_2_2*%
%TO.N,+3V3*%
X103500000Y-127617500D03*
%TO.P,J3,3,Pin_3_3*%
%TO.N,SCL*%
X103500000Y-125077500D03*
%TO.P,J3,4,Pin_4_4*%
%TO.N,SDA*%
X103500000Y-122537500D03*
%TO.P,J3,5,Pin_5_5*%
%TO.N,K1*%
X103500000Y-119997500D03*
%TO.P,J3,6,Pin_6_6*%
%TO.N,K2*%
X103500000Y-117457500D03*
%TO.P,J3,7,Pin_7_7*%
%TO.N,K3*%
X103500000Y-114917500D03*
%TO.P,J3,8,Pin_8_8*%
%TO.N,K4*%
X103500000Y-112377500D03*
%TD*%
D17*
%TO.P,BT1,N*%
%TO.N,GND*%
X116200000Y-52577500D03*
%TO.P,BT1,P*%
%TO.N,VIN*%
X116200000Y-131917500D03*
%TD*%
D18*
%TO.N,SW2*%
X127080000Y-99117500D03*
X120450000Y-52837500D03*
%TO.N,HDRV2*%
X120450000Y-54017500D03*
X125525000Y-101367500D03*
X108644124Y-61442843D03*
X110850000Y-55350000D03*
%TO.N,VRS*%
X122820000Y-87549581D03*
X110863000Y-86652500D03*
%TO.N,GND*%
X118000000Y-84017500D03*
X107000000Y-52267500D03*
X119800000Y-69317500D03*
X112100000Y-51200000D03*
X118800000Y-69317500D03*
X118000000Y-81017500D03*
X117800000Y-68067500D03*
X118800000Y-66967500D03*
X109000000Y-52267500D03*
X128300000Y-114917500D03*
X102625000Y-108700000D03*
X112100000Y-53100000D03*
X118800000Y-65717500D03*
X111000000Y-52267500D03*
X102725000Y-105100000D03*
X119500000Y-75400000D03*
X119500000Y-77400000D03*
X123000000Y-75000000D03*
X110000000Y-52267500D03*
X118800000Y-68067500D03*
X119250000Y-83017500D03*
X119800000Y-68067500D03*
X124640000Y-77137500D03*
X119250000Y-80017500D03*
X117800000Y-66967500D03*
X116800000Y-66967500D03*
X117800000Y-65717500D03*
X104500000Y-136192500D03*
X119500000Y-76400000D03*
X112100000Y-49200000D03*
X119500000Y-78400000D03*
X119250000Y-81017500D03*
X108000000Y-53300000D03*
X119800000Y-65700000D03*
X109000000Y-53300000D03*
X127137500Y-134767500D03*
X112100000Y-52200000D03*
X116746797Y-124917503D03*
X126400000Y-70500000D03*
X116800000Y-65717500D03*
X117750000Y-70417500D03*
X118000000Y-107675000D03*
X128300002Y-124817500D03*
X119500000Y-73300000D03*
X126626328Y-130205116D03*
X129190000Y-86517500D03*
X118650000Y-110397500D03*
X110000000Y-53167500D03*
X119750000Y-70417500D03*
X119500000Y-72300000D03*
X118000000Y-80017500D03*
X118000000Y-82017500D03*
X127570000Y-93357500D03*
X125050000Y-111037500D03*
X111000000Y-53167500D03*
X122350000Y-119900000D03*
X124000000Y-111997500D03*
X119250000Y-84017500D03*
X129000000Y-72677500D03*
X118000000Y-83017500D03*
X119500000Y-74300000D03*
X112100000Y-50200000D03*
X106362500Y-133017500D03*
X126450000Y-132017500D03*
X107000000Y-53300000D03*
X117800000Y-69317500D03*
X119250000Y-82017500D03*
X119800000Y-66950000D03*
X122900000Y-111997500D03*
X118550000Y-142267500D03*
X108000000Y-52267500D03*
X118750000Y-70417500D03*
%TO.N,VOSNS*%
X129010000Y-74517500D03*
X126900000Y-86817500D03*
%TO.N,VIN_IC*%
X119900000Y-109667500D03*
X130050000Y-128417500D03*
%TO.N,VCC*%
X117250000Y-106250000D03*
X127080000Y-100207500D03*
X117650000Y-103417503D03*
X123100000Y-101267500D03*
%TO.N,CONV_FB*%
X126800000Y-84400000D03*
X129400000Y-110400000D03*
%TO.N,+3V3*%
X114500000Y-120442500D03*
X117800000Y-119717500D03*
X128350000Y-126667500D03*
%TO.N,SDA*%
X129140000Y-78482500D03*
X125800000Y-96717500D03*
X128250000Y-75767500D03*
X116100000Y-101417500D03*
X129300000Y-80750000D03*
X117750000Y-123017500D03*
%TO.N,RESET*%
X117864425Y-117258335D03*
X114900000Y-117055954D03*
%TO.N,EN*%
X116350000Y-110517500D03*
X114700000Y-123417500D03*
%TO.N,SCL*%
X117750000Y-122017506D03*
X126090000Y-77000000D03*
X128387500Y-80017500D03*
X127840000Y-72857500D03*
X118500000Y-100417500D03*
X125020000Y-95717500D03*
%TO.N,BOOT*%
X117800000Y-116117500D03*
X115177818Y-116095318D03*
%TO.N,FB*%
X122350000Y-77350000D03*
X125000000Y-81750000D03*
%TO.N,LDRV2*%
X125680000Y-99217500D03*
X110785500Y-64112500D03*
X111950000Y-56237500D03*
X120450000Y-55307500D03*
%TO.N,LDRV1*%
X110300000Y-84112500D03*
X103800000Y-96117500D03*
%TO.N,HDRV1*%
X120300000Y-101317500D03*
X118616090Y-101463521D03*
%TO.N,VIN*%
X114750000Y-96700000D03*
X121550000Y-93700000D03*
X119000000Y-94700000D03*
X119000000Y-90700000D03*
X116100000Y-91700000D03*
X117600000Y-96700000D03*
X120800000Y-128300000D03*
X120350000Y-92700000D03*
X110800000Y-96700000D03*
X114800000Y-97782500D03*
X117600000Y-90700000D03*
X117600000Y-91700000D03*
X120800000Y-133300000D03*
X121550000Y-92700000D03*
X117600000Y-92700000D03*
X117600000Y-95700000D03*
X117600000Y-94700000D03*
X120350000Y-93700000D03*
X120800000Y-130300000D03*
X122300000Y-131300000D03*
X122300000Y-132300000D03*
X120400000Y-97782500D03*
X120350000Y-91700000D03*
X122300000Y-130300000D03*
X117600000Y-93700000D03*
X113550000Y-96700000D03*
X122300000Y-129300000D03*
X119000000Y-92700000D03*
X120350000Y-94700000D03*
X120800000Y-132300000D03*
X116100000Y-90700000D03*
X121550000Y-95700000D03*
X119000000Y-95700000D03*
X112200000Y-96700000D03*
X116150000Y-97782500D03*
X122300000Y-134400000D03*
X113600000Y-97782500D03*
X116100000Y-96700000D03*
X120350000Y-95700000D03*
X121550000Y-96700000D03*
X120800000Y-129300000D03*
X120800000Y-134400000D03*
X121550000Y-91700000D03*
X120800000Y-135500000D03*
X119000000Y-93700000D03*
X119050000Y-97782500D03*
X110850000Y-97782500D03*
X119000000Y-96700000D03*
X116100000Y-93700000D03*
X122300000Y-128300000D03*
X122300000Y-133300000D03*
X116100000Y-92700000D03*
X119000000Y-91700000D03*
X122300000Y-135500000D03*
X116100000Y-95700000D03*
X121550000Y-94700000D03*
X113750000Y-108000000D03*
X112250000Y-97782500D03*
X117650000Y-97782500D03*
X116100000Y-94700000D03*
X121600000Y-97782500D03*
X120350000Y-90700000D03*
X120800000Y-131300000D03*
X120350000Y-96700000D03*
X121550000Y-90700000D03*
%TO.N,+5V*%
X109300000Y-135517500D03*
X110500000Y-133017500D03*
%TO.N,Net-(J1-CC1)*%
X104750000Y-139017500D03*
X110500000Y-139267500D03*
%TO.N,Net-(J1-D+-PadA6)*%
X113000000Y-139267500D03*
X111448686Y-139583728D03*
%TD*%
%TO.N,SW2*%
D19*
X124320000Y-84620001D02*
X124320000Y-96007450D01*
X126700000Y-52100000D02*
X129330000Y-54730000D01*
X126400000Y-97617500D02*
X126400000Y-97953136D01*
X125110050Y-96417500D02*
X125100000Y-96427550D01*
X125100000Y-97007450D02*
X125510050Y-97417500D01*
X126400000Y-97953136D02*
X127080000Y-98633136D01*
X124730050Y-96417500D02*
X125110050Y-96417500D01*
X121600000Y-66000000D02*
X121600000Y-81900000D01*
X126200000Y-97417500D02*
X126400000Y-97617500D01*
X125100000Y-96427550D02*
X125100000Y-97007450D01*
X120450000Y-52837500D02*
X121187500Y-52100000D01*
X126900000Y-66000000D02*
X121600000Y-66000000D01*
X121187500Y-52100000D02*
X126700000Y-52100000D01*
X125510050Y-97417500D02*
X126200000Y-97417500D01*
X129330000Y-54730000D02*
X129330000Y-63570000D01*
X129330000Y-63570000D02*
X126900000Y-66000000D01*
X127080000Y-98633136D02*
X127080000Y-99117500D01*
X121600000Y-81900000D02*
X124320000Y-84620001D01*
X124320000Y-96007450D02*
X124730050Y-96417500D01*
%TO.N,HDRV2*%
X123920000Y-84785686D02*
X123920000Y-96303186D01*
X123920000Y-96303186D02*
X124700000Y-97083186D01*
X126500000Y-52700000D02*
X128930000Y-55130000D01*
X126380000Y-100512500D02*
X125525000Y-101367500D01*
X126380000Y-98831814D02*
X126380000Y-100512500D01*
X128930000Y-55130000D02*
X128930000Y-63370000D01*
D20*
X110850000Y-55350000D02*
X108644124Y-57555876D01*
D19*
X121600000Y-52700000D02*
X126500000Y-52700000D01*
X124700000Y-97083186D02*
X124700000Y-97173136D01*
X125365686Y-97817500D02*
X126380000Y-98831814D01*
X128930000Y-63370000D02*
X126700000Y-65600000D01*
X124700000Y-97173136D02*
X125344365Y-97817500D01*
X121200000Y-82065686D02*
X123920000Y-84785686D01*
X126700000Y-65600000D02*
X121200000Y-65600000D01*
X125344365Y-97817500D02*
X125365686Y-97817500D01*
X120450000Y-53850000D02*
X121600000Y-52700000D01*
X120450000Y-54017500D02*
X120450000Y-53850000D01*
X121200000Y-65600000D02*
X121200000Y-82065686D01*
D20*
X108644124Y-57555876D02*
X108644124Y-61442843D01*
%TO.N,VRS*%
D19*
X110998000Y-86517500D02*
X110863000Y-86652500D01*
X122800000Y-87529581D02*
X122800000Y-86517500D01*
X122800000Y-86517500D02*
X110998000Y-86517500D01*
X122820000Y-87549581D02*
X122800000Y-87529581D01*
%TO.N,GND*%
D20*
X125500000Y-126500000D02*
X125500000Y-131750000D01*
D19*
X123000000Y-75000000D02*
X123250000Y-75000000D01*
D20*
X129200000Y-127631444D02*
X129200000Y-125717498D01*
X129200000Y-125717498D02*
X128300002Y-124817500D01*
D19*
X124640000Y-76390000D02*
X124640000Y-77137500D01*
X123250000Y-75000000D02*
X124640000Y-76390000D01*
D20*
X126626328Y-130205116D02*
X129200000Y-127631444D01*
X125767500Y-132017500D02*
X126450000Y-132017500D01*
X122350000Y-119900000D02*
X122350000Y-123350000D01*
X122350000Y-123350000D02*
X125500000Y-126500000D01*
X125500000Y-131750000D02*
X125767500Y-132017500D01*
%TO.N,VOSNS*%
D19*
X126900000Y-85502450D02*
X126900000Y-86817500D01*
X130000000Y-75267500D02*
X130000000Y-82402450D01*
X129250000Y-74517500D02*
X130000000Y-75267500D01*
X130000000Y-82402450D02*
X126900000Y-85502450D01*
%TO.N,VIN_IC*%
D20*
X130050000Y-112650000D02*
X127067500Y-109667500D01*
X127067500Y-109667500D02*
X119900000Y-109667500D01*
X130050000Y-128417500D02*
X130050000Y-112650000D01*
%TO.N,VCC*%
D19*
X121599997Y-102767503D02*
X123100000Y-101267500D01*
X121599997Y-103417503D02*
X117650000Y-103417503D01*
X124200000Y-102917500D02*
X125600000Y-102917500D01*
X123100000Y-101267500D02*
X123100000Y-101817500D01*
X117250000Y-106250000D02*
X117250000Y-103817503D01*
X125600000Y-102917500D02*
X127080000Y-101437500D01*
X127080000Y-101437500D02*
X127080000Y-100207500D01*
X121599997Y-103417503D02*
X121599997Y-102767503D01*
X117250000Y-103817503D02*
X117650000Y-103417503D01*
X123100000Y-101817500D02*
X124200000Y-102917500D01*
%TO.N,CONV_FB*%
X129500000Y-110300000D02*
X129400000Y-110400000D01*
X126200000Y-85353923D02*
X126200000Y-96127550D01*
X126200000Y-96127550D02*
X129500000Y-99427550D01*
X129500000Y-99427550D02*
X129500000Y-110300000D01*
X126800000Y-84753923D02*
X126200000Y-85353923D01*
X126800000Y-84400000D02*
X126800000Y-84753923D01*
%TO.N,+3V3*%
X117800000Y-120407450D02*
X117764950Y-120442500D01*
X117800000Y-119717500D02*
X117800000Y-120407450D01*
D20*
X126900000Y-125717500D02*
X126900000Y-116217500D01*
X118800000Y-118717500D02*
X117800000Y-119717500D01*
D19*
X117764950Y-120442500D02*
X114500000Y-120442500D01*
D20*
X126900000Y-116217500D02*
X118800000Y-116217500D01*
X128100000Y-126417500D02*
X127600000Y-126417500D01*
X118800000Y-116217500D02*
X118800000Y-118717500D01*
X128350000Y-126667500D02*
X128100000Y-126417500D01*
X127600000Y-126417500D02*
X126900000Y-125717500D01*
%TO.N,SDA*%
D19*
X129300000Y-80750000D02*
X129267500Y-80750000D01*
X114400000Y-114751814D02*
X114400000Y-111617500D01*
X117750000Y-123017500D02*
X117210052Y-123017500D01*
X128965000Y-78482500D02*
X129140000Y-78482500D01*
X112949999Y-121767501D02*
X112950001Y-121767499D01*
X113400000Y-115751815D02*
X114400000Y-114751814D01*
X112950001Y-122098873D02*
X112949999Y-121767501D01*
X128250000Y-77767500D02*
X128965000Y-78482500D01*
X112950000Y-117636130D02*
X113400000Y-117186129D01*
X114410053Y-124917503D02*
X113100000Y-123607450D01*
X113100000Y-123607450D02*
X113100000Y-122248871D01*
X117210052Y-123017500D02*
X115310049Y-124917503D01*
X113400000Y-117186129D02*
X113400000Y-115751815D01*
X115250000Y-109767500D02*
X116100000Y-108917500D01*
X115310049Y-124917503D02*
X114410053Y-124917503D01*
X125800000Y-84217500D02*
X125800000Y-96717500D01*
X129267500Y-80750000D02*
X125800000Y-84217500D01*
X115250000Y-110767500D02*
X115250000Y-109767500D01*
X112950001Y-121767499D02*
X112950000Y-117636130D01*
X128250000Y-75767500D02*
X128250000Y-77767500D01*
X116100000Y-108917500D02*
X116100000Y-101417500D01*
X114400000Y-111617500D02*
X115250000Y-110767500D01*
X113100000Y-122248871D02*
X112950001Y-122098873D01*
%TO.N,RESET*%
X115078687Y-116877267D02*
X114900000Y-117055954D01*
X117704791Y-116877267D02*
X115078687Y-116877267D01*
X117864425Y-117036901D02*
X117704791Y-116877267D01*
X117864425Y-117258335D02*
X117864425Y-117036901D01*
%TO.N,EN*%
X113750000Y-121767500D02*
X114500000Y-122517500D01*
X115200000Y-115083186D02*
X114200000Y-116083186D01*
X114200000Y-117517500D02*
X113750000Y-117967500D01*
X114200000Y-116083186D02*
X114200000Y-117517500D01*
X114500000Y-123217500D02*
X114700000Y-123417500D01*
X113750000Y-117967500D02*
X113750000Y-121767500D01*
X114500000Y-122517500D02*
X114500000Y-123217500D01*
X116350000Y-110517500D02*
X116350000Y-111077657D01*
X115200000Y-112227657D02*
X115200000Y-115083186D01*
X116350000Y-111077657D02*
X115200000Y-112227657D01*
%TO.N,SCL*%
X114800000Y-111783186D02*
X115650000Y-110933185D01*
X113800000Y-117351815D02*
X113800000Y-115917500D01*
X118500000Y-100417500D02*
X116500000Y-102417500D01*
X128387500Y-80750000D02*
X125000000Y-84137500D01*
X113350000Y-117801815D02*
X113800000Y-117351815D01*
X125000000Y-84137500D02*
X125000000Y-95697500D01*
X115650000Y-110933185D02*
X115650000Y-110127550D01*
X114800000Y-114917500D02*
X114800000Y-111783186D01*
X127840000Y-74107500D02*
X127840000Y-72857500D01*
X126090000Y-75857500D02*
X127840000Y-74107500D01*
X115099997Y-124517503D02*
X114600003Y-124517503D01*
X113350000Y-121933185D02*
X113350000Y-117801815D01*
X125000000Y-95697500D02*
X125020000Y-95717500D01*
X117599994Y-122017506D02*
X115099997Y-124517503D01*
X113500000Y-122083186D02*
X113350000Y-121933185D01*
X115650000Y-110127550D02*
X116210050Y-109567500D01*
X116500000Y-102417500D02*
X116500000Y-109418971D01*
X113800000Y-115917500D02*
X114800000Y-114917500D01*
X116500000Y-109418971D02*
X116400000Y-109518971D01*
X116351471Y-109567500D02*
X116401471Y-109517500D01*
X113500000Y-123417500D02*
X113500000Y-122083186D01*
X128387500Y-80017500D02*
X128387500Y-80750000D01*
X117750000Y-122017506D02*
X117599994Y-122017506D01*
X126090000Y-77000000D02*
X126090000Y-75857500D01*
X114600003Y-124517503D02*
X113500000Y-123417500D01*
X116210050Y-109567500D02*
X116351471Y-109567500D01*
%TO.N,BOOT*%
X115177818Y-116095318D02*
X115200000Y-116117500D01*
X115200000Y-116117500D02*
X117800000Y-116117500D01*
%TO.N,FB*%
X124450000Y-81750000D02*
X125000000Y-81750000D01*
X122300000Y-77400000D02*
X122300000Y-79600000D01*
X122300000Y-79600000D02*
X124450000Y-81750000D01*
X122350000Y-77350000D02*
X122300000Y-77400000D01*
%TO.N,LDRV2*%
X123520000Y-96537500D02*
X124300000Y-97317500D01*
X123520000Y-84951372D02*
X123520000Y-96537500D01*
X120450000Y-55050000D02*
X122400000Y-53100000D01*
X120800000Y-65200000D02*
X120800000Y-82231372D01*
X126200000Y-53100000D02*
X128300000Y-55200000D01*
X120800000Y-82231372D02*
X123520000Y-84951372D01*
X122400000Y-53100000D02*
X126200000Y-53100000D01*
X126500000Y-65200000D02*
X120800000Y-65200000D01*
X120450000Y-55307500D02*
X120450000Y-55050000D01*
X125680000Y-98697500D02*
X125680000Y-99217500D01*
X125178680Y-98217500D02*
X125200000Y-98217500D01*
D20*
X110785500Y-56562000D02*
X111110000Y-56237500D01*
D19*
X128300000Y-63400000D02*
X126500000Y-65200000D01*
D20*
X111110000Y-56237500D02*
X111950000Y-56237500D01*
D19*
X128300000Y-55200000D02*
X128300000Y-63400000D01*
X124300001Y-97338822D02*
X125178680Y-98217500D01*
X125200000Y-98217500D02*
X125680000Y-98697500D01*
X124300000Y-97317500D02*
X124300001Y-97338822D01*
D20*
X110785500Y-64112500D02*
X110785500Y-56562000D01*
%TO.N,LDRV1*%
D19*
X104550000Y-93667500D02*
X103800000Y-94417500D01*
X104550000Y-85567500D02*
X104550000Y-93667500D01*
X106005000Y-84112500D02*
X104550000Y-85567500D01*
X110300000Y-84112500D02*
X106005000Y-84112500D01*
X103800000Y-94417500D02*
X103800000Y-96117500D01*
%TO.N,HDRV1*%
X118670069Y-101517500D02*
X118616090Y-101463521D01*
X120300000Y-101317500D02*
X120100000Y-101517500D01*
X120100000Y-101517500D02*
X118670069Y-101517500D01*
%TO.N,+5V*%
D20*
X110500000Y-135267500D02*
X110500000Y-133017500D01*
X109300000Y-135517500D02*
X110250000Y-135517500D01*
X110250000Y-135517500D02*
X110500000Y-135267500D01*
%TO.N,Net-(J1-CC1)*%
D19*
X110000000Y-139767500D02*
X110500000Y-139267500D01*
X104750000Y-139017500D02*
X105500000Y-139767500D01*
X105500000Y-139767500D02*
X110000000Y-139767500D01*
%TO.N,Net-(J1-D+-PadA6)*%
X111448686Y-139583728D02*
X111933772Y-139583728D01*
X111933772Y-139583728D02*
X112250000Y-139267500D01*
X112250000Y-139267500D02*
X113000000Y-139267500D01*
%TD*%
%TA.AperFunction,Conductor*%
%TO.N,VIN*%
G36*
X116776135Y-99517367D02*
G01*
X116843151Y-99537123D01*
X116888849Y-99589976D01*
X116900000Y-99641367D01*
X116900000Y-100644638D01*
X116880315Y-100711677D01*
X116827511Y-100757432D01*
X116758353Y-100767376D01*
X116694797Y-100738351D01*
X116688319Y-100732319D01*
X116674038Y-100718038D01*
X116674034Y-100718035D01*
X116526553Y-100619490D01*
X116526540Y-100619483D01*
X116362667Y-100551606D01*
X116362658Y-100551603D01*
X116188694Y-100517000D01*
X116188691Y-100517000D01*
X116011309Y-100517000D01*
X116011306Y-100517000D01*
X115837341Y-100551603D01*
X115837332Y-100551606D01*
X115673459Y-100619483D01*
X115673446Y-100619490D01*
X115525965Y-100718035D01*
X115525961Y-100718038D01*
X115400538Y-100843461D01*
X115400535Y-100843465D01*
X115301990Y-100990946D01*
X115301983Y-100990959D01*
X115234106Y-101154832D01*
X115234103Y-101154841D01*
X115199500Y-101328804D01*
X115199500Y-101506195D01*
X115234103Y-101680158D01*
X115234106Y-101680167D01*
X115301983Y-101844040D01*
X115301990Y-101844053D01*
X115400534Y-101991533D01*
X115400535Y-101991534D01*
X115400536Y-101991535D01*
X115463182Y-102054181D01*
X115496666Y-102115502D01*
X115499500Y-102141861D01*
X115499500Y-108617402D01*
X115479815Y-108684441D01*
X115463181Y-108705083D01*
X114769481Y-109398782D01*
X114769477Y-109398787D01*
X114746585Y-109438440D01*
X114746584Y-109438442D01*
X114690423Y-109535715D01*
X114649499Y-109688443D01*
X114649499Y-109688445D01*
X114649499Y-109856546D01*
X114649500Y-109856559D01*
X114649500Y-110467402D01*
X114629815Y-110534441D01*
X114613181Y-110555083D01*
X113919481Y-111248782D01*
X113919479Y-111248785D01*
X113874279Y-111327076D01*
X113874277Y-111327078D01*
X113840425Y-111385709D01*
X113840424Y-111385710D01*
X113805111Y-111517500D01*
X112499296Y-111517500D01*
X112499296Y-99512808D01*
X116776135Y-99517367D01*
G37*
%TD.AperFunction*%
%TD*%
%TA.AperFunction,Conductor*%
%TO.N,GND*%
G36*
X128997782Y-48518079D02*
G01*
X129001100Y-48518197D01*
X129002207Y-48518237D01*
X129006624Y-48518473D01*
X129200146Y-48532314D01*
X129208916Y-48533256D01*
X129217713Y-48534521D01*
X129226370Y-48536084D01*
X129409465Y-48575913D01*
X129418038Y-48578100D01*
X129426506Y-48580587D01*
X129434896Y-48583378D01*
X129610475Y-48648866D01*
X129618640Y-48652249D01*
X129626666Y-48655914D01*
X129634570Y-48659869D01*
X129747495Y-48721532D01*
X129799013Y-48749663D01*
X129806630Y-48754182D01*
X129814078Y-48758969D01*
X129821344Y-48764015D01*
X129971312Y-48876279D01*
X129978204Y-48881833D01*
X129984893Y-48887629D01*
X129991372Y-48893661D01*
X130123837Y-49026126D01*
X130129869Y-49032605D01*
X130135665Y-49039294D01*
X130141219Y-49046186D01*
X130253483Y-49196154D01*
X130258529Y-49203420D01*
X130263316Y-49210868D01*
X130267835Y-49218485D01*
X130357620Y-49382913D01*
X130361577Y-49390817D01*
X130365256Y-49398872D01*
X130368640Y-49407042D01*
X130434111Y-49582580D01*
X130436906Y-49590978D01*
X130439398Y-49599465D01*
X130441587Y-49608042D01*
X130481407Y-49791095D01*
X130482978Y-49799797D01*
X130484238Y-49808556D01*
X130485185Y-49817365D01*
X130499026Y-50010871D01*
X130499263Y-50015291D01*
X130499421Y-50019714D01*
X130499500Y-50024141D01*
X130499500Y-74600573D01*
X130494476Y-74635511D01*
X130491289Y-74646364D01*
X130453514Y-74705141D01*
X130389957Y-74734164D01*
X130320807Y-74724223D01*
X130313829Y-74721036D01*
X130277657Y-74695922D01*
X129924866Y-74343131D01*
X129924861Y-74343126D01*
X129903713Y-74314876D01*
X129887825Y-74285780D01*
X129878612Y-74260372D01*
X129877662Y-74260661D01*
X129875895Y-74254837D01*
X129848741Y-74189281D01*
X129808016Y-74090959D01*
X129808009Y-74090946D01*
X129709464Y-73943465D01*
X129709461Y-73943461D01*
X129709456Y-73943455D01*
X129584043Y-73818042D01*
X129584037Y-73818037D01*
X129584036Y-73818036D01*
X129436559Y-73719494D01*
X129436558Y-73719493D01*
X129436553Y-73719490D01*
X129436540Y-73719483D01*
X129427791Y-73715859D01*
X129272676Y-73651609D01*
X129272653Y-73651601D01*
X129272646Y-73651599D01*
X129098698Y-73617000D01*
X129098694Y-73617000D01*
X129098691Y-73617000D01*
X128921309Y-73617000D01*
X128921306Y-73617000D01*
X128921301Y-73617000D01*
X128747352Y-73651600D01*
X128747345Y-73651601D01*
X128747322Y-73651609D01*
X128628424Y-73700857D01*
X128628423Y-73700859D01*
X128594225Y-73709587D01*
X128581276Y-73710979D01*
X128512517Y-73698572D01*
X128461380Y-73650961D01*
X128444102Y-73583262D01*
X128449046Y-73552756D01*
X128452935Y-73539509D01*
X128465985Y-73517515D01*
X128466168Y-73516968D01*
X128466441Y-73516747D01*
X128484228Y-73486769D01*
X128539464Y-73431535D01*
X128638013Y-73284047D01*
X128705894Y-73120166D01*
X128740500Y-72946191D01*
X128740500Y-72768809D01*
X128740500Y-72768806D01*
X128740500Y-72768625D01*
X128740074Y-72766669D01*
X128705896Y-72594841D01*
X128705893Y-72594832D01*
X128638016Y-72430959D01*
X128638009Y-72430946D01*
X128539464Y-72283465D01*
X128539461Y-72283461D01*
X128539456Y-72283455D01*
X128414043Y-72158042D01*
X128414037Y-72158037D01*
X128414036Y-72158036D01*
X128266559Y-72059494D01*
X128266558Y-72059493D01*
X128266553Y-72059490D01*
X128266540Y-72059483D01*
X128266526Y-72059477D01*
X128102676Y-71991609D01*
X128102653Y-71991601D01*
X128102646Y-71991599D01*
X127928698Y-71957000D01*
X127928694Y-71957000D01*
X127928691Y-71957000D01*
X127751309Y-71957000D01*
X127751306Y-71957000D01*
X127751301Y-71957000D01*
X127577352Y-71991600D01*
X127577345Y-71991601D01*
X127577322Y-71991609D01*
X127413472Y-72059477D01*
X127413454Y-72059485D01*
X127413439Y-72059494D01*
X127265962Y-72158036D01*
X127265961Y-72158037D01*
X127265955Y-72158042D01*
X127140542Y-72283455D01*
X127140537Y-72283461D01*
X127140536Y-72283462D01*
X127041994Y-72430939D01*
X127041985Y-72430954D01*
X127041977Y-72430972D01*
X126974109Y-72594822D01*
X126974101Y-72594845D01*
X126974099Y-72594852D01*
X126939500Y-72768799D01*
X126939500Y-72946199D01*
X126974099Y-73120146D01*
X126974101Y-73120153D01*
X126974109Y-73120176D01*
X127041977Y-73284026D01*
X127041985Y-73284044D01*
X127041994Y-73284059D01*
X127140532Y-73431531D01*
X127190574Y-73481573D01*
X127211724Y-73509824D01*
X127217888Y-73521112D01*
X127219812Y-73524106D01*
X127239500Y-73591143D01*
X127239500Y-73789572D01*
X127239499Y-73789574D01*
X127239500Y-73789575D01*
X127234476Y-73824509D01*
X127227064Y-73849750D01*
X127195769Y-73902494D01*
X125609483Y-75488778D01*
X125609479Y-75488783D01*
X125563424Y-75568556D01*
X125563422Y-75568560D01*
X125538586Y-75611573D01*
X125530424Y-75625710D01*
X125522707Y-75654513D01*
X125521527Y-75658916D01*
X125498033Y-75746597D01*
X125489499Y-75778444D01*
X125489499Y-75948900D01*
X125489500Y-75948951D01*
X125489500Y-76257808D01*
X125489499Y-76257810D01*
X125489500Y-76257812D01*
X125484476Y-76292747D01*
X125477064Y-76317987D01*
X125445770Y-76370728D01*
X125390543Y-76425955D01*
X125390535Y-76425964D01*
X125390532Y-76425969D01*
X125291994Y-76573439D01*
X125291985Y-76573454D01*
X125291977Y-76573472D01*
X125224109Y-76737322D01*
X125224101Y-76737345D01*
X125224099Y-76737352D01*
X125189500Y-76911299D01*
X125189500Y-77088699D01*
X125224099Y-77262646D01*
X125224101Y-77262653D01*
X125224109Y-77262676D01*
X125291977Y-77426526D01*
X125291985Y-77426544D01*
X125291994Y-77426559D01*
X125390536Y-77574036D01*
X125390537Y-77574037D01*
X125390542Y-77574043D01*
X125515955Y-77699456D01*
X125515961Y-77699461D01*
X125515965Y-77699464D01*
X125663446Y-77798009D01*
X125663459Y-77798016D01*
X125780643Y-77846554D01*
X125827334Y-77865894D01*
X125827336Y-77865894D01*
X125827341Y-77865896D01*
X125993680Y-77898982D01*
X125996403Y-77899704D01*
X126001306Y-77900500D01*
X126178693Y-77900500D01*
X126182814Y-77900500D01*
X126190667Y-77898117D01*
X126236682Y-77888964D01*
X126236683Y-77888964D01*
X126352653Y-77865897D01*
X126352653Y-77865896D01*
X126352658Y-77865896D01*
X126352661Y-77865894D01*
X126352666Y-77865894D01*
X126355854Y-77864573D01*
X126363835Y-77861273D01*
X126363876Y-77861251D01*
X126516540Y-77798016D01*
X126516540Y-77798015D01*
X126516547Y-77798013D01*
X126664035Y-77699464D01*
X126789464Y-77574035D01*
X126888013Y-77426547D01*
X126955894Y-77262666D01*
X126990500Y-77088691D01*
X126990500Y-76911309D01*
X126990500Y-76911306D01*
X126990500Y-76911125D01*
X126990074Y-76909169D01*
X126955896Y-76737341D01*
X126955893Y-76737332D01*
X126888016Y-76573459D01*
X126888009Y-76573446D01*
X126789464Y-76425965D01*
X126789461Y-76425961D01*
X126789457Y-76425956D01*
X126739426Y-76375926D01*
X126719643Y-76350113D01*
X126718961Y-76348929D01*
X126712115Y-76336391D01*
X126708542Y-76330832D01*
X126707037Y-76328217D01*
X126699525Y-76297088D01*
X126690500Y-76266348D01*
X126690500Y-76175426D01*
X126695522Y-76140493D01*
X126702934Y-76115248D01*
X126734228Y-76062506D01*
X127125214Y-75671520D01*
X127153457Y-75650376D01*
X127163391Y-75644952D01*
X127231661Y-75630099D01*
X127297126Y-75654513D01*
X127338999Y-75710445D01*
X127339001Y-75710449D01*
X127341682Y-75717637D01*
X127349500Y-75760971D01*
X127349500Y-75856199D01*
X127384099Y-76030146D01*
X127384101Y-76030153D01*
X127384109Y-76030176D01*
X127451977Y-76194026D01*
X127451985Y-76194044D01*
X127451994Y-76194059D01*
X127550532Y-76341531D01*
X127600574Y-76391573D01*
X127621724Y-76419825D01*
X127634331Y-76442912D01*
X127649500Y-76502341D01*
X127649500Y-77679090D01*
X127649499Y-77679164D01*
X127649499Y-77804460D01*
X127643600Y-77824546D01*
X127690423Y-77999286D01*
X127710662Y-78034341D01*
X127710663Y-78034341D01*
X127719358Y-78049401D01*
X127719359Y-78049404D01*
X127719360Y-78049404D01*
X127731422Y-78070296D01*
X127731422Y-78070298D01*
X127769467Y-78136195D01*
X127769477Y-78136211D01*
X127769481Y-78136217D01*
X127769485Y-78136222D01*
X127890314Y-78257051D01*
X127890358Y-78257093D01*
X128208995Y-78575731D01*
X128230146Y-78603985D01*
X128246033Y-78633080D01*
X128258818Y-78668315D01*
X128274102Y-78745153D01*
X128274103Y-78745157D01*
X128274104Y-78745160D01*
X128274107Y-78745170D01*
X128274110Y-78745178D01*
X128274115Y-78745192D01*
X128341978Y-78909030D01*
X128341986Y-78909047D01*
X128341994Y-78909059D01*
X128346559Y-78915892D01*
X128346561Y-78915894D01*
X128361794Y-78947732D01*
X128365941Y-78960976D01*
X128367188Y-79030834D01*
X128330474Y-79090273D01*
X128326578Y-79093773D01*
X128267902Y-79123146D01*
X128124857Y-79151600D01*
X128124827Y-79151607D01*
X127960972Y-79219477D01*
X127960954Y-79219485D01*
X127960939Y-79219494D01*
X127813462Y-79318036D01*
X127813461Y-79318037D01*
X127813455Y-79318042D01*
X127688042Y-79443455D01*
X127688037Y-79443461D01*
X127688036Y-79443462D01*
X127589494Y-79590939D01*
X127589485Y-79590954D01*
X127589477Y-79590972D01*
X127521609Y-79754822D01*
X127521601Y-79754845D01*
X127521599Y-79754852D01*
X127487000Y-79928799D01*
X127487000Y-80106199D01*
X127521599Y-80280146D01*
X127521601Y-80280153D01*
X127521609Y-80280176D01*
X127589477Y-80444026D01*
X127589485Y-80444044D01*
X127589491Y-80444054D01*
X127625074Y-80497308D01*
X127640304Y-80529141D01*
X127644976Y-80544060D01*
X127646226Y-80613919D01*
X127646223Y-80613928D01*
X127644279Y-80621013D01*
X127612380Y-80675883D01*
X126029599Y-82258663D01*
X126001344Y-82279815D01*
X125993447Y-82284127D01*
X125979222Y-82287221D01*
X125966838Y-82294873D01*
X125945766Y-82294498D01*
X125925174Y-82298978D01*
X125911534Y-82293890D01*
X125896979Y-82293632D01*
X125879453Y-82281924D01*
X125859710Y-82274560D01*
X125850986Y-82262907D01*
X125838881Y-82254820D01*
X125830467Y-82235497D01*
X125817839Y-82218627D01*
X125816293Y-82202942D01*
X125810989Y-82190759D01*
X125811615Y-82155476D01*
X125812436Y-82150409D01*
X125820274Y-82122801D01*
X125865894Y-82012666D01*
X125900500Y-81838691D01*
X125900500Y-81661309D01*
X125900500Y-81661306D01*
X125900500Y-81661125D01*
X125900074Y-81659169D01*
X125865896Y-81487341D01*
X125865893Y-81487332D01*
X125798016Y-81323459D01*
X125798009Y-81323446D01*
X125699464Y-81175965D01*
X125699461Y-81175961D01*
X125699456Y-81175955D01*
X125574043Y-81050542D01*
X125574037Y-81050537D01*
X125574036Y-81050536D01*
X125426559Y-80951994D01*
X125426558Y-80951993D01*
X125426553Y-80951990D01*
X125426540Y-80951983D01*
X125419109Y-80948905D01*
X125262676Y-80884109D01*
X125262653Y-80884101D01*
X125262646Y-80884099D01*
X125088698Y-80849500D01*
X125088694Y-80849500D01*
X125088691Y-80849500D01*
X124911309Y-80849500D01*
X124911306Y-80849500D01*
X124911301Y-80849500D01*
X124737352Y-80884100D01*
X124737345Y-80884101D01*
X124737322Y-80884109D01*
X124615398Y-80934611D01*
X124615396Y-80934613D01*
X124581198Y-80943341D01*
X124565657Y-80945012D01*
X124496898Y-80932608D01*
X124496896Y-80932606D01*
X124484720Y-80926511D01*
X124452544Y-80903309D01*
X122949426Y-79400191D01*
X122928274Y-79371935D01*
X122915667Y-79348846D01*
X122900500Y-79289421D01*
X122900500Y-78142190D01*
X122905522Y-78107257D01*
X122912934Y-78082012D01*
X122944228Y-78029269D01*
X123049464Y-77924035D01*
X123148013Y-77776547D01*
X123215894Y-77612666D01*
X123219615Y-77593963D01*
X123250499Y-77438695D01*
X123250500Y-77438693D01*
X123250500Y-77261306D01*
X123250499Y-77261304D01*
X123215896Y-77087341D01*
X123215893Y-77087332D01*
X123148016Y-76923459D01*
X123148009Y-76923446D01*
X123049464Y-76775965D01*
X123049461Y-76775961D01*
X123049456Y-76775955D01*
X122924043Y-76650542D01*
X122924037Y-76650537D01*
X122924036Y-76650536D01*
X122776559Y-76551994D01*
X122776558Y-76551993D01*
X122776553Y-76551990D01*
X122776540Y-76551983D01*
X122776526Y-76551977D01*
X122612676Y-76484109D01*
X122612653Y-76484101D01*
X122612646Y-76484099D01*
X122438698Y-76449500D01*
X122438694Y-76449500D01*
X122438691Y-76449500D01*
X122342330Y-76449500D01*
X122342325Y-76449499D01*
X122342323Y-76449500D01*
X122307389Y-76444475D01*
X122292390Y-76440070D01*
X122233644Y-76402327D01*
X122233615Y-76402293D01*
X122233614Y-76402293D01*
X122233613Y-76402291D01*
X122232457Y-76400958D01*
X122204977Y-76346083D01*
X122203332Y-76338521D01*
X122200500Y-76312168D01*
X122200500Y-66742329D01*
X122205523Y-66707393D01*
X122209927Y-66692395D01*
X122247672Y-66633644D01*
X122247700Y-66633619D01*
X122247699Y-66633619D01*
X122249041Y-66632456D01*
X122303920Y-66604977D01*
X122311479Y-66603333D01*
X122337832Y-66600500D01*
X126811380Y-66600500D01*
X126811443Y-66600501D01*
X126813347Y-66600501D01*
X126820943Y-66600501D01*
X126979054Y-66600501D01*
X126979057Y-66600501D01*
X127131785Y-66559577D01*
X127181904Y-66530639D01*
X127268716Y-66480520D01*
X127380520Y-66368716D01*
X127380520Y-66368715D01*
X127397960Y-66351275D01*
X127397961Y-66351273D01*
X129681274Y-64067960D01*
X129681277Y-64067958D01*
X129698715Y-64050520D01*
X129698716Y-64050520D01*
X129810520Y-63938716D01*
X129861836Y-63849834D01*
X129889577Y-63801785D01*
X129930501Y-63649057D01*
X129930501Y-63490943D01*
X129930501Y-63483348D01*
X129930501Y-63481664D01*
X129930500Y-63481590D01*
X129930500Y-54821452D01*
X129930501Y-54821401D01*
X129930501Y-54650946D01*
X129930500Y-54650940D01*
X129930377Y-54650479D01*
X129930377Y-54650478D01*
X129889578Y-54498220D01*
X129889577Y-54498216D01*
X129861451Y-54449500D01*
X129810524Y-54361290D01*
X129810518Y-54361282D01*
X129810513Y-54361276D01*
X127191928Y-51742693D01*
X127187590Y-51738355D01*
X127187588Y-51738352D01*
X127068717Y-51619481D01*
X127068716Y-51619480D01*
X127068715Y-51619479D01*
X127068712Y-51619477D01*
X127002798Y-51581421D01*
X127002798Y-51581422D01*
X126966843Y-51560664D01*
X126966842Y-51560663D01*
X126931786Y-51540423D01*
X126893603Y-51530192D01*
X126779057Y-51499499D01*
X126779054Y-51499499D01*
X126611443Y-51499499D01*
X126611380Y-51499500D01*
X121276121Y-51499500D01*
X121276058Y-51499499D01*
X121274154Y-51499499D01*
X121266558Y-51499499D01*
X121108443Y-51499499D01*
X121032078Y-51519960D01*
X121032079Y-51519961D01*
X120955717Y-51540422D01*
X120955715Y-51540422D01*
X120955714Y-51540423D01*
X120955712Y-51540423D01*
X120955643Y-51540453D01*
X120954834Y-51540930D01*
X120818798Y-51619470D01*
X120818793Y-51619472D01*
X120818790Y-51619475D01*
X120818787Y-51619477D01*
X120818777Y-51619484D01*
X120550195Y-51888066D01*
X120550194Y-51888069D01*
X120521940Y-51909221D01*
X120498853Y-51921829D01*
X120439421Y-51937000D01*
X120361301Y-51937000D01*
X120187352Y-51971600D01*
X120187345Y-51971601D01*
X120187322Y-51971609D01*
X120023472Y-52039477D01*
X120023454Y-52039485D01*
X120023439Y-52039494D01*
X119875962Y-52138036D01*
X119875961Y-52138037D01*
X119875955Y-52138042D01*
X119750542Y-52263455D01*
X119750537Y-52263461D01*
X119750536Y-52263462D01*
X119651994Y-52410939D01*
X119651985Y-52410954D01*
X119651977Y-52410972D01*
X119584109Y-52574822D01*
X119584101Y-52574845D01*
X119584099Y-52574852D01*
X119549500Y-52748799D01*
X119549500Y-52926199D01*
X119584099Y-53100146D01*
X119584101Y-53100153D01*
X119584109Y-53100176D01*
X119651977Y-53264026D01*
X119651983Y-53264040D01*
X119651990Y-53264053D01*
X119705265Y-53343784D01*
X119705266Y-53343787D01*
X119705268Y-53343788D01*
X119720499Y-53375626D01*
X119725170Y-53390546D01*
X119726416Y-53460398D01*
X119722815Y-53473525D01*
X119706335Y-53509611D01*
X119651999Y-53590930D01*
X119651990Y-53590944D01*
X119651986Y-53590952D01*
X119651977Y-53590972D01*
X119584109Y-53754822D01*
X119584101Y-53754845D01*
X119584099Y-53754852D01*
X119549500Y-53928799D01*
X119549500Y-54106199D01*
X119584099Y-54280146D01*
X119584101Y-54280153D01*
X119584109Y-54280176D01*
X119651977Y-54444026D01*
X119651983Y-54444040D01*
X119651990Y-54444053D01*
X119742015Y-54578784D01*
X119742016Y-54578787D01*
X119742018Y-54578788D01*
X119757249Y-54610626D01*
X119761920Y-54625546D01*
X119763168Y-54695393D01*
X119759567Y-54708522D01*
X119743085Y-54744614D01*
X119651994Y-54880939D01*
X119651985Y-54880954D01*
X119651977Y-54880972D01*
X119584109Y-55044822D01*
X119584101Y-55044845D01*
X119584099Y-55044852D01*
X119549500Y-55218799D01*
X119549500Y-55396199D01*
X119584099Y-55570146D01*
X119584101Y-55570153D01*
X119584109Y-55570176D01*
X119651977Y-55734026D01*
X119651985Y-55734044D01*
X119651994Y-55734059D01*
X119750536Y-55881536D01*
X119750537Y-55881537D01*
X119750542Y-55881543D01*
X119875955Y-56006956D01*
X119875961Y-56006961D01*
X119875965Y-56006964D01*
X120023446Y-56105509D01*
X120023459Y-56105516D01*
X120127980Y-56148809D01*
X120187334Y-56173394D01*
X120187336Y-56173394D01*
X120187341Y-56173396D01*
X120353680Y-56206482D01*
X120356403Y-56207204D01*
X120361306Y-56208000D01*
X120538693Y-56208000D01*
X120542814Y-56208000D01*
X120550667Y-56205617D01*
X120596682Y-56196464D01*
X120596683Y-56196464D01*
X120712653Y-56173397D01*
X120712653Y-56173396D01*
X120712658Y-56173396D01*
X120712661Y-56173394D01*
X120712666Y-56173394D01*
X120715854Y-56172073D01*
X120723835Y-56168773D01*
X120723876Y-56168751D01*
X120876540Y-56105516D01*
X120876540Y-56105515D01*
X120876547Y-56105513D01*
X121024035Y-56006964D01*
X121149464Y-55881535D01*
X121248013Y-55734047D01*
X121315894Y-55570166D01*
X121322286Y-55538035D01*
X121341889Y-55439483D01*
X121350500Y-55396191D01*
X121350500Y-55218809D01*
X121350500Y-55218806D01*
X121350500Y-55218804D01*
X121350500Y-55218803D01*
X121333694Y-55134319D01*
X121333694Y-55134318D01*
X121332968Y-55130669D01*
X121330394Y-55117733D01*
X121328505Y-55082500D01*
X121330376Y-55061592D01*
X121350172Y-55004678D01*
X121353859Y-54999051D01*
X121369877Y-54979356D01*
X122599811Y-53749423D01*
X122628061Y-53728275D01*
X122651153Y-53715667D01*
X122710578Y-53700500D01*
X125882073Y-53700500D01*
X125917005Y-53705521D01*
X125942249Y-53712934D01*
X125994995Y-53744230D01*
X127650573Y-55399808D01*
X127671723Y-55428060D01*
X127684331Y-55451149D01*
X127699500Y-55510578D01*
X127699500Y-63082073D01*
X127699499Y-63082075D01*
X127699500Y-63082076D01*
X127694476Y-63117010D01*
X127687064Y-63142251D01*
X127655769Y-63194995D01*
X126300191Y-64550573D01*
X126271940Y-64571722D01*
X126248852Y-64584330D01*
X126189422Y-64599500D01*
X120720943Y-64599500D01*
X120568218Y-64640422D01*
X120568211Y-64640424D01*
X120568210Y-64640425D01*
X120568200Y-64640430D01*
X120431298Y-64719470D01*
X120431294Y-64719472D01*
X120431290Y-64719475D01*
X120431282Y-64719481D01*
X120431278Y-64719484D01*
X120431276Y-64719485D01*
X120319485Y-64831276D01*
X120319484Y-64831278D01*
X120319481Y-64831281D01*
X120319481Y-64831282D01*
X120319475Y-64831290D01*
X120319472Y-64831294D01*
X120319470Y-64831298D01*
X120240430Y-64968200D01*
X120240425Y-64968210D01*
X120240424Y-64968211D01*
X120240422Y-64968218D01*
X120231514Y-65001464D01*
X120199500Y-65120943D01*
X120199500Y-82144702D01*
X120199499Y-82144720D01*
X120199499Y-82218627D01*
X120199499Y-82270395D01*
X120193248Y-82291681D01*
X120198322Y-82306902D01*
X120200459Y-82314017D01*
X120240422Y-82463155D01*
X120240425Y-82463162D01*
X120261981Y-82500497D01*
X120261981Y-82500500D01*
X120261983Y-82500500D01*
X120319476Y-82600083D01*
X120319477Y-82600084D01*
X120319482Y-82600090D01*
X120319488Y-82600097D01*
X120440314Y-82720923D01*
X120440359Y-82720966D01*
X122870574Y-85151181D01*
X122891723Y-85179432D01*
X122904331Y-85202521D01*
X122919500Y-85261950D01*
X122919500Y-85775170D01*
X122914475Y-85810114D01*
X122910070Y-85825112D01*
X122872327Y-85883855D01*
X122870958Y-85885042D01*
X122816097Y-85912518D01*
X122808539Y-85914163D01*
X122782168Y-85917000D01*
X111438549Y-85917000D01*
X111438547Y-85916999D01*
X111438547Y-85917000D01*
X111403612Y-85911976D01*
X111371805Y-85902636D01*
X111337852Y-85886763D01*
X111297856Y-85860039D01*
X111297855Y-85860038D01*
X111289548Y-85854487D01*
X111289538Y-85854482D01*
X111125676Y-85786609D01*
X111125653Y-85786601D01*
X111125646Y-85786599D01*
X110951698Y-85752000D01*
X110951694Y-85752000D01*
X110951691Y-85752000D01*
X110774309Y-85752000D01*
X110774306Y-85752000D01*
X110774301Y-85752000D01*
X110600352Y-85786600D01*
X110600345Y-85786601D01*
X110600322Y-85786609D01*
X110436472Y-85854477D01*
X110436454Y-85854485D01*
X110436439Y-85854494D01*
X110288962Y-85953036D01*
X110288961Y-85953037D01*
X110288955Y-85953042D01*
X110163542Y-86078455D01*
X110163537Y-86078461D01*
X110163536Y-86078462D01*
X110064994Y-86225939D01*
X110064985Y-86225954D01*
X110064977Y-86225972D01*
X109997109Y-86389822D01*
X109997101Y-86389845D01*
X109997099Y-86389852D01*
X109962500Y-86563799D01*
X109962500Y-86741199D01*
X109997099Y-86915146D01*
X109997101Y-86915153D01*
X109997109Y-86915176D01*
X110064973Y-87079017D01*
X110064985Y-87079044D01*
X110064994Y-87079059D01*
X110163536Y-87226536D01*
X110163537Y-87226537D01*
X110163542Y-87226543D01*
X110288955Y-87351956D01*
X110288961Y-87351961D01*
X110288965Y-87351964D01*
X110436446Y-87450509D01*
X110436459Y-87450516D01*
X110461493Y-87460885D01*
X110558144Y-87500919D01*
X110558182Y-87500934D01*
X110559363Y-87501423D01*
X110600334Y-87518394D01*
X110600336Y-87518394D01*
X110600341Y-87518396D01*
X110766680Y-87551482D01*
X110769403Y-87552204D01*
X110774306Y-87553000D01*
X110951693Y-87553000D01*
X110955814Y-87553000D01*
X110963667Y-87550617D01*
X111009682Y-87541464D01*
X111009683Y-87541464D01*
X111125653Y-87518397D01*
X111125653Y-87518396D01*
X111125658Y-87518396D01*
X111125661Y-87518394D01*
X111125666Y-87518394D01*
X111128854Y-87517073D01*
X111136835Y-87513773D01*
X111136876Y-87513751D01*
X111289540Y-87450516D01*
X111289540Y-87450515D01*
X111289547Y-87450513D01*
X111437035Y-87351964D01*
X111562464Y-87226535D01*
X111588264Y-87187921D01*
X111611838Y-87161677D01*
X111627943Y-87148218D01*
X111682187Y-87121972D01*
X111688769Y-87120602D01*
X111714037Y-87118000D01*
X121820664Y-87118000D01*
X121855596Y-87123021D01*
X121868915Y-87126932D01*
X121883915Y-87136572D01*
X121901024Y-87141597D01*
X121912695Y-87155068D01*
X121927693Y-87164706D01*
X121935101Y-87180927D01*
X121946777Y-87194403D01*
X121956716Y-87228254D01*
X121956719Y-87228261D01*
X121956720Y-87228268D01*
X121957558Y-87234098D01*
X121954401Y-87284546D01*
X121948139Y-87307367D01*
X121948584Y-87309368D01*
X121946481Y-87325238D01*
X121933294Y-87391535D01*
X121921563Y-87450516D01*
X121919500Y-87460886D01*
X121919500Y-87638280D01*
X121954099Y-87812227D01*
X121954101Y-87812234D01*
X121954109Y-87812257D01*
X122021977Y-87976107D01*
X122021985Y-87976125D01*
X122021994Y-87976140D01*
X122120536Y-88123617D01*
X122120537Y-88123618D01*
X122120542Y-88123624D01*
X122245955Y-88249037D01*
X122245961Y-88249042D01*
X122245965Y-88249045D01*
X122393446Y-88347590D01*
X122393459Y-88347597D01*
X122429579Y-88362558D01*
X122515144Y-88398000D01*
X122515182Y-88398015D01*
X122516363Y-88398504D01*
X122557334Y-88415475D01*
X122557336Y-88415475D01*
X122557341Y-88415477D01*
X122723680Y-88448563D01*
X122726403Y-88449285D01*
X122731306Y-88450081D01*
X122731307Y-88450081D01*
X122777671Y-88450081D01*
X122812606Y-88455104D01*
X122827604Y-88459508D01*
X122886355Y-88497253D01*
X122886379Y-88497281D01*
X122886382Y-88497283D01*
X122886383Y-88497285D01*
X122887542Y-88498622D01*
X122915018Y-88553483D01*
X122916663Y-88561041D01*
X122919500Y-88587412D01*
X122919500Y-89139528D01*
X122899815Y-89206567D01*
X122847011Y-89252322D01*
X122780443Y-89261897D01*
X122780414Y-89262316D01*
X122778490Y-89262178D01*
X122777867Y-89262268D01*
X122776005Y-89262000D01*
X122776000Y-89262000D01*
X115374000Y-89262000D01*
X115373991Y-89262000D01*
X115373990Y-89262001D01*
X115266549Y-89273552D01*
X115266537Y-89273554D01*
X115215027Y-89284760D01*
X115112502Y-89318883D01*
X115112496Y-89318886D01*
X114991462Y-89396671D01*
X114991451Y-89396679D01*
X114938659Y-89442423D01*
X114844433Y-89551164D01*
X114844430Y-89551168D01*
X114784664Y-89682034D01*
X114764976Y-89749082D01*
X114744500Y-89891501D01*
X114744500Y-95388000D01*
X114724815Y-95455039D01*
X114672011Y-95500794D01*
X114620500Y-95512000D01*
X105874000Y-95512000D01*
X105873991Y-95512000D01*
X105873990Y-95512001D01*
X105766549Y-95523552D01*
X105766537Y-95523554D01*
X105715027Y-95534760D01*
X105612502Y-95568883D01*
X105612496Y-95568886D01*
X105491462Y-95646671D01*
X105491451Y-95646679D01*
X105438659Y-95692423D01*
X105344433Y-95801164D01*
X105344430Y-95801168D01*
X105284664Y-95932034D01*
X105264976Y-95999082D01*
X105244500Y-96141501D01*
X105244500Y-130643491D01*
X105256057Y-130750962D01*
X105267268Y-130802486D01*
X105267271Y-130802496D01*
X105301410Y-130905043D01*
X105301410Y-130905044D01*
X105379215Y-131026084D01*
X105424974Y-131078882D01*
X105512965Y-131155110D01*
X105533718Y-131173089D01*
X105664602Y-131232846D01*
X105720995Y-131249398D01*
X105727388Y-131251913D01*
X105731643Y-131252524D01*
X105731644Y-131252525D01*
X105874062Y-131272987D01*
X111370008Y-131272446D01*
X111437049Y-131292124D01*
X111482809Y-131344923D01*
X111494020Y-131396434D01*
X111494126Y-132475672D01*
X111474448Y-132542713D01*
X111421649Y-132588473D01*
X111352491Y-132598424D01*
X111288932Y-132569405D01*
X111267024Y-132544575D01*
X111199462Y-132443462D01*
X111199461Y-132443461D01*
X111199456Y-132443455D01*
X111074043Y-132318042D01*
X111074037Y-132318037D01*
X111074036Y-132318036D01*
X110926559Y-132219494D01*
X110926558Y-132219493D01*
X110926553Y-132219490D01*
X110926540Y-132219483D01*
X110926526Y-132219477D01*
X110762676Y-132151609D01*
X110762653Y-132151601D01*
X110762646Y-132151599D01*
X110588698Y-132117000D01*
X110588694Y-132117000D01*
X110588691Y-132117000D01*
X110411309Y-132117000D01*
X110411306Y-132117000D01*
X110411301Y-132117000D01*
X110237352Y-132151600D01*
X110237345Y-132151601D01*
X110237322Y-132151609D01*
X110073472Y-132219477D01*
X110073454Y-132219485D01*
X110073439Y-132219494D01*
X109925962Y-132318036D01*
X109925961Y-132318037D01*
X109925955Y-132318042D01*
X109800542Y-132443455D01*
X109800537Y-132443461D01*
X109800536Y-132443462D01*
X109701994Y-132590939D01*
X109701985Y-132590954D01*
X109701977Y-132590972D01*
X109634109Y-132754822D01*
X109634101Y-132754845D01*
X109634099Y-132754852D01*
X109599500Y-132928799D01*
X109599500Y-133106199D01*
X109634099Y-133280146D01*
X109634101Y-133280153D01*
X109634109Y-133280176D01*
X109701982Y-133444038D01*
X109701984Y-133444042D01*
X109701985Y-133444043D01*
X109701987Y-133444047D01*
X109718697Y-133469055D01*
X109733928Y-133500890D01*
X109743834Y-133532526D01*
X109749500Y-133569579D01*
X109749500Y-134525586D01*
X109744475Y-134560527D01*
X109740564Y-134573844D01*
X109730925Y-134588840D01*
X109725902Y-134605946D01*
X109712427Y-134617620D01*
X109702787Y-134632620D01*
X109686568Y-134640025D01*
X109673096Y-134651699D01*
X109639231Y-134661642D01*
X109634048Y-134662387D01*
X109568958Y-134654211D01*
X109562678Y-134651610D01*
X109562653Y-134651601D01*
X109562646Y-134651599D01*
X109388698Y-134617000D01*
X109388694Y-134617000D01*
X109388691Y-134617000D01*
X109211309Y-134617000D01*
X109211306Y-134617000D01*
X109211301Y-134617000D01*
X109037352Y-134651600D01*
X109037345Y-134651601D01*
X109037322Y-134651609D01*
X108873472Y-134719477D01*
X108873454Y-134719485D01*
X108873439Y-134719494D01*
X108725962Y-134818036D01*
X108725961Y-134818037D01*
X108725955Y-134818042D01*
X108600542Y-134943455D01*
X108600537Y-134943461D01*
X108600536Y-134943462D01*
X108501994Y-135090939D01*
X108501985Y-135090954D01*
X108501977Y-135090972D01*
X108434109Y-135254822D01*
X108434101Y-135254845D01*
X108434099Y-135254852D01*
X108399500Y-135428799D01*
X108399500Y-135606199D01*
X108434099Y-135780146D01*
X108434101Y-135780153D01*
X108434109Y-135780176D01*
X108501977Y-135944026D01*
X108501985Y-135944044D01*
X108501994Y-135944059D01*
X108600536Y-136091536D01*
X108600537Y-136091537D01*
X108600542Y-136091543D01*
X108725955Y-136216956D01*
X108725961Y-136216961D01*
X108725965Y-136216964D01*
X108873446Y-136315509D01*
X108873459Y-136315516D01*
X108995082Y-136365893D01*
X109037334Y-136383394D01*
X109037336Y-136383394D01*
X109037341Y-136383396D01*
X109203680Y-136416482D01*
X109206403Y-136417204D01*
X109211306Y-136418000D01*
X109388693Y-136418000D01*
X109392814Y-136418000D01*
X109400657Y-136415619D01*
X109476674Y-136400499D01*
X109562658Y-136383396D01*
X109562661Y-136383394D01*
X109562666Y-136383394D01*
X109566447Y-136381827D01*
X109573834Y-136378773D01*
X109573876Y-136378751D01*
X109720934Y-136317838D01*
X109721329Y-136317674D01*
X109726547Y-136315513D01*
X109726548Y-136315512D01*
X109726551Y-136315510D01*
X109726552Y-136315510D01*
X109727466Y-136314899D01*
X109727467Y-136314899D01*
X109738455Y-136307556D01*
X109751554Y-136298803D01*
X109783389Y-136283571D01*
X109803163Y-136277380D01*
X109815029Y-136273665D01*
X109852080Y-136268000D01*
X110323920Y-136268000D01*
X110421462Y-136248596D01*
X110468913Y-136239158D01*
X110605495Y-136182584D01*
X110664735Y-136143001D01*
X110728416Y-136100452D01*
X111082951Y-135745916D01*
X111165084Y-135622995D01*
X111221658Y-135486413D01*
X111233117Y-135428804D01*
X111248794Y-135349992D01*
X111281179Y-135288083D01*
X111341895Y-135253509D01*
X111411665Y-135257250D01*
X111468336Y-135298116D01*
X111493918Y-135363134D01*
X111494411Y-135374174D01*
X111494487Y-136143555D01*
X111494488Y-136143576D01*
X111506045Y-136250992D01*
X111517253Y-136302496D01*
X111551372Y-136404999D01*
X111551376Y-136405006D01*
X111629154Y-136526031D01*
X111629167Y-136526048D01*
X111674911Y-136578840D01*
X111674914Y-136578843D01*
X111674918Y-136578847D01*
X111783652Y-136673067D01*
X111783655Y-136673068D01*
X111783656Y-136673069D01*
X111876273Y-136715367D01*
X111914529Y-136732838D01*
X111981568Y-136752523D01*
X111981572Y-136752524D01*
X112123988Y-136773000D01*
X112123991Y-136773000D01*
X123139127Y-136773000D01*
X123139129Y-136773000D01*
X123162539Y-136770466D01*
X123247278Y-136761295D01*
X123299109Y-136749943D01*
X123402256Y-136715368D01*
X123523074Y-136637237D01*
X123575748Y-136591332D01*
X123669657Y-136482334D01*
X123729056Y-136351287D01*
X123746862Y-136290002D01*
X123747484Y-136288196D01*
X123748551Y-136284192D01*
X123748553Y-136284187D01*
X123768625Y-136141713D01*
X123741609Y-126621947D01*
X123729902Y-126515214D01*
X123718694Y-126464049D01*
X123684711Y-126362201D01*
X123606917Y-126241165D01*
X123606911Y-126241158D01*
X123561164Y-126188368D01*
X123561161Y-126188365D01*
X123561159Y-126188363D01*
X123452419Y-126094148D01*
X123405842Y-126072880D01*
X123321542Y-126034386D01*
X123321538Y-126034385D01*
X123255541Y-126015009D01*
X123254566Y-126014713D01*
X123254497Y-126014703D01*
X123112080Y-125994234D01*
X123112079Y-125994234D01*
X114930162Y-125994653D01*
X114921476Y-125992103D01*
X114912515Y-125993392D01*
X114888476Y-125982415D01*
X114863122Y-125974972D01*
X114857193Y-125968130D01*
X114848958Y-125964370D01*
X114834670Y-125942141D01*
X114817364Y-125922170D01*
X114815075Y-125911653D01*
X114811181Y-125905594D01*
X114806156Y-125870663D01*
X114806145Y-125642009D01*
X114825826Y-125574969D01*
X114878628Y-125529211D01*
X114930145Y-125518003D01*
X115221429Y-125518003D01*
X115221492Y-125518004D01*
X115223396Y-125518004D01*
X115230992Y-125518004D01*
X115389103Y-125518004D01*
X115389106Y-125518004D01*
X115541834Y-125477080D01*
X115591953Y-125448142D01*
X115678765Y-125398023D01*
X115790569Y-125286219D01*
X115790569Y-125286218D01*
X115808009Y-125268778D01*
X115808010Y-125268775D01*
X117208301Y-123868483D01*
X117236549Y-123847340D01*
X117250269Y-123839849D01*
X117318535Y-123824999D01*
X117332115Y-123825970D01*
X117370723Y-123835093D01*
X117487333Y-123883394D01*
X117487338Y-123883395D01*
X117487341Y-123883396D01*
X117653680Y-123916482D01*
X117656403Y-123917204D01*
X117661306Y-123918000D01*
X117838693Y-123918000D01*
X117842814Y-123918000D01*
X117850667Y-123915617D01*
X117896682Y-123906464D01*
X117896683Y-123906464D01*
X118012653Y-123883397D01*
X118012653Y-123883396D01*
X118012658Y-123883396D01*
X118012661Y-123883394D01*
X118012666Y-123883394D01*
X118015854Y-123882073D01*
X118023835Y-123878773D01*
X118023876Y-123878751D01*
X118176540Y-123815516D01*
X118176540Y-123815515D01*
X118176547Y-123815513D01*
X118324035Y-123716964D01*
X118449464Y-123591535D01*
X118548013Y-123444047D01*
X118615894Y-123280166D01*
X118622826Y-123245320D01*
X118650499Y-123106195D01*
X118650500Y-123106193D01*
X118650500Y-122928806D01*
X118650499Y-122928804D01*
X118615896Y-122754841D01*
X118615893Y-122754832D01*
X118600651Y-122718035D01*
X118593267Y-122700207D01*
X118548015Y-122590957D01*
X118548014Y-122590955D01*
X118548013Y-122590953D01*
X118547218Y-122589764D01*
X118544576Y-122583420D01*
X118544418Y-122581986D01*
X118540708Y-122572793D01*
X118534968Y-122554462D01*
X118533720Y-122484605D01*
X118537827Y-122469633D01*
X118545765Y-122449719D01*
X118545681Y-122449685D01*
X118615893Y-122280174D01*
X118615894Y-122280172D01*
X118627613Y-122221260D01*
X118650500Y-122106198D01*
X118650500Y-121928812D01*
X118650500Y-121928631D01*
X118650074Y-121926675D01*
X118615896Y-121754847D01*
X118615893Y-121754838D01*
X118548016Y-121590965D01*
X118548009Y-121590952D01*
X118449464Y-121443471D01*
X118449461Y-121443467D01*
X118449456Y-121443461D01*
X118324043Y-121318048D01*
X118324038Y-121318044D01*
X118324026Y-121318036D01*
X118252289Y-121270102D01*
X118176560Y-121219500D01*
X118176553Y-121219496D01*
X118176544Y-121219491D01*
X118176541Y-121219489D01*
X118176536Y-121219487D01*
X118101360Y-121188349D01*
X118071013Y-121170345D01*
X118061293Y-121162512D01*
X118021447Y-121105124D01*
X118018951Y-121035299D01*
X118051933Y-120977770D01*
X118058992Y-120970794D01*
X118084147Y-120951608D01*
X118133666Y-120923020D01*
X118245470Y-120811216D01*
X118280520Y-120776166D01*
X118330639Y-120689354D01*
X118359577Y-120639235D01*
X118400500Y-120486507D01*
X118400500Y-120459690D01*
X118405522Y-120424757D01*
X118412934Y-120399512D01*
X118444228Y-120346769D01*
X118499464Y-120291535D01*
X118598013Y-120144047D01*
X118614689Y-120103787D01*
X118665890Y-119980176D01*
X118665890Y-119980174D01*
X118665894Y-119980166D01*
X118671762Y-119950659D01*
X118683502Y-119917383D01*
X118698869Y-119888004D01*
X118721058Y-119857807D01*
X119382952Y-119195915D01*
X119410205Y-119155127D01*
X119465084Y-119072995D01*
X119496562Y-118997000D01*
X119521659Y-118936412D01*
X119538528Y-118851604D01*
X119540387Y-118842260D01*
X119544415Y-118822007D01*
X119545411Y-118817002D01*
X119545411Y-118816998D01*
X119550500Y-118791417D01*
X119550500Y-117109829D01*
X119550825Y-117107572D01*
X119555523Y-117074893D01*
X119559927Y-117059895D01*
X119597672Y-117001144D01*
X119597700Y-117001119D01*
X119597699Y-117001119D01*
X119599041Y-116999956D01*
X119653920Y-116972477D01*
X119661479Y-116970833D01*
X119687832Y-116968000D01*
X126007671Y-116968000D01*
X126042606Y-116973023D01*
X126057604Y-116977427D01*
X126116355Y-117015172D01*
X126116379Y-117015200D01*
X126116382Y-117015202D01*
X126116383Y-117015204D01*
X126117542Y-117016541D01*
X126145018Y-117071402D01*
X126146663Y-117078960D01*
X126149500Y-117105331D01*
X126149500Y-125747051D01*
X126144237Y-125764971D01*
X126175508Y-125922170D01*
X126178340Y-125936407D01*
X126178343Y-125936417D01*
X126202465Y-125994653D01*
X126234912Y-126072989D01*
X126234914Y-126072991D01*
X126234918Y-126072999D01*
X126243369Y-126085645D01*
X126243375Y-126085655D01*
X126246967Y-126091032D01*
X126246969Y-126091035D01*
X126317046Y-126195914D01*
X126317052Y-126195921D01*
X126317058Y-126195927D01*
X126317059Y-126195928D01*
X126858841Y-126737708D01*
X127121586Y-127000453D01*
X127121589Y-127000455D01*
X127244481Y-127082569D01*
X127244485Y-127082571D01*
X127244498Y-127082580D01*
X127244511Y-127082587D01*
X127381082Y-127139156D01*
X127381087Y-127139158D01*
X127381091Y-127139158D01*
X127381092Y-127139159D01*
X127381357Y-127139211D01*
X127381358Y-127139212D01*
X127381382Y-127139217D01*
X127526071Y-127167999D01*
X127526076Y-127167999D01*
X127526079Y-127168000D01*
X127526081Y-127168000D01*
X127528074Y-127168196D01*
X127550864Y-127172622D01*
X127572361Y-127178934D01*
X127624316Y-127209448D01*
X127629111Y-127214157D01*
X127645317Y-127233725D01*
X127650537Y-127241537D01*
X127775961Y-127366961D01*
X127775965Y-127366964D01*
X127923446Y-127465509D01*
X127923459Y-127465516D01*
X128011500Y-127501983D01*
X128087334Y-127533394D01*
X128087336Y-127533394D01*
X128087341Y-127533396D01*
X128253680Y-127566482D01*
X128256403Y-127567204D01*
X128261306Y-127568000D01*
X128438693Y-127568000D01*
X128442814Y-127568000D01*
X128450667Y-127565617D01*
X128496682Y-127556464D01*
X128496683Y-127556464D01*
X128612653Y-127533397D01*
X128612653Y-127533396D01*
X128612658Y-127533396D01*
X128612661Y-127533394D01*
X128612666Y-127533394D01*
X128615854Y-127532073D01*
X128623835Y-127528773D01*
X128623876Y-127528751D01*
X128776540Y-127465516D01*
X128776540Y-127465515D01*
X128776547Y-127465513D01*
X128924035Y-127366964D01*
X129049464Y-127241535D01*
X129061775Y-127223110D01*
X129062485Y-127222046D01*
X129086070Y-127195786D01*
X129094760Y-127188523D01*
X129111084Y-127181418D01*
X129116082Y-127177240D01*
X129122553Y-127176425D01*
X129158821Y-127160640D01*
X129227791Y-127171818D01*
X129279739Y-127218461D01*
X129280967Y-127220447D01*
X129299500Y-127285660D01*
X129299500Y-127864399D01*
X129299499Y-127864401D01*
X129299500Y-127864402D01*
X129294476Y-127899337D01*
X129285136Y-127931143D01*
X129269263Y-127965095D01*
X129251986Y-127990952D01*
X129251285Y-127992382D01*
X129250302Y-127995016D01*
X129184109Y-128154822D01*
X129184101Y-128154845D01*
X129184099Y-128154852D01*
X129149500Y-128328799D01*
X129149500Y-128506199D01*
X129184099Y-128680146D01*
X129184101Y-128680153D01*
X129184109Y-128680176D01*
X129251977Y-128844026D01*
X129251985Y-128844044D01*
X129251994Y-128844059D01*
X129350536Y-128991536D01*
X129350537Y-128991537D01*
X129350542Y-128991543D01*
X129475955Y-129116956D01*
X129475961Y-129116961D01*
X129475965Y-129116964D01*
X129623446Y-129215509D01*
X129623459Y-129215516D01*
X129659579Y-129230477D01*
X129745144Y-129265919D01*
X129745182Y-129265934D01*
X129746363Y-129266423D01*
X129787334Y-129283394D01*
X129787336Y-129283394D01*
X129787341Y-129283396D01*
X129953680Y-129316482D01*
X129956403Y-129317204D01*
X129961306Y-129318000D01*
X130138693Y-129318000D01*
X130142813Y-129318000D01*
X130150662Y-129315618D01*
X130225025Y-129300827D01*
X130312658Y-129283396D01*
X130312660Y-129283394D01*
X130312663Y-129283394D01*
X130312666Y-129283394D01*
X130312669Y-129283392D01*
X130315753Y-129282779D01*
X130345767Y-129275116D01*
X130359578Y-129273631D01*
X130377191Y-129276809D01*
X130381131Y-129276389D01*
X130384656Y-129278157D01*
X130428333Y-129286038D01*
X130479461Y-129333635D01*
X130482135Y-129338142D01*
X130499500Y-129401425D01*
X130499500Y-143010856D01*
X130499420Y-143015309D01*
X130499261Y-143019734D01*
X130499025Y-143024127D01*
X130485185Y-143217632D01*
X130484238Y-143226442D01*
X130482978Y-143235201D01*
X130481407Y-143243903D01*
X130441587Y-143426956D01*
X130439398Y-143435533D01*
X130436906Y-143444020D01*
X130434111Y-143452418D01*
X130368640Y-143627956D01*
X130365250Y-143636141D01*
X130361580Y-143644176D01*
X130357620Y-143652085D01*
X130267835Y-143816513D01*
X130263316Y-143824130D01*
X130258529Y-143831578D01*
X130253483Y-143838844D01*
X130141219Y-143988812D01*
X130135665Y-143995704D01*
X130129869Y-144002393D01*
X130123837Y-144008872D01*
X129991372Y-144141337D01*
X129984893Y-144147369D01*
X129978204Y-144153165D01*
X129971312Y-144158719D01*
X129821344Y-144270983D01*
X129814078Y-144276029D01*
X129806630Y-144280816D01*
X129799013Y-144285335D01*
X129634585Y-144375120D01*
X129626676Y-144379080D01*
X129618641Y-144382750D01*
X129610456Y-144386140D01*
X129434918Y-144451611D01*
X129426520Y-144454406D01*
X129418033Y-144456898D01*
X129409456Y-144459087D01*
X129226403Y-144498907D01*
X129217699Y-144500478D01*
X129208939Y-144501738D01*
X129200132Y-144502685D01*
X129023779Y-144515299D01*
X129015674Y-144515878D01*
X129006618Y-144516526D01*
X129002234Y-144516761D01*
X128997929Y-144516915D01*
X128997810Y-144516920D01*
X128993356Y-144517000D01*
X103006643Y-144517000D01*
X103002218Y-144516921D01*
X102997792Y-144516762D01*
X102993374Y-144516526D01*
X102986118Y-144516007D01*
X102973622Y-144515113D01*
X102973621Y-144515112D01*
X102799866Y-144502685D01*
X102791059Y-144501738D01*
X102782299Y-144500478D01*
X102773595Y-144498907D01*
X102590542Y-144459087D01*
X102581965Y-144456898D01*
X102573478Y-144454406D01*
X102565080Y-144451611D01*
X102389542Y-144386140D01*
X102381372Y-144382756D01*
X102373317Y-144379077D01*
X102365413Y-144375120D01*
X102200985Y-144285335D01*
X102193368Y-144280816D01*
X102185920Y-144276029D01*
X102178654Y-144270983D01*
X102028686Y-144158719D01*
X102021794Y-144153165D01*
X102015105Y-144147369D01*
X102008626Y-144141337D01*
X101876161Y-144008872D01*
X101870129Y-144002393D01*
X101864333Y-143995704D01*
X101858779Y-143988812D01*
X101746515Y-143838844D01*
X101741469Y-143831578D01*
X101736682Y-143824130D01*
X101732171Y-143816528D01*
X101642366Y-143652064D01*
X101638417Y-143644172D01*
X101634747Y-143636135D01*
X101631366Y-143627974D01*
X101565878Y-143452396D01*
X101563090Y-143444017D01*
X101560595Y-143435517D01*
X101558412Y-143426960D01*
X101558411Y-143426956D01*
X101518587Y-143243885D01*
X101517020Y-143235201D01*
X101515757Y-143226417D01*
X101514814Y-143217651D01*
X101500973Y-143024124D01*
X101500737Y-143019706D01*
X101500579Y-143015280D01*
X101500500Y-143010856D01*
X101500500Y-138928799D01*
X103849500Y-138928799D01*
X103849500Y-139106199D01*
X103884099Y-139280146D01*
X103884101Y-139280153D01*
X103884109Y-139280176D01*
X103951977Y-139444026D01*
X103951985Y-139444044D01*
X103951994Y-139444059D01*
X104050536Y-139591536D01*
X104050537Y-139591537D01*
X104050542Y-139591543D01*
X104175955Y-139716956D01*
X104175961Y-139716961D01*
X104175965Y-139716964D01*
X104323446Y-139815509D01*
X104323459Y-139815516D01*
X104359579Y-139830477D01*
X104445144Y-139865919D01*
X104445182Y-139865934D01*
X104446363Y-139866423D01*
X104487334Y-139883394D01*
X104487336Y-139883394D01*
X104487341Y-139883396D01*
X104653680Y-139916482D01*
X104656403Y-139917204D01*
X104661306Y-139918000D01*
X104661307Y-139918000D01*
X104661309Y-139918000D01*
X104732073Y-139918000D01*
X104767005Y-139923021D01*
X104792249Y-139930434D01*
X104844995Y-139961730D01*
X105014085Y-140130820D01*
X105014106Y-140130842D01*
X105015149Y-140131885D01*
X105019479Y-140136215D01*
X105019480Y-140136216D01*
X105131284Y-140248020D01*
X105192207Y-140283193D01*
X105218095Y-140298139D01*
X105218097Y-140298141D01*
X105256146Y-140320108D01*
X105256149Y-140320111D01*
X105256150Y-140320111D01*
X105268211Y-140327075D01*
X105268212Y-140327075D01*
X105268215Y-140327077D01*
X105420943Y-140368000D01*
X109911380Y-140368000D01*
X109911443Y-140368001D01*
X109913347Y-140368001D01*
X109920943Y-140368001D01*
X110079054Y-140368001D01*
X110079057Y-140368001D01*
X110231785Y-140327077D01*
X110281904Y-140298139D01*
X110368716Y-140248020D01*
X110411461Y-140205273D01*
X110419915Y-140199259D01*
X110431627Y-140195210D01*
X110447015Y-140185473D01*
X110446842Y-140185086D01*
X110449540Y-140183876D01*
X110450118Y-140183511D01*
X110450587Y-140183343D01*
X110451288Y-140183093D01*
X110451296Y-140183088D01*
X110455723Y-140181105D01*
X110456082Y-140181907D01*
X110510578Y-140168000D01*
X110588692Y-140168000D01*
X110648637Y-140156075D01*
X110683869Y-140154186D01*
X110704778Y-140156057D01*
X110761692Y-140175851D01*
X110767316Y-140179536D01*
X110787023Y-140195564D01*
X110839480Y-140248021D01*
X110874648Y-140283190D01*
X110874651Y-140283192D01*
X110874652Y-140283193D01*
X111022132Y-140381737D01*
X111022145Y-140381744D01*
X111058265Y-140396705D01*
X111143830Y-140432147D01*
X111143868Y-140432162D01*
X111145049Y-140432651D01*
X111186020Y-140449622D01*
X111186022Y-140449622D01*
X111186027Y-140449624D01*
X111352366Y-140482710D01*
X111355089Y-140483432D01*
X111359992Y-140484228D01*
X111537379Y-140484228D01*
X111541500Y-140484228D01*
X111549353Y-140481845D01*
X111595368Y-140472692D01*
X111595369Y-140472692D01*
X111711339Y-140449625D01*
X111711339Y-140449624D01*
X111711344Y-140449624D01*
X111711347Y-140449622D01*
X111711352Y-140449622D01*
X111714540Y-140448301D01*
X111722521Y-140445001D01*
X111722562Y-140444979D01*
X111875226Y-140381744D01*
X111875226Y-140381743D01*
X111875233Y-140381741D01*
X112022721Y-140283192D01*
X112141305Y-140164606D01*
X112153485Y-140153925D01*
X112166271Y-140144114D01*
X112179741Y-140135114D01*
X112215676Y-140114367D01*
X112302488Y-140064248D01*
X112325696Y-140041038D01*
X112328690Y-140038798D01*
X112353948Y-140019888D01*
X112367669Y-140012395D01*
X112435939Y-139997543D01*
X112443269Y-139998067D01*
X112503313Y-140018647D01*
X112573446Y-140065509D01*
X112573459Y-140065516D01*
X112691398Y-140114367D01*
X112737334Y-140133394D01*
X112737336Y-140133394D01*
X112737341Y-140133396D01*
X112903680Y-140166482D01*
X112906403Y-140167204D01*
X112911306Y-140168000D01*
X113088693Y-140168000D01*
X113092814Y-140168000D01*
X113100661Y-140165618D01*
X113166122Y-140152598D01*
X113262658Y-140133396D01*
X113262660Y-140133394D01*
X113262662Y-140133394D01*
X113262666Y-140133394D01*
X113265854Y-140132073D01*
X113273835Y-140128773D01*
X113273876Y-140128751D01*
X113426540Y-140065516D01*
X113426540Y-140065515D01*
X113426547Y-140065513D01*
X113574035Y-139966964D01*
X113699464Y-139841535D01*
X113798013Y-139694047D01*
X113865894Y-139530166D01*
X113883029Y-139444026D01*
X113900499Y-139356195D01*
X113900500Y-139356193D01*
X113900500Y-139178398D01*
X113900068Y-139176638D01*
X113865896Y-139004841D01*
X113865893Y-139004832D01*
X113798016Y-138840959D01*
X113798009Y-138840946D01*
X113699464Y-138693465D01*
X113699461Y-138693461D01*
X113699456Y-138693455D01*
X113592735Y-138586734D01*
X114064500Y-138586734D01*
X114064500Y-138738266D01*
X114068941Y-138754841D01*
X114092015Y-138840954D01*
X114103719Y-138884636D01*
X114103720Y-138884639D01*
X114129216Y-138928799D01*
X114129220Y-138928804D01*
X114179485Y-139015865D01*
X114286635Y-139123015D01*
X114417865Y-139198781D01*
X114564234Y-139238000D01*
X114564236Y-139238000D01*
X114715764Y-139238000D01*
X114715766Y-139238000D01*
X114862135Y-139198781D01*
X114993365Y-139123015D01*
X115100515Y-139015865D01*
X115176281Y-138884635D01*
X115215500Y-138738266D01*
X115215500Y-138586734D01*
X115176281Y-138440365D01*
X115176276Y-138440357D01*
X115153903Y-138401606D01*
X115100515Y-138309135D01*
X114993365Y-138201985D01*
X114927750Y-138164102D01*
X114862136Y-138126219D01*
X114788950Y-138106609D01*
X114788949Y-138106608D01*
X114715767Y-138087000D01*
X114715766Y-138087000D01*
X114564234Y-138087000D01*
X114417859Y-138126220D01*
X114417857Y-138126221D01*
X114286645Y-138201978D01*
X114286631Y-138201987D01*
X114286626Y-138201991D01*
X114179491Y-138309126D01*
X114179487Y-138309131D01*
X114179478Y-138309145D01*
X114103721Y-138440357D01*
X114103720Y-138440359D01*
X114069510Y-138568037D01*
X114064500Y-138586734D01*
X113592735Y-138586734D01*
X113574043Y-138568042D01*
X113574037Y-138568037D01*
X113574036Y-138568036D01*
X113426559Y-138469494D01*
X113426558Y-138469493D01*
X113426553Y-138469490D01*
X113426540Y-138469483D01*
X113426526Y-138469477D01*
X113262676Y-138401609D01*
X113262653Y-138401601D01*
X113262646Y-138401599D01*
X113088698Y-138367000D01*
X113088694Y-138367000D01*
X113088691Y-138367000D01*
X112911309Y-138367000D01*
X112911306Y-138367000D01*
X112911301Y-138367000D01*
X112737352Y-138401600D01*
X112737345Y-138401601D01*
X112737322Y-138401609D01*
X112573472Y-138469477D01*
X112573454Y-138469485D01*
X112573439Y-138469494D01*
X112425964Y-138568034D01*
X112425962Y-138568036D01*
X112407266Y-138586734D01*
X112407263Y-138586738D01*
X112375926Y-138618074D01*
X112347678Y-138639220D01*
X112324591Y-138651828D01*
X112265159Y-138666999D01*
X112170943Y-138666999D01*
X112018215Y-138707923D01*
X112018213Y-138707923D01*
X111948410Y-138748216D01*
X111948409Y-138748218D01*
X111948405Y-138748219D01*
X111948401Y-138748222D01*
X111926747Y-138756890D01*
X111915643Y-138761335D01*
X111893185Y-138766783D01*
X111836870Y-138767284D01*
X111833997Y-138766641D01*
X111824031Y-138763488D01*
X111823394Y-138763458D01*
X111822960Y-138763149D01*
X111813628Y-138760197D01*
X111800651Y-138754822D01*
X111777267Y-138745136D01*
X111739693Y-138729573D01*
X111715399Y-138719510D01*
X111715398Y-138719510D01*
X111711345Y-138717831D01*
X111537383Y-138683228D01*
X111537380Y-138683228D01*
X111537377Y-138683228D01*
X111359995Y-138683228D01*
X111359990Y-138683228D01*
X111359987Y-138683228D01*
X111300052Y-138695149D01*
X111300052Y-138695150D01*
X111264808Y-138697040D01*
X111243910Y-138695170D01*
X111186990Y-138675373D01*
X111181369Y-138671689D01*
X111161664Y-138655664D01*
X111074038Y-138568038D01*
X111074037Y-138568037D01*
X111074036Y-138568036D01*
X110926559Y-138469494D01*
X110926558Y-138469493D01*
X110926553Y-138469490D01*
X110926540Y-138469483D01*
X110926526Y-138469477D01*
X110762676Y-138401609D01*
X110762653Y-138401601D01*
X110762646Y-138401599D01*
X110588698Y-138367000D01*
X110588694Y-138367000D01*
X110588691Y-138367000D01*
X110411309Y-138367000D01*
X110411306Y-138367000D01*
X110411301Y-138367000D01*
X110237352Y-138401600D01*
X110237345Y-138401601D01*
X110237322Y-138401609D01*
X110073472Y-138469477D01*
X110073454Y-138469485D01*
X110073439Y-138469494D01*
X109925962Y-138568036D01*
X109925961Y-138568037D01*
X109925955Y-138568042D01*
X109800542Y-138693455D01*
X109800537Y-138693461D01*
X109800536Y-138693462D01*
X109701994Y-138840939D01*
X109701985Y-138840954D01*
X109701977Y-138840972D01*
X109634109Y-139004822D01*
X109634106Y-139004831D01*
X109634102Y-139004842D01*
X109634101Y-139004845D01*
X109625178Y-139049707D01*
X109613457Y-139082951D01*
X109612287Y-139085189D01*
X109606991Y-139095314D01*
X109606958Y-139095384D01*
X109606150Y-139096932D01*
X109586369Y-139117445D01*
X109562719Y-139143279D01*
X109563127Y-139143913D01*
X109557830Y-139147317D01*
X109490793Y-139167000D01*
X109465862Y-139167000D01*
X109465859Y-139166999D01*
X109465858Y-139167000D01*
X109430923Y-139161976D01*
X109417605Y-139158065D01*
X109358828Y-139120289D01*
X109329806Y-139056732D01*
X109329804Y-139056721D01*
X109329573Y-139055113D01*
X109335130Y-138996932D01*
X109336775Y-138992180D01*
X109346558Y-138970758D01*
X109394303Y-138888059D01*
X109395879Y-138885522D01*
X109396279Y-138884638D01*
X109396281Y-138884635D01*
X109435500Y-138738266D01*
X109435500Y-138586734D01*
X109396281Y-138440365D01*
X109396276Y-138440357D01*
X109373903Y-138401606D01*
X109320515Y-138309135D01*
X109213365Y-138201985D01*
X109147750Y-138164102D01*
X109082136Y-138126219D01*
X109008950Y-138106609D01*
X109008949Y-138106608D01*
X108935767Y-138087000D01*
X108935766Y-138087000D01*
X108784234Y-138087000D01*
X108637859Y-138126220D01*
X108637857Y-138126221D01*
X108506645Y-138201978D01*
X108506631Y-138201987D01*
X108506626Y-138201991D01*
X108399491Y-138309126D01*
X108399487Y-138309131D01*
X108399478Y-138309145D01*
X108323721Y-138440357D01*
X108323720Y-138440359D01*
X108315916Y-138469485D01*
X108284500Y-138586734D01*
X108284500Y-138738266D01*
X108304641Y-138813437D01*
X108312014Y-138840954D01*
X108312016Y-138840959D01*
X108323720Y-138884637D01*
X108323720Y-138884638D01*
X108372294Y-138968771D01*
X108373951Y-138972082D01*
X108374686Y-138976166D01*
X108383557Y-138998322D01*
X108386829Y-139011807D01*
X108385633Y-139036925D01*
X108386340Y-139040845D01*
X108385331Y-139043278D01*
X108383508Y-139081598D01*
X108342986Y-139138510D01*
X108341707Y-139139516D01*
X108288523Y-139163809D01*
X108283597Y-139164758D01*
X108260130Y-139167000D01*
X105817927Y-139167000D01*
X105785687Y-139162735D01*
X105784305Y-139162363D01*
X105770656Y-139158355D01*
X105764223Y-139156955D01*
X105761287Y-139156165D01*
X105733963Y-139139464D01*
X105705847Y-139124112D01*
X105699426Y-139117691D01*
X105678274Y-139089435D01*
X105665667Y-139066346D01*
X105650500Y-139006921D01*
X105650500Y-138928625D01*
X105650074Y-138926669D01*
X105615896Y-138754841D01*
X105615893Y-138754832D01*
X105609030Y-138738264D01*
X105578338Y-138664165D01*
X105574815Y-138655660D01*
X105548018Y-138590965D01*
X105548016Y-138590959D01*
X105548009Y-138590946D01*
X105449464Y-138443465D01*
X105449461Y-138443461D01*
X105449456Y-138443455D01*
X105324043Y-138318042D01*
X105324037Y-138318037D01*
X105324036Y-138318036D01*
X105176559Y-138219494D01*
X105176558Y-138219493D01*
X105176553Y-138219490D01*
X105176540Y-138219483D01*
X105176526Y-138219477D01*
X105012676Y-138151609D01*
X105012653Y-138151601D01*
X105012646Y-138151599D01*
X104838698Y-138117000D01*
X104838694Y-138117000D01*
X104838691Y-138117000D01*
X104661309Y-138117000D01*
X104661306Y-138117000D01*
X104661301Y-138117000D01*
X104487352Y-138151600D01*
X104487345Y-138151601D01*
X104487322Y-138151609D01*
X104323472Y-138219477D01*
X104323454Y-138219485D01*
X104323439Y-138219494D01*
X104175962Y-138318036D01*
X104175961Y-138318037D01*
X104175955Y-138318042D01*
X104050542Y-138443455D01*
X104050537Y-138443461D01*
X104050536Y-138443462D01*
X103951994Y-138590939D01*
X103951985Y-138590954D01*
X103951977Y-138590972D01*
X103884109Y-138754822D01*
X103884100Y-138754849D01*
X103849500Y-138928799D01*
X101500500Y-138928799D01*
X101500500Y-112271207D01*
X102149500Y-112271207D01*
X102149500Y-112483791D01*
X102182752Y-112693739D01*
X102248445Y-112895918D01*
X102341532Y-113078611D01*
X102344951Y-113085320D01*
X102469890Y-113257286D01*
X102620213Y-113407609D01*
X102792182Y-113532550D01*
X102792190Y-113532554D01*
X102792693Y-113532863D01*
X102794174Y-113533996D01*
X102796122Y-113535412D01*
X102796086Y-113535460D01*
X102813034Y-113548434D01*
X102823315Y-113558143D01*
X102858541Y-113618483D01*
X102855552Y-113688289D01*
X102819383Y-113742007D01*
X102812227Y-113748208D01*
X102795814Y-113760223D01*
X102792190Y-113762443D01*
X102620210Y-113887392D01*
X102469892Y-114037710D01*
X102344949Y-114209682D01*
X102248445Y-114399080D01*
X102182752Y-114601259D01*
X102149500Y-114811207D01*
X102149500Y-115023786D01*
X102182754Y-115233744D01*
X102182754Y-115233747D01*
X102235426Y-115395852D01*
X102248442Y-115435910D01*
X102248443Y-115435912D01*
X102330645Y-115597244D01*
X102344951Y-115625320D01*
X102469890Y-115797286D01*
X102620213Y-115947609D01*
X102792182Y-116072550D01*
X102792190Y-116072554D01*
X102792693Y-116072863D01*
X102794174Y-116073996D01*
X102796122Y-116075412D01*
X102796086Y-116075460D01*
X102813034Y-116088434D01*
X102823315Y-116098143D01*
X102858541Y-116158483D01*
X102855552Y-116228289D01*
X102819383Y-116282007D01*
X102812227Y-116288208D01*
X102795814Y-116300223D01*
X102792190Y-116302443D01*
X102620210Y-116427392D01*
X102469892Y-116577710D01*
X102344949Y-116749682D01*
X102248445Y-116939082D01*
X102182752Y-117141263D01*
X102149500Y-117351206D01*
X102149500Y-117563791D01*
X102179851Y-117755419D01*
X102182752Y-117773735D01*
X102182753Y-117773739D01*
X102182754Y-117773743D01*
X102242120Y-117956453D01*
X102248444Y-117975914D01*
X102344951Y-118165320D01*
X102469890Y-118337286D01*
X102620213Y-118487609D01*
X102792182Y-118612550D01*
X102792190Y-118612554D01*
X102792693Y-118612863D01*
X102794174Y-118613996D01*
X102796122Y-118615412D01*
X102796086Y-118615460D01*
X102813034Y-118628434D01*
X102823315Y-118638143D01*
X102858541Y-118698483D01*
X102855552Y-118768289D01*
X102819383Y-118822007D01*
X102812227Y-118828208D01*
X102795814Y-118840223D01*
X102792190Y-118842443D01*
X102620210Y-118967392D01*
X102469892Y-119117710D01*
X102344949Y-119289682D01*
X102248445Y-119479080D01*
X102182752Y-119681259D01*
X102182752Y-119681260D01*
X102176934Y-119717999D01*
X102176934Y-119718000D01*
X102149500Y-119891207D01*
X102149500Y-120103785D01*
X102155877Y-120144047D01*
X102155877Y-120144049D01*
X102179236Y-120291535D01*
X102182752Y-120313734D01*
X102182754Y-120313742D01*
X102238887Y-120486505D01*
X102248441Y-120515908D01*
X102334228Y-120684276D01*
X102344951Y-120705320D01*
X102469890Y-120877286D01*
X102620213Y-121027609D01*
X102792182Y-121152550D01*
X102792190Y-121152554D01*
X102792693Y-121152863D01*
X102794174Y-121153996D01*
X102796122Y-121155412D01*
X102796086Y-121155460D01*
X102813034Y-121168434D01*
X102823315Y-121178143D01*
X102858541Y-121238483D01*
X102855552Y-121308289D01*
X102819383Y-121362007D01*
X102812227Y-121368208D01*
X102795814Y-121380223D01*
X102792190Y-121382443D01*
X102620210Y-121507392D01*
X102469892Y-121657710D01*
X102344949Y-121829682D01*
X102248445Y-122019080D01*
X102182752Y-122221259D01*
X102149500Y-122431207D01*
X102149500Y-122643791D01*
X102179401Y-122832577D01*
X102182752Y-122853734D01*
X102182755Y-122853746D01*
X102227335Y-122990952D01*
X102248441Y-123055906D01*
X102248443Y-123055912D01*
X102330645Y-123217244D01*
X102344951Y-123245320D01*
X102469890Y-123417286D01*
X102620213Y-123567609D01*
X102792182Y-123692550D01*
X102792190Y-123692554D01*
X102792693Y-123692863D01*
X102794174Y-123693996D01*
X102796122Y-123695412D01*
X102796086Y-123695460D01*
X102813034Y-123708434D01*
X102823315Y-123718143D01*
X102858541Y-123778483D01*
X102855552Y-123848289D01*
X102819383Y-123902007D01*
X102812227Y-123908208D01*
X102795814Y-123920223D01*
X102792190Y-123922443D01*
X102620210Y-124047392D01*
X102469892Y-124197710D01*
X102344949Y-124369682D01*
X102248445Y-124559080D01*
X102182752Y-124761259D01*
X102149500Y-124971207D01*
X102149500Y-125183791D01*
X102180922Y-125382181D01*
X102182754Y-125393743D01*
X102225401Y-125524999D01*
X102248443Y-125595914D01*
X102330755Y-125757458D01*
X102344951Y-125785320D01*
X102469890Y-125957286D01*
X102620213Y-126107609D01*
X102792182Y-126232550D01*
X102792190Y-126232554D01*
X102792693Y-126232863D01*
X102794174Y-126233996D01*
X102796122Y-126235412D01*
X102796086Y-126235460D01*
X102813034Y-126248434D01*
X102823315Y-126258143D01*
X102858541Y-126318483D01*
X102855552Y-126388289D01*
X102819383Y-126442007D01*
X102812227Y-126448208D01*
X102795814Y-126460223D01*
X102792190Y-126462443D01*
X102620210Y-126587392D01*
X102469892Y-126737710D01*
X102344949Y-126909682D01*
X102248445Y-127099080D01*
X102182752Y-127301259D01*
X102149500Y-127511207D01*
X102149500Y-127723791D01*
X102180551Y-127919840D01*
X102182753Y-127933742D01*
X102216415Y-128037340D01*
X102248445Y-128135918D01*
X102341532Y-128318611D01*
X102344951Y-128325320D01*
X102469890Y-128497286D01*
X102469892Y-128497288D01*
X102620216Y-128647612D01*
X102792169Y-128772542D01*
X102792177Y-128772547D01*
X102792179Y-128772548D01*
X102792181Y-128772549D01*
X102792182Y-128772550D01*
X102792200Y-128772560D01*
X102792442Y-128772682D01*
X102981588Y-128869057D01*
X103183757Y-128934746D01*
X103393713Y-128968000D01*
X103393714Y-128968000D01*
X103606286Y-128968000D01*
X103606287Y-128968000D01*
X103816243Y-128934746D01*
X104018412Y-128869057D01*
X104207816Y-128772551D01*
X104244491Y-128745905D01*
X104271137Y-128726547D01*
X104307902Y-128699834D01*
X104379786Y-128647609D01*
X104379788Y-128647606D01*
X104379792Y-128647604D01*
X104379797Y-128647598D01*
X104379849Y-128647561D01*
X104380592Y-128646803D01*
X104530104Y-128497292D01*
X104530106Y-128497288D01*
X104530109Y-128497286D01*
X104655048Y-128325320D01*
X104655047Y-128325320D01*
X104655051Y-128325316D01*
X104655053Y-128325310D01*
X104675445Y-128297244D01*
X104683730Y-128269029D01*
X104751557Y-128135912D01*
X104817246Y-127933743D01*
X104850500Y-127723787D01*
X104850500Y-127511213D01*
X104817246Y-127301257D01*
X104751557Y-127099088D01*
X104655051Y-126909684D01*
X104655049Y-126909681D01*
X104655048Y-126909679D01*
X104654702Y-126909203D01*
X104654700Y-126909199D01*
X104530112Y-126737716D01*
X104379782Y-126587386D01*
X104207824Y-126462453D01*
X104207258Y-126462106D01*
X104205627Y-126460857D01*
X104203901Y-126459603D01*
X104203932Y-126459559D01*
X104186960Y-126446562D01*
X104176683Y-126436857D01*
X104141457Y-126376517D01*
X104144445Y-126306712D01*
X104180612Y-126252995D01*
X104187783Y-126246781D01*
X104204194Y-126234769D01*
X104207792Y-126232563D01*
X104207816Y-126232551D01*
X104263769Y-126191898D01*
X104291586Y-126171690D01*
X104315358Y-126154417D01*
X104379786Y-126107609D01*
X104379788Y-126107606D01*
X104379792Y-126107604D01*
X104379798Y-126107597D01*
X104379850Y-126107560D01*
X104380592Y-126106803D01*
X104530104Y-125957292D01*
X104530106Y-125957288D01*
X104530109Y-125957286D01*
X104655048Y-125785320D01*
X104655047Y-125785320D01*
X104655051Y-125785316D01*
X104655053Y-125785310D01*
X104675445Y-125757244D01*
X104683730Y-125729029D01*
X104751557Y-125595912D01*
X104817246Y-125393743D01*
X104850500Y-125183787D01*
X104850500Y-124971213D01*
X104817246Y-124761257D01*
X104751557Y-124559088D01*
X104655051Y-124369684D01*
X104655049Y-124369681D01*
X104655048Y-124369679D01*
X104654702Y-124369203D01*
X104654700Y-124369199D01*
X104530112Y-124197716D01*
X104379782Y-124047386D01*
X104207824Y-123922453D01*
X104207258Y-123922106D01*
X104205627Y-123920857D01*
X104203901Y-123919603D01*
X104203932Y-123919559D01*
X104186960Y-123906562D01*
X104176683Y-123896857D01*
X104141457Y-123836517D01*
X104144445Y-123766712D01*
X104180612Y-123712995D01*
X104187783Y-123706781D01*
X104204201Y-123694766D01*
X104207819Y-123692549D01*
X104213158Y-123688669D01*
X104231969Y-123675002D01*
X104231973Y-123675001D01*
X104346854Y-123591535D01*
X104379786Y-123567609D01*
X104379788Y-123567606D01*
X104379792Y-123567604D01*
X104379796Y-123567599D01*
X104379850Y-123567560D01*
X104380606Y-123566790D01*
X104530104Y-123417292D01*
X104530106Y-123417288D01*
X104530109Y-123417286D01*
X104655048Y-123245320D01*
X104655047Y-123245320D01*
X104655051Y-123245316D01*
X104655053Y-123245310D01*
X104675445Y-123217244D01*
X104683730Y-123189029D01*
X104751557Y-123055912D01*
X104817246Y-122853743D01*
X104850500Y-122643787D01*
X104850500Y-122431213D01*
X104817246Y-122221257D01*
X104751557Y-122019088D01*
X104655051Y-121829684D01*
X104655049Y-121829681D01*
X104655048Y-121829679D01*
X104654702Y-121829203D01*
X104654700Y-121829199D01*
X104530112Y-121657716D01*
X104379782Y-121507386D01*
X104207824Y-121382453D01*
X104207258Y-121382106D01*
X104205627Y-121380857D01*
X104203901Y-121379603D01*
X104203932Y-121379559D01*
X104186960Y-121366562D01*
X104176683Y-121356857D01*
X104141457Y-121296517D01*
X104144445Y-121226712D01*
X104180612Y-121172995D01*
X104187783Y-121166781D01*
X104204194Y-121154769D01*
X104207794Y-121152562D01*
X104207816Y-121152551D01*
X104331953Y-121062361D01*
X104379786Y-121027609D01*
X104379787Y-121027606D01*
X104379790Y-121027605D01*
X104379792Y-121027604D01*
X104379793Y-121027602D01*
X104379847Y-121027563D01*
X104380605Y-121026790D01*
X104530104Y-120877292D01*
X104530106Y-120877288D01*
X104530109Y-120877286D01*
X104655048Y-120705320D01*
X104655047Y-120705320D01*
X104655051Y-120705316D01*
X104655053Y-120705310D01*
X104675445Y-120677244D01*
X104683730Y-120649029D01*
X104751557Y-120515912D01*
X104817246Y-120313743D01*
X104850500Y-120103787D01*
X104850500Y-119891213D01*
X104817246Y-119681257D01*
X104751557Y-119479088D01*
X104655051Y-119289684D01*
X104655049Y-119289681D01*
X104655048Y-119289679D01*
X104654702Y-119289203D01*
X104654700Y-119289199D01*
X104530112Y-119117716D01*
X104379788Y-118967392D01*
X104379786Y-118967390D01*
X104207820Y-118842451D01*
X104207816Y-118842449D01*
X104207812Y-118842446D01*
X104207296Y-118842130D01*
X104205788Y-118840976D01*
X104203878Y-118839588D01*
X104203912Y-118839540D01*
X104186960Y-118826563D01*
X104182136Y-118822007D01*
X104176680Y-118816854D01*
X104141457Y-118756517D01*
X104144445Y-118686711D01*
X104180613Y-118632993D01*
X104187783Y-118626781D01*
X104204187Y-118614775D01*
X104207816Y-118612551D01*
X104207817Y-118612550D01*
X104229789Y-118596586D01*
X104379786Y-118487609D01*
X104379787Y-118487606D01*
X104379790Y-118487605D01*
X104379792Y-118487604D01*
X104379793Y-118487602D01*
X104379847Y-118487563D01*
X104380605Y-118486790D01*
X104530104Y-118337292D01*
X104530106Y-118337288D01*
X104530109Y-118337286D01*
X104655048Y-118165320D01*
X104655047Y-118165320D01*
X104655051Y-118165316D01*
X104655053Y-118165310D01*
X104675445Y-118137244D01*
X104683730Y-118109029D01*
X104751557Y-117975912D01*
X104817246Y-117773743D01*
X104850500Y-117563787D01*
X104850500Y-117351213D01*
X104817246Y-117141257D01*
X104751557Y-116939088D01*
X104655051Y-116749684D01*
X104655049Y-116749681D01*
X104655048Y-116749679D01*
X104654702Y-116749203D01*
X104654700Y-116749199D01*
X104530112Y-116577716D01*
X104379782Y-116427386D01*
X104207824Y-116302453D01*
X104207258Y-116302106D01*
X104205627Y-116300857D01*
X104203901Y-116299603D01*
X104203932Y-116299559D01*
X104186960Y-116286562D01*
X104176683Y-116276857D01*
X104141457Y-116216517D01*
X104144445Y-116146712D01*
X104180612Y-116092995D01*
X104187783Y-116086781D01*
X104204194Y-116074769D01*
X104207792Y-116072563D01*
X104207816Y-116072551D01*
X104275810Y-116023150D01*
X104309614Y-115998592D01*
X104353126Y-115966978D01*
X104379786Y-115947609D01*
X104379787Y-115947607D01*
X104379848Y-115947563D01*
X104380609Y-115946786D01*
X104530104Y-115797292D01*
X104530106Y-115797288D01*
X104530109Y-115797286D01*
X104655048Y-115625320D01*
X104655047Y-115625320D01*
X104655051Y-115625316D01*
X104655053Y-115625310D01*
X104675445Y-115597244D01*
X104683730Y-115569029D01*
X104751557Y-115435912D01*
X104817246Y-115233743D01*
X104850500Y-115023787D01*
X104850500Y-114811213D01*
X104817246Y-114601257D01*
X104751557Y-114399088D01*
X104655051Y-114209684D01*
X104655049Y-114209681D01*
X104655048Y-114209679D01*
X104654702Y-114209203D01*
X104654700Y-114209199D01*
X104530112Y-114037716D01*
X104379782Y-113887386D01*
X104207824Y-113762453D01*
X104207258Y-113762106D01*
X104205627Y-113760857D01*
X104203901Y-113759603D01*
X104203932Y-113759559D01*
X104186960Y-113746562D01*
X104176683Y-113736857D01*
X104141457Y-113676517D01*
X104144445Y-113606712D01*
X104180613Y-113552993D01*
X104187783Y-113546781D01*
X104204187Y-113534775D01*
X104207816Y-113532551D01*
X104207817Y-113532550D01*
X104229789Y-113516586D01*
X104379786Y-113407609D01*
X104379787Y-113407606D01*
X104379790Y-113407605D01*
X104379792Y-113407604D01*
X104379793Y-113407602D01*
X104379847Y-113407563D01*
X104380605Y-113406790D01*
X104530104Y-113257292D01*
X104530106Y-113257288D01*
X104530109Y-113257286D01*
X104655048Y-113085320D01*
X104655047Y-113085320D01*
X104655051Y-113085316D01*
X104655053Y-113085310D01*
X104675445Y-113057244D01*
X104683730Y-113029029D01*
X104751557Y-112895912D01*
X104817246Y-112693743D01*
X104850500Y-112483787D01*
X104850500Y-112271213D01*
X104817246Y-112061257D01*
X104751557Y-111859088D01*
X104655051Y-111669684D01*
X104655049Y-111669681D01*
X104655048Y-111669679D01*
X104654702Y-111669203D01*
X104654700Y-111669199D01*
X104530112Y-111497716D01*
X104379788Y-111347392D01*
X104379786Y-111347390D01*
X104207820Y-111222451D01*
X104151016Y-111193508D01*
X104040245Y-111137067D01*
X104040240Y-111137065D01*
X104018414Y-111125944D01*
X104018413Y-111125943D01*
X104018412Y-111125943D01*
X103912516Y-111091535D01*
X103825074Y-111063123D01*
X103820552Y-111061270D01*
X103811362Y-111059100D01*
X103806599Y-111058726D01*
X103654957Y-111034708D01*
X103635489Y-111031624D01*
X103606290Y-111027000D01*
X103606287Y-111027000D01*
X103393713Y-111027000D01*
X103393709Y-111027000D01*
X103354776Y-111033166D01*
X103345042Y-111034708D01*
X103307654Y-111040629D01*
X103183763Y-111060252D01*
X102981582Y-111125945D01*
X102792182Y-111222449D01*
X102620210Y-111347392D01*
X102469892Y-111497710D01*
X102344949Y-111669682D01*
X102248445Y-111859080D01*
X102182752Y-112061259D01*
X102149500Y-112271207D01*
X101500500Y-112271207D01*
X101500500Y-96028799D01*
X102899500Y-96028799D01*
X102899500Y-96206199D01*
X102934099Y-96380146D01*
X102934101Y-96380153D01*
X102934109Y-96380176D01*
X103001977Y-96544026D01*
X103001985Y-96544044D01*
X103001994Y-96544059D01*
X103100536Y-96691536D01*
X103100537Y-96691537D01*
X103100542Y-96691543D01*
X103225955Y-96816956D01*
X103225961Y-96816961D01*
X103225965Y-96816964D01*
X103373446Y-96915509D01*
X103373459Y-96915516D01*
X103437885Y-96942202D01*
X103486238Y-96962230D01*
X103486252Y-96962235D01*
X103487272Y-96962658D01*
X103537334Y-96983394D01*
X103537336Y-96983394D01*
X103537341Y-96983396D01*
X103703680Y-97016482D01*
X103706403Y-97017204D01*
X103711306Y-97018000D01*
X103888693Y-97018000D01*
X103892814Y-97018000D01*
X103900667Y-97015617D01*
X103946682Y-97006464D01*
X103946683Y-97006464D01*
X104062653Y-96983397D01*
X104062653Y-96983396D01*
X104062658Y-96983396D01*
X104062661Y-96983394D01*
X104062666Y-96983394D01*
X104065854Y-96982073D01*
X104073835Y-96978773D01*
X104073876Y-96978751D01*
X104226540Y-96915516D01*
X104226540Y-96915515D01*
X104226547Y-96915513D01*
X104374035Y-96816964D01*
X104499464Y-96691535D01*
X104598013Y-96544047D01*
X104665894Y-96380166D01*
X104687120Y-96273459D01*
X104700499Y-96206195D01*
X104700500Y-96206193D01*
X104700500Y-96028806D01*
X104700499Y-96028804D01*
X104665896Y-95854841D01*
X104665893Y-95854832D01*
X104598016Y-95690959D01*
X104598009Y-95690946D01*
X104499464Y-95543465D01*
X104499461Y-95543461D01*
X104499457Y-95543456D01*
X104449426Y-95493426D01*
X104449423Y-95493422D01*
X104449422Y-95493422D01*
X104428272Y-95465167D01*
X104425547Y-95460177D01*
X104422742Y-95455039D01*
X104415666Y-95442079D01*
X104400500Y-95382656D01*
X104400500Y-94735425D01*
X104405522Y-94700492D01*
X104412934Y-94675247D01*
X104444228Y-94622505D01*
X104918713Y-94148021D01*
X104918716Y-94148020D01*
X105030520Y-94036216D01*
X105080639Y-93949404D01*
X105109577Y-93899285D01*
X105150500Y-93746557D01*
X105150500Y-93588443D01*
X105150500Y-85885426D01*
X105155522Y-85850493D01*
X105162934Y-85825248D01*
X105194228Y-85772506D01*
X106204812Y-84761923D01*
X106233062Y-84740775D01*
X106256154Y-84728167D01*
X106315579Y-84713000D01*
X109557809Y-84713000D01*
X109592741Y-84718021D01*
X109617985Y-84725434D01*
X109670731Y-84756730D01*
X109725962Y-84811961D01*
X109725966Y-84811965D01*
X109873446Y-84910509D01*
X109873459Y-84910516D01*
X109909579Y-84925477D01*
X109995144Y-84960919D01*
X109995182Y-84960934D01*
X109996363Y-84961423D01*
X110037334Y-84978394D01*
X110037336Y-84978394D01*
X110037341Y-84978396D01*
X110203680Y-85011482D01*
X110206403Y-85012204D01*
X110211306Y-85013000D01*
X110388693Y-85013000D01*
X110392814Y-85013000D01*
X110400667Y-85010617D01*
X110446682Y-85001464D01*
X110446683Y-85001464D01*
X110562653Y-84978397D01*
X110562653Y-84978396D01*
X110562658Y-84978396D01*
X110562661Y-84978394D01*
X110562666Y-84978394D01*
X110565854Y-84977073D01*
X110573835Y-84973773D01*
X110573876Y-84973751D01*
X110726540Y-84910516D01*
X110726540Y-84910515D01*
X110726547Y-84910513D01*
X110874035Y-84811964D01*
X110999464Y-84686535D01*
X111098013Y-84539047D01*
X111165894Y-84375166D01*
X111200500Y-84201191D01*
X111200500Y-84023809D01*
X111200500Y-84023806D01*
X111200500Y-84023625D01*
X111200074Y-84021669D01*
X111165896Y-83849841D01*
X111165893Y-83849832D01*
X111098016Y-83685959D01*
X111098009Y-83685946D01*
X110999464Y-83538465D01*
X110999461Y-83538461D01*
X110999456Y-83538455D01*
X110874043Y-83413042D01*
X110874037Y-83413037D01*
X110874036Y-83413036D01*
X110726559Y-83314494D01*
X110726558Y-83314493D01*
X110726553Y-83314490D01*
X110726540Y-83314483D01*
X110726526Y-83314477D01*
X110562676Y-83246609D01*
X110562653Y-83246601D01*
X110562646Y-83246599D01*
X110388698Y-83212000D01*
X110388694Y-83212000D01*
X110388691Y-83212000D01*
X110211309Y-83212000D01*
X110211306Y-83212000D01*
X110211301Y-83212000D01*
X110037352Y-83246600D01*
X110037345Y-83246601D01*
X110037322Y-83246609D01*
X109873472Y-83314477D01*
X109873454Y-83314485D01*
X109873439Y-83314494D01*
X109725966Y-83413033D01*
X109725962Y-83413036D01*
X109694644Y-83444356D01*
X109694643Y-83444357D01*
X109675923Y-83463077D01*
X109647675Y-83484223D01*
X109624589Y-83496830D01*
X109565158Y-83512000D01*
X106093621Y-83512000D01*
X106093558Y-83511999D01*
X106091654Y-83511999D01*
X106084058Y-83511999D01*
X105925943Y-83511999D01*
X105849578Y-83532460D01*
X105849579Y-83532461D01*
X105773217Y-83552922D01*
X105773215Y-83552922D01*
X105773214Y-83552923D01*
X105773212Y-83552923D01*
X105773143Y-83552953D01*
X105772334Y-83553430D01*
X105636298Y-83631970D01*
X105636294Y-83631972D01*
X105636290Y-83631975D01*
X105636282Y-83631981D01*
X105636278Y-83631984D01*
X105636276Y-83631985D01*
X104069485Y-85198776D01*
X104069481Y-85198781D01*
X104069481Y-85198782D01*
X104023424Y-85278556D01*
X104023422Y-85278560D01*
X103998585Y-85321575D01*
X103996614Y-85324144D01*
X103990187Y-85336152D01*
X103989390Y-85339566D01*
X103949499Y-85488443D01*
X103949499Y-85658900D01*
X103949500Y-85658951D01*
X103949500Y-93349572D01*
X103949499Y-93349574D01*
X103949500Y-93349575D01*
X103944476Y-93384509D01*
X103937064Y-93409750D01*
X103905769Y-93462494D01*
X103319481Y-94048781D01*
X103318976Y-94049481D01*
X103317620Y-94052003D01*
X103274921Y-94125963D01*
X103274920Y-94125965D01*
X103240423Y-94185715D01*
X103199499Y-94338443D01*
X103199499Y-94338445D01*
X103199499Y-94508900D01*
X103199500Y-94508951D01*
X103199500Y-95375308D01*
X103199499Y-95375310D01*
X103199500Y-95375312D01*
X103194476Y-95410247D01*
X103187064Y-95435487D01*
X103155770Y-95488228D01*
X103100543Y-95543455D01*
X103100535Y-95543464D01*
X103100532Y-95543469D01*
X103001994Y-95690939D01*
X103001985Y-95690954D01*
X103001977Y-95690972D01*
X102934109Y-95854822D01*
X102934101Y-95854845D01*
X102934099Y-95854852D01*
X102899500Y-96028799D01*
X101500500Y-96028799D01*
X101500500Y-61354142D01*
X107743624Y-61354142D01*
X107743624Y-61531542D01*
X107778223Y-61705489D01*
X107778225Y-61705496D01*
X107778233Y-61705519D01*
X107846101Y-61869369D01*
X107846109Y-61869387D01*
X107846118Y-61869402D01*
X107944660Y-62016879D01*
X107944661Y-62016880D01*
X107944666Y-62016886D01*
X108070079Y-62142299D01*
X108070085Y-62142304D01*
X108070089Y-62142307D01*
X108217570Y-62240852D01*
X108217583Y-62240859D01*
X108253703Y-62255820D01*
X108339268Y-62291262D01*
X108339306Y-62291277D01*
X108340487Y-62291766D01*
X108381458Y-62308737D01*
X108381460Y-62308737D01*
X108381465Y-62308739D01*
X108547804Y-62341825D01*
X108550527Y-62342547D01*
X108555430Y-62343343D01*
X108732817Y-62343343D01*
X108736938Y-62343343D01*
X108744791Y-62340960D01*
X108790806Y-62331807D01*
X108790807Y-62331807D01*
X108906777Y-62308740D01*
X108906777Y-62308739D01*
X108906782Y-62308739D01*
X108906785Y-62308737D01*
X108906790Y-62308737D01*
X108909978Y-62307416D01*
X108917959Y-62304116D01*
X108918000Y-62304094D01*
X109070664Y-62240859D01*
X109070664Y-62240858D01*
X109070671Y-62240856D01*
X109218159Y-62142307D01*
X109343588Y-62016878D01*
X109442137Y-61869390D01*
X109510018Y-61705509D01*
X109544624Y-61531534D01*
X109544624Y-61354152D01*
X109544624Y-61354149D01*
X109544624Y-61353968D01*
X109544198Y-61352012D01*
X109510020Y-61180184D01*
X109510017Y-61180175D01*
X109442137Y-61016296D01*
X109442135Y-61016294D01*
X109442135Y-61016292D01*
X109423389Y-60988236D01*
X109421533Y-60985068D01*
X109420533Y-60981059D01*
X109410195Y-60959449D01*
X109400289Y-60927812D01*
X109394624Y-60890760D01*
X109394624Y-57935935D01*
X109399646Y-57901002D01*
X109407058Y-57875757D01*
X109438352Y-57823015D01*
X109810714Y-57450653D01*
X109838957Y-57429509D01*
X109848891Y-57424085D01*
X109917161Y-57409232D01*
X109982626Y-57433646D01*
X110024499Y-57489578D01*
X110024501Y-57489582D01*
X110027182Y-57496770D01*
X110035000Y-57540104D01*
X110035000Y-63559399D01*
X110029976Y-63594337D01*
X110020636Y-63626143D01*
X110004763Y-63660095D01*
X109987486Y-63685952D01*
X109986785Y-63687382D01*
X109985802Y-63690016D01*
X109919609Y-63849822D01*
X109919601Y-63849845D01*
X109919599Y-63849852D01*
X109885000Y-64023799D01*
X109885000Y-64201199D01*
X109919599Y-64375146D01*
X109919601Y-64375153D01*
X109919609Y-64375176D01*
X109987477Y-64539026D01*
X109987485Y-64539044D01*
X109987494Y-64539059D01*
X110086036Y-64686536D01*
X110086037Y-64686537D01*
X110086042Y-64686543D01*
X110211455Y-64811956D01*
X110211461Y-64811961D01*
X110211465Y-64811964D01*
X110358946Y-64910509D01*
X110358959Y-64910516D01*
X110395079Y-64925477D01*
X110480644Y-64960919D01*
X110480682Y-64960934D01*
X110481863Y-64961423D01*
X110522834Y-64978394D01*
X110522836Y-64978394D01*
X110522841Y-64978396D01*
X110689180Y-65011482D01*
X110691903Y-65012204D01*
X110696806Y-65013000D01*
X110874193Y-65013000D01*
X110878314Y-65013000D01*
X110886167Y-65010617D01*
X110932182Y-65001464D01*
X110932183Y-65001464D01*
X111048153Y-64978397D01*
X111048153Y-64978396D01*
X111048158Y-64978396D01*
X111048161Y-64978394D01*
X111048166Y-64978394D01*
X111051354Y-64977073D01*
X111059335Y-64973773D01*
X111059376Y-64973751D01*
X111212040Y-64910516D01*
X111212040Y-64910515D01*
X111212047Y-64910513D01*
X111359535Y-64811964D01*
X111484964Y-64686535D01*
X111583513Y-64539047D01*
X111651394Y-64375166D01*
X111686000Y-64201191D01*
X111686000Y-64023809D01*
X111686000Y-64023806D01*
X111686000Y-64023625D01*
X111685574Y-64021669D01*
X111651396Y-63849841D01*
X111651393Y-63849832D01*
X111631492Y-63801786D01*
X111585839Y-63691568D01*
X111584195Y-63686973D01*
X111566803Y-63660944D01*
X111551571Y-63629106D01*
X111541665Y-63597469D01*
X111536000Y-63560417D01*
X111536000Y-57242215D01*
X111541022Y-57207282D01*
X111544933Y-57193963D01*
X111582706Y-57135186D01*
X111646258Y-57106161D01*
X111657164Y-57104593D01*
X111698996Y-57105713D01*
X111794181Y-57124647D01*
X111861304Y-57138000D01*
X112038693Y-57138000D01*
X112042814Y-57138000D01*
X112050667Y-57135617D01*
X112096682Y-57126464D01*
X112096683Y-57126464D01*
X112212653Y-57103397D01*
X112212653Y-57103396D01*
X112212658Y-57103396D01*
X112212661Y-57103394D01*
X112212666Y-57103394D01*
X112215854Y-57102073D01*
X112223835Y-57098773D01*
X112223876Y-57098751D01*
X112376540Y-57035516D01*
X112376540Y-57035515D01*
X112376547Y-57035513D01*
X112524035Y-56936964D01*
X112649464Y-56811535D01*
X112748013Y-56664047D01*
X112815894Y-56500166D01*
X112850500Y-56326191D01*
X112850500Y-56148809D01*
X112850500Y-56148806D01*
X112850500Y-56148625D01*
X112850074Y-56146669D01*
X112815896Y-55974841D01*
X112815893Y-55974832D01*
X112748016Y-55810959D01*
X112748009Y-55810946D01*
X112649464Y-55663465D01*
X112649461Y-55663461D01*
X112649456Y-55663455D01*
X112524043Y-55538042D01*
X112524036Y-55538036D01*
X112524031Y-55538033D01*
X112376559Y-55439494D01*
X112376558Y-55439493D01*
X112376553Y-55439490D01*
X112376540Y-55439483D01*
X112376526Y-55439477D01*
X112212676Y-55371609D01*
X112212653Y-55371601D01*
X112212646Y-55371599D01*
X112038698Y-55337000D01*
X112038694Y-55337000D01*
X112038691Y-55337000D01*
X111885150Y-55337000D01*
X111885145Y-55336999D01*
X111885143Y-55337000D01*
X111850209Y-55331975D01*
X111835210Y-55327570D01*
X111776441Y-55289801D01*
X111771629Y-55284248D01*
X111743722Y-55227235D01*
X111715896Y-55087341D01*
X111715893Y-55087332D01*
X111715888Y-55087321D01*
X111648021Y-54923472D01*
X111648018Y-54923465D01*
X111648016Y-54923459D01*
X111648009Y-54923446D01*
X111549464Y-54775965D01*
X111549461Y-54775961D01*
X111549456Y-54775955D01*
X111424043Y-54650542D01*
X111424037Y-54650537D01*
X111424036Y-54650536D01*
X111276559Y-54551994D01*
X111276558Y-54551993D01*
X111276553Y-54551990D01*
X111276540Y-54551983D01*
X111276526Y-54551977D01*
X111112676Y-54484109D01*
X111112653Y-54484101D01*
X111112646Y-54484099D01*
X110938698Y-54449500D01*
X110938694Y-54449500D01*
X110938691Y-54449500D01*
X110761309Y-54449500D01*
X110761306Y-54449500D01*
X110761301Y-54449500D01*
X110587352Y-54484100D01*
X110587345Y-54484101D01*
X110587322Y-54484109D01*
X110423472Y-54551977D01*
X110423454Y-54551985D01*
X110423439Y-54551994D01*
X110275962Y-54650536D01*
X110275961Y-54650537D01*
X110275955Y-54650542D01*
X110150542Y-54775955D01*
X110150537Y-54775961D01*
X110150536Y-54775962D01*
X110051994Y-54923439D01*
X110051984Y-54923456D01*
X110051979Y-54923465D01*
X109984109Y-55087321D01*
X109984103Y-55087339D01*
X109984102Y-55087343D01*
X109978236Y-55116834D01*
X109978236Y-55116836D01*
X109966493Y-55150119D01*
X109951129Y-55179489D01*
X109928936Y-55209693D01*
X108061175Y-57077453D01*
X108061172Y-57077456D01*
X107991492Y-57181740D01*
X107991427Y-57181841D01*
X107979037Y-57200383D01*
X107922471Y-57336948D01*
X107922465Y-57336963D01*
X107922462Y-57336974D01*
X107893624Y-57481952D01*
X107893624Y-60889742D01*
X107893623Y-60889744D01*
X107893624Y-60889745D01*
X107888600Y-60924680D01*
X107879260Y-60956486D01*
X107863387Y-60990438D01*
X107846110Y-61016295D01*
X107845409Y-61017725D01*
X107844426Y-61020359D01*
X107778233Y-61180165D01*
X107778225Y-61180188D01*
X107778223Y-61180195D01*
X107743624Y-61354142D01*
X101500500Y-61354142D01*
X101500500Y-50024142D01*
X101500579Y-50019718D01*
X101500737Y-50015292D01*
X101500737Y-50015291D01*
X101500974Y-50010871D01*
X101514816Y-49817327D01*
X101515760Y-49808556D01*
X101517018Y-49799802D01*
X101518587Y-49791111D01*
X101558415Y-49608021D01*
X101560602Y-49599456D01*
X101563089Y-49590986D01*
X101565884Y-49582588D01*
X101631359Y-49407042D01*
X101631371Y-49407008D01*
X101634749Y-49398857D01*
X101638419Y-49390822D01*
X101642373Y-49382923D01*
X101732175Y-49218461D01*
X101736677Y-49210874D01*
X101741469Y-49203418D01*
X101746510Y-49196160D01*
X101858797Y-49046162D01*
X101864338Y-49039287D01*
X101870122Y-49032612D01*
X101876139Y-49026148D01*
X102008648Y-48893639D01*
X102015112Y-48887622D01*
X102021787Y-48881838D01*
X102028662Y-48876297D01*
X102178669Y-48764003D01*
X102185918Y-48758969D01*
X102193374Y-48754177D01*
X102200961Y-48749675D01*
X102365433Y-48659867D01*
X102373332Y-48655914D01*
X102381360Y-48652247D01*
X102389508Y-48648871D01*
X102565096Y-48583381D01*
X102573486Y-48580589D01*
X102581956Y-48578102D01*
X102590521Y-48575915D01*
X102773625Y-48536084D01*
X102782292Y-48534519D01*
X102791077Y-48533256D01*
X102799840Y-48532315D01*
X102993375Y-48518473D01*
X102997792Y-48518237D01*
X102998530Y-48518210D01*
X103002219Y-48518079D01*
X103006643Y-48518000D01*
X128993357Y-48518000D01*
X128997782Y-48518079D01*
G37*
%TD.AperFunction*%
%TA.AperFunction,Conductor*%
G36*
X128159186Y-98950824D02*
G01*
X128166177Y-98954016D01*
X128202341Y-98979127D01*
X128418974Y-99195759D01*
X128850574Y-99627359D01*
X128871723Y-99655610D01*
X128884331Y-99678699D01*
X128899500Y-99738128D01*
X128899500Y-103541594D01*
X128894475Y-103576535D01*
X128890307Y-103590727D01*
X128852530Y-103649503D01*
X128791722Y-103678098D01*
X128779551Y-103680127D01*
X128747010Y-103681218D01*
X128740478Y-103680574D01*
X128740475Y-103680575D01*
X128303552Y-104117499D01*
X128740473Y-104554421D01*
X128740473Y-104554420D01*
X128740475Y-104554422D01*
X128745617Y-104553916D01*
X128771091Y-104554039D01*
X128776001Y-104554570D01*
X128778194Y-104554986D01*
X128778903Y-104554884D01*
X128785531Y-104555601D01*
X128789873Y-104557402D01*
X128809836Y-104560733D01*
X128810718Y-104561014D01*
X128830085Y-104574090D01*
X128838876Y-104577738D01*
X128842330Y-104578752D01*
X128842897Y-104579407D01*
X128850064Y-104582381D01*
X128856839Y-104592153D01*
X128868593Y-104600089D01*
X128869651Y-104601367D01*
X128887490Y-104630176D01*
X128888658Y-104632810D01*
X128898039Y-104665413D01*
X128898236Y-104666782D01*
X128899500Y-104684444D01*
X128899500Y-104841594D01*
X128894475Y-104876535D01*
X128890307Y-104890727D01*
X128852530Y-104949503D01*
X128791722Y-104978098D01*
X128779551Y-104980127D01*
X128747010Y-104981218D01*
X128740478Y-104980574D01*
X128740475Y-104980575D01*
X128335901Y-105385150D01*
X128335901Y-105385151D01*
X128303554Y-105417499D01*
X128303554Y-105417501D01*
X128335901Y-105449848D01*
X128740473Y-105854421D01*
X128740473Y-105854420D01*
X128740475Y-105854422D01*
X128745617Y-105853916D01*
X128771091Y-105854039D01*
X128776001Y-105854570D01*
X128778194Y-105854986D01*
X128778903Y-105854884D01*
X128785531Y-105855601D01*
X128789873Y-105857402D01*
X128809836Y-105860733D01*
X128810718Y-105861014D01*
X128830085Y-105874090D01*
X128838876Y-105877738D01*
X128842330Y-105878752D01*
X128842897Y-105879407D01*
X128850064Y-105882381D01*
X128856839Y-105892153D01*
X128868593Y-105900089D01*
X128869651Y-105901367D01*
X128887490Y-105930176D01*
X128888658Y-105932810D01*
X128898039Y-105965413D01*
X128898236Y-105966782D01*
X128899500Y-105984444D01*
X128899500Y-106141594D01*
X128894475Y-106176535D01*
X128890307Y-106190727D01*
X128852530Y-106249503D01*
X128791722Y-106278098D01*
X128779551Y-106280127D01*
X128747010Y-106281218D01*
X128740478Y-106280574D01*
X128740475Y-106280575D01*
X128335901Y-106685150D01*
X128335901Y-106685151D01*
X128303554Y-106717499D01*
X128303554Y-106717501D01*
X128335901Y-106749848D01*
X128740472Y-107154420D01*
X128740472Y-107154419D01*
X128740475Y-107154422D01*
X128745614Y-107153916D01*
X128780856Y-107155491D01*
X128795399Y-107158250D01*
X128857593Y-107190082D01*
X128892015Y-107247804D01*
X128895227Y-107259720D01*
X128899500Y-107291993D01*
X128899500Y-109567291D01*
X128894476Y-109602230D01*
X128888564Y-109622362D01*
X128881250Y-109634814D01*
X128878948Y-109645874D01*
X128858050Y-109674316D01*
X128853343Y-109679108D01*
X128833778Y-109695313D01*
X128825967Y-109700532D01*
X128700538Y-109825960D01*
X128628877Y-109933208D01*
X128628874Y-109933210D01*
X128628874Y-109933212D01*
X128610119Y-109954090D01*
X128605288Y-109959468D01*
X128594640Y-109968366D01*
X128530575Y-109996249D01*
X128461609Y-109985071D01*
X128461607Y-109985070D01*
X128461605Y-109985070D01*
X128461602Y-109985068D01*
X128451675Y-109980318D01*
X128417512Y-109956143D01*
X127545929Y-109084560D01*
X127545921Y-109084552D01*
X127545914Y-109084546D01*
X127472230Y-109035313D01*
X127422993Y-109002414D01*
X127286432Y-108945848D01*
X127286421Y-108945845D01*
X127286417Y-108945843D01*
X127286407Y-108945840D01*
X127286404Y-108945839D01*
X127286400Y-108945838D01*
X127141422Y-108917000D01*
X127141420Y-108917000D01*
X127141418Y-108917000D01*
X120453100Y-108917000D01*
X120453097Y-108916999D01*
X120453097Y-108917000D01*
X120418162Y-108911976D01*
X120386356Y-108902636D01*
X120352404Y-108886763D01*
X120326553Y-108869490D01*
X120326552Y-108869489D01*
X120326550Y-108869488D01*
X120326544Y-108869484D01*
X120326518Y-108869470D01*
X120325866Y-108869205D01*
X120162671Y-108801607D01*
X120162653Y-108801601D01*
X120162646Y-108801599D01*
X119988698Y-108767000D01*
X119988694Y-108767000D01*
X119988691Y-108767000D01*
X119811309Y-108767000D01*
X119811306Y-108767000D01*
X119811301Y-108767000D01*
X119637352Y-108801600D01*
X119637345Y-108801601D01*
X119637322Y-108801609D01*
X119473472Y-108869477D01*
X119473454Y-108869485D01*
X119473439Y-108869494D01*
X119325962Y-108968036D01*
X119325961Y-108968037D01*
X119325955Y-108968042D01*
X119200542Y-109093455D01*
X119200537Y-109093461D01*
X119200536Y-109093462D01*
X119101994Y-109240939D01*
X119101985Y-109240954D01*
X119101977Y-109240972D01*
X119034109Y-109404822D01*
X119034101Y-109404845D01*
X119034099Y-109404852D01*
X118999500Y-109578799D01*
X118999500Y-109756199D01*
X119034099Y-109930146D01*
X119034101Y-109930153D01*
X119034109Y-109930176D01*
X119101977Y-110094026D01*
X119101985Y-110094044D01*
X119101994Y-110094059D01*
X119200536Y-110241536D01*
X119200537Y-110241537D01*
X119200542Y-110241543D01*
X119325955Y-110366956D01*
X119325961Y-110366961D01*
X119325965Y-110366964D01*
X119473446Y-110465509D01*
X119473459Y-110465516D01*
X119479063Y-110467837D01*
X119528764Y-110488424D01*
X119528816Y-110488445D01*
X119529410Y-110488691D01*
X119637334Y-110533394D01*
X119637336Y-110533394D01*
X119637341Y-110533396D01*
X119803680Y-110566482D01*
X119806403Y-110567204D01*
X119811306Y-110568000D01*
X119988693Y-110568000D01*
X119992816Y-110568000D01*
X120000671Y-110565617D01*
X120032696Y-110559246D01*
X120053629Y-110555083D01*
X120162658Y-110533396D01*
X120162660Y-110533395D01*
X120162662Y-110533394D01*
X120162666Y-110533394D01*
X120270590Y-110488691D01*
X120320938Y-110467837D01*
X120325526Y-110466194D01*
X120326544Y-110465513D01*
X120326547Y-110465513D01*
X120326548Y-110465511D01*
X120326551Y-110465510D01*
X120326552Y-110465510D01*
X120327466Y-110464899D01*
X120327467Y-110464899D01*
X120343300Y-110454319D01*
X120351554Y-110448803D01*
X120383389Y-110433571D01*
X120405601Y-110426617D01*
X120415029Y-110423665D01*
X120452080Y-110418000D01*
X126687440Y-110418000D01*
X126722372Y-110423021D01*
X126747616Y-110430434D01*
X126800362Y-110461730D01*
X129250573Y-112911941D01*
X129271723Y-112940193D01*
X129284331Y-112963282D01*
X129299500Y-113022711D01*
X129299500Y-126041066D01*
X129295948Y-126055181D01*
X129296843Y-126066598D01*
X129294476Y-126076004D01*
X129291289Y-126086857D01*
X129285847Y-126095323D01*
X129284734Y-126099750D01*
X129279424Y-126109634D01*
X129271465Y-126117701D01*
X129253514Y-126145634D01*
X129236040Y-126153612D01*
X129230357Y-126159375D01*
X129216706Y-126162441D01*
X129189957Y-126174657D01*
X129173111Y-126172236D01*
X129162187Y-126174691D01*
X129144023Y-126168057D01*
X129120825Y-126164724D01*
X129118700Y-126163753D01*
X129108515Y-126155088D01*
X129096557Y-126150721D01*
X129084103Y-126134318D01*
X129067089Y-126119843D01*
X129065658Y-126117701D01*
X129049461Y-126093461D01*
X129049457Y-126093457D01*
X129049455Y-126093454D01*
X128924043Y-125968042D01*
X128924037Y-125968037D01*
X128924036Y-125968036D01*
X128776559Y-125869494D01*
X128776558Y-125869493D01*
X128776553Y-125869490D01*
X128776540Y-125869483D01*
X128776526Y-125869477D01*
X128612671Y-125801607D01*
X128612667Y-125801606D01*
X128612659Y-125801604D01*
X128587611Y-125796621D01*
X128529863Y-125785134D01*
X128506601Y-125778077D01*
X128484471Y-125768910D01*
X128463044Y-125757458D01*
X128455496Y-125752415D01*
X128318932Y-125695848D01*
X128318921Y-125695845D01*
X128318917Y-125695843D01*
X128318907Y-125695840D01*
X128318904Y-125695839D01*
X128318900Y-125695838D01*
X128173922Y-125667000D01*
X128173920Y-125667000D01*
X128173918Y-125667000D01*
X127980059Y-125667000D01*
X127980058Y-125666999D01*
X127980058Y-125667000D01*
X127945123Y-125661977D01*
X127919881Y-125654565D01*
X127867137Y-125623270D01*
X127699422Y-125455554D01*
X127678274Y-125427302D01*
X127665667Y-125404213D01*
X127650500Y-125344788D01*
X127650500Y-116143576D01*
X127621717Y-115998883D01*
X127621419Y-115997385D01*
X127619338Y-115992987D01*
X127565087Y-115862011D01*
X127565080Y-115861998D01*
X127482951Y-115739084D01*
X127482948Y-115739080D01*
X127482943Y-115739074D01*
X127378424Y-115634555D01*
X127378418Y-115634550D01*
X127378417Y-115634549D01*
X127255507Y-115552423D01*
X127255506Y-115552422D01*
X127255501Y-115552419D01*
X127255488Y-115552412D01*
X127255481Y-115552408D01*
X127122833Y-115497465D01*
X127118917Y-115495843D01*
X127118907Y-115495840D01*
X127118905Y-115495839D01*
X127118900Y-115495838D01*
X126973922Y-115467000D01*
X126973920Y-115467000D01*
X126973918Y-115467000D01*
X118873918Y-115467000D01*
X118726082Y-115467000D01*
X118726080Y-115467000D01*
X118726077Y-115467000D01*
X118581097Y-115495838D01*
X118575615Y-115497465D01*
X118575531Y-115497184D01*
X118548555Y-115503892D01*
X118532970Y-115505567D01*
X118464211Y-115493159D01*
X118452032Y-115487062D01*
X118419861Y-115463862D01*
X118374031Y-115418032D01*
X118226559Y-115319494D01*
X118226558Y-115319493D01*
X118226553Y-115319490D01*
X118226540Y-115319483D01*
X118226526Y-115319477D01*
X118062676Y-115251609D01*
X118062653Y-115251601D01*
X118062646Y-115251599D01*
X117888698Y-115217000D01*
X117888694Y-115217000D01*
X117888691Y-115217000D01*
X117711309Y-115217000D01*
X117711306Y-115217000D01*
X117711301Y-115217000D01*
X117537352Y-115251600D01*
X117537345Y-115251601D01*
X117537322Y-115251609D01*
X117373472Y-115319477D01*
X117373454Y-115319485D01*
X117373439Y-115319494D01*
X117225964Y-115418034D01*
X117225962Y-115418036D01*
X117208525Y-115435475D01*
X117208522Y-115435479D01*
X117175925Y-115468075D01*
X117147677Y-115489221D01*
X117124590Y-115501829D01*
X117065158Y-115517000D01*
X115942191Y-115517000D01*
X115907253Y-115511976D01*
X115894933Y-115508358D01*
X115894925Y-115508356D01*
X115893368Y-115508017D01*
X115891434Y-115507596D01*
X115830111Y-115474112D01*
X115804081Y-115448082D01*
X115804076Y-115448077D01*
X115782929Y-115419826D01*
X115773912Y-115403312D01*
X115758780Y-115340935D01*
X115759028Y-115330521D01*
X115763217Y-115301385D01*
X115800501Y-115162243D01*
X115800501Y-115004128D01*
X115800501Y-114996533D01*
X115800501Y-114994849D01*
X115800500Y-114994775D01*
X115800500Y-112545583D01*
X115805522Y-112510650D01*
X115812934Y-112485405D01*
X115844228Y-112432663D01*
X116238760Y-112038132D01*
X116830520Y-111446373D01*
X116909577Y-111309441D01*
X116925310Y-111250720D01*
X116937693Y-111220824D01*
X116953467Y-111193502D01*
X116973166Y-111167830D01*
X117049464Y-111091535D01*
X117148013Y-110944047D01*
X117215894Y-110780166D01*
X117224574Y-110736532D01*
X117242372Y-110647051D01*
X117250500Y-110606191D01*
X117250500Y-110428809D01*
X117250500Y-110428806D01*
X117250500Y-110428625D01*
X117250074Y-110426669D01*
X117215896Y-110254841D01*
X117215893Y-110254832D01*
X117148016Y-110090959D01*
X117148009Y-110090946D01*
X117049464Y-109943465D01*
X117049461Y-109943461D01*
X117049457Y-109943456D01*
X117028625Y-109922625D01*
X117028622Y-109922622D01*
X117028616Y-109922616D01*
X117007470Y-109894365D01*
X116999979Y-109880645D01*
X116985129Y-109812380D01*
X116985129Y-109812379D01*
X116985761Y-109803537D01*
X117002056Y-109750383D01*
X117030836Y-109700536D01*
X117059577Y-109650755D01*
X117100500Y-109498028D01*
X117100500Y-107507976D01*
X119513075Y-107507976D01*
X119513075Y-107507977D01*
X119523684Y-107515067D01*
X119523687Y-107515068D01*
X119523726Y-107515089D01*
X119524366Y-107515350D01*
X119650120Y-107567438D01*
X119687479Y-107582913D01*
X119687487Y-107582915D01*
X119687511Y-107582919D01*
X119687512Y-107582920D01*
X119846160Y-107614477D01*
X119861353Y-107617499D01*
X119861357Y-107617500D01*
X120038643Y-107617500D01*
X120038646Y-107617499D01*
X120212512Y-107582915D01*
X120212524Y-107582912D01*
X120315801Y-107540133D01*
X120376302Y-107515074D01*
X120376303Y-107515073D01*
X120376306Y-107515072D01*
X120386923Y-107507976D01*
X120843075Y-107507976D01*
X120843075Y-107507977D01*
X120853684Y-107515067D01*
X120853687Y-107515068D01*
X120853726Y-107515089D01*
X120854366Y-107515350D01*
X120980120Y-107567438D01*
X121017479Y-107582913D01*
X121017487Y-107582915D01*
X121017511Y-107582919D01*
X121017512Y-107582920D01*
X121176160Y-107614477D01*
X121191353Y-107617499D01*
X121191357Y-107617500D01*
X121368643Y-107617500D01*
X121368646Y-107617499D01*
X121542512Y-107582915D01*
X121542524Y-107582912D01*
X121645801Y-107540133D01*
X121706302Y-107515074D01*
X121706303Y-107515073D01*
X121706306Y-107515072D01*
X121716923Y-107507976D01*
X122623075Y-107507976D01*
X122623075Y-107507977D01*
X122633684Y-107515067D01*
X122633687Y-107515068D01*
X122633726Y-107515089D01*
X122634366Y-107515350D01*
X122760120Y-107567438D01*
X122797479Y-107582913D01*
X122797487Y-107582915D01*
X122797511Y-107582919D01*
X122797512Y-107582920D01*
X122956160Y-107614477D01*
X122971353Y-107617499D01*
X122971357Y-107617500D01*
X123148643Y-107617500D01*
X123148646Y-107617499D01*
X123322512Y-107582915D01*
X123322524Y-107582912D01*
X123425801Y-107540133D01*
X123486302Y-107515074D01*
X123486303Y-107515073D01*
X123486306Y-107515072D01*
X123496923Y-107507976D01*
X124403075Y-107507976D01*
X124403075Y-107507977D01*
X124413684Y-107515067D01*
X124413687Y-107515068D01*
X124413726Y-107515089D01*
X124414366Y-107515350D01*
X124540120Y-107567438D01*
X124577479Y-107582913D01*
X124577487Y-107582915D01*
X124577511Y-107582919D01*
X124577512Y-107582920D01*
X124736160Y-107614477D01*
X124751353Y-107617499D01*
X124751357Y-107617500D01*
X124928643Y-107617500D01*
X124928646Y-107617499D01*
X125102512Y-107582915D01*
X125102524Y-107582912D01*
X125205801Y-107540133D01*
X125266302Y-107515074D01*
X125266303Y-107515073D01*
X125266306Y-107515072D01*
X125276923Y-107507976D01*
X126183075Y-107507976D01*
X126183075Y-107507977D01*
X126193684Y-107515067D01*
X126193687Y-107515068D01*
X126193726Y-107515089D01*
X126194366Y-107515350D01*
X126320120Y-107567438D01*
X126357479Y-107582913D01*
X126357487Y-107582915D01*
X126357511Y-107582919D01*
X126357512Y-107582920D01*
X126516160Y-107614477D01*
X126531353Y-107617499D01*
X126531357Y-107617500D01*
X126708643Y-107617500D01*
X126708646Y-107617499D01*
X126882512Y-107582915D01*
X126882524Y-107582912D01*
X126985801Y-107540133D01*
X127046302Y-107515074D01*
X127046303Y-107515073D01*
X127046306Y-107515072D01*
X127056923Y-107507976D01*
X127513075Y-107507976D01*
X127513075Y-107507977D01*
X127523684Y-107515067D01*
X127523687Y-107515068D01*
X127523726Y-107515089D01*
X127524366Y-107515350D01*
X127650120Y-107567438D01*
X127687479Y-107582913D01*
X127687487Y-107582915D01*
X127687511Y-107582919D01*
X127687512Y-107582920D01*
X127846160Y-107614477D01*
X127861353Y-107617499D01*
X127861357Y-107617500D01*
X128038643Y-107617500D01*
X128038646Y-107617499D01*
X128212512Y-107582915D01*
X128212524Y-107582912D01*
X128325632Y-107536061D01*
X128370650Y-107517415D01*
X128384123Y-107514734D01*
X128386923Y-107507975D01*
X127982348Y-107103401D01*
X127950001Y-107071054D01*
X127950000Y-107071054D01*
X127513075Y-107507976D01*
X127056923Y-107507976D01*
X127056922Y-107507975D01*
X127056922Y-107507974D01*
X126652348Y-107103401D01*
X126620001Y-107071054D01*
X126620000Y-107071054D01*
X126183075Y-107507976D01*
X125276923Y-107507976D01*
X125276922Y-107507975D01*
X125276922Y-107507974D01*
X124872348Y-107103401D01*
X124840001Y-107071054D01*
X124840000Y-107071054D01*
X124403075Y-107507976D01*
X123496923Y-107507976D01*
X123496922Y-107507975D01*
X123496922Y-107507974D01*
X123092348Y-107103401D01*
X123060001Y-107071054D01*
X123060000Y-107071054D01*
X122623075Y-107507976D01*
X121716923Y-107507976D01*
X121716922Y-107507975D01*
X121716922Y-107507974D01*
X121312348Y-107103401D01*
X121280001Y-107071054D01*
X121280000Y-107071054D01*
X120843075Y-107507976D01*
X120386923Y-107507976D01*
X120386922Y-107507975D01*
X120386922Y-107507974D01*
X119982348Y-107103401D01*
X119950001Y-107071054D01*
X119950000Y-107071054D01*
X119513075Y-107507976D01*
X117100500Y-107507976D01*
X117100500Y-107292329D01*
X117105523Y-107257393D01*
X117109927Y-107242395D01*
X117147672Y-107183644D01*
X117147700Y-107183619D01*
X117147699Y-107183619D01*
X117149041Y-107182456D01*
X117203920Y-107154977D01*
X117211479Y-107153333D01*
X117237832Y-107150500D01*
X117342813Y-107150500D01*
X117350662Y-107148118D01*
X117421124Y-107134103D01*
X117512658Y-107115896D01*
X117512661Y-107115894D01*
X117512666Y-107115894D01*
X117515854Y-107114573D01*
X117523835Y-107111273D01*
X117523876Y-107111251D01*
X117676540Y-107048016D01*
X117676540Y-107048015D01*
X117676547Y-107048013D01*
X117824035Y-106949464D01*
X117949464Y-106824035D01*
X118048013Y-106676547D01*
X118048016Y-106676540D01*
X118066245Y-106632530D01*
X118067770Y-106628849D01*
X119050000Y-106628849D01*
X119050000Y-106806149D01*
X119084578Y-106979986D01*
X119084586Y-106980021D01*
X119152429Y-107143809D01*
X119152431Y-107143814D01*
X119159521Y-107154423D01*
X119159521Y-107154422D01*
X119159522Y-107154423D01*
X119596446Y-106717500D01*
X119566609Y-106687663D01*
X119800000Y-106687663D01*
X119800000Y-106747337D01*
X119822836Y-106802468D01*
X119865032Y-106844664D01*
X119920163Y-106867500D01*
X119979837Y-106867500D01*
X120034968Y-106844664D01*
X120077164Y-106802468D01*
X120100000Y-106747337D01*
X120100000Y-106717500D01*
X120303554Y-106717500D01*
X120615000Y-107028946D01*
X120926446Y-106717500D01*
X120896609Y-106687663D01*
X121130000Y-106687663D01*
X121130000Y-106747337D01*
X121152836Y-106802468D01*
X121195032Y-106844664D01*
X121250163Y-106867500D01*
X121309837Y-106867500D01*
X121364968Y-106844664D01*
X121407164Y-106802468D01*
X121430000Y-106747337D01*
X121430000Y-106717499D01*
X121633554Y-106717499D01*
X121633554Y-106717500D01*
X122070476Y-107154423D01*
X122073678Y-107154107D01*
X122091234Y-107139437D01*
X122107581Y-107132324D01*
X122121263Y-107120892D01*
X122138950Y-107118672D01*
X122155298Y-107111558D01*
X122172899Y-107114411D01*
X122190589Y-107112192D01*
X122224264Y-107122740D01*
X122224267Y-107122741D01*
X122224269Y-107122742D01*
X122229587Y-107125287D01*
X122266109Y-107153142D01*
X122268361Y-107154308D01*
X122269522Y-107154423D01*
X122269523Y-107154423D01*
X122674098Y-106749848D01*
X122674098Y-106749847D01*
X122706446Y-106717500D01*
X122676609Y-106687663D01*
X122910000Y-106687663D01*
X122910000Y-106747337D01*
X122932836Y-106802468D01*
X122975032Y-106844664D01*
X123030163Y-106867500D01*
X123089837Y-106867500D01*
X123144968Y-106844664D01*
X123187164Y-106802468D01*
X123210000Y-106747337D01*
X123210000Y-106717499D01*
X123413554Y-106717499D01*
X123413554Y-106717501D01*
X123850476Y-107154423D01*
X123853678Y-107154107D01*
X123871234Y-107139437D01*
X123887581Y-107132324D01*
X123901263Y-107120892D01*
X123918950Y-107118672D01*
X123935298Y-107111558D01*
X123952899Y-107114411D01*
X123970589Y-107112192D01*
X124004264Y-107122740D01*
X124004267Y-107122741D01*
X124004269Y-107122742D01*
X124009587Y-107125287D01*
X124046109Y-107153142D01*
X124048361Y-107154308D01*
X124049522Y-107154423D01*
X124049523Y-107154423D01*
X124454098Y-106749848D01*
X124454098Y-106749847D01*
X124486446Y-106717500D01*
X124456609Y-106687663D01*
X124690000Y-106687663D01*
X124690000Y-106747337D01*
X124712836Y-106802468D01*
X124755032Y-106844664D01*
X124810163Y-106867500D01*
X124869837Y-106867500D01*
X124924968Y-106844664D01*
X124967164Y-106802468D01*
X124990000Y-106747337D01*
X124990000Y-106717499D01*
X125193554Y-106717499D01*
X125193554Y-106717501D01*
X125630476Y-107154423D01*
X125633678Y-107154107D01*
X125651234Y-107139437D01*
X125667581Y-107132324D01*
X125681263Y-107120892D01*
X125698950Y-107118672D01*
X125715298Y-107111558D01*
X125732899Y-107114411D01*
X125750589Y-107112192D01*
X125784264Y-107122740D01*
X125784267Y-107122741D01*
X125784269Y-107122742D01*
X125789587Y-107125287D01*
X125826109Y-107153142D01*
X125828361Y-107154308D01*
X125829522Y-107154423D01*
X125829523Y-107154423D01*
X126234098Y-106749848D01*
X126234098Y-106749847D01*
X126266446Y-106717500D01*
X126236609Y-106687663D01*
X126470000Y-106687663D01*
X126470000Y-106747337D01*
X126492836Y-106802468D01*
X126535032Y-106844664D01*
X126590163Y-106867500D01*
X126649837Y-106867500D01*
X126704968Y-106844664D01*
X126747164Y-106802468D01*
X126770000Y-106747337D01*
X126770000Y-106717500D01*
X126973554Y-106717500D01*
X127285000Y-107028946D01*
X127596446Y-106717500D01*
X127566609Y-106687663D01*
X127800000Y-106687663D01*
X127800000Y-106747337D01*
X127822836Y-106802468D01*
X127865032Y-106844664D01*
X127920163Y-106867500D01*
X127979837Y-106867500D01*
X128034968Y-106844664D01*
X128077164Y-106802468D01*
X128100000Y-106747337D01*
X128100000Y-106687663D01*
X128077164Y-106632532D01*
X128034968Y-106590336D01*
X127979837Y-106567500D01*
X127920163Y-106567500D01*
X127865032Y-106590336D01*
X127865030Y-106590337D01*
X127822837Y-106632530D01*
X127822836Y-106632531D01*
X127822836Y-106632532D01*
X127800000Y-106687663D01*
X127566609Y-106687663D01*
X127285000Y-106406054D01*
X127005901Y-106685152D01*
X127005901Y-106685153D01*
X126973554Y-106717500D01*
X126770000Y-106717500D01*
X126770000Y-106687663D01*
X126747164Y-106632532D01*
X126704968Y-106590336D01*
X126649837Y-106567500D01*
X126590163Y-106567500D01*
X126535032Y-106590336D01*
X126535030Y-106590337D01*
X126492837Y-106632530D01*
X126492836Y-106632531D01*
X126492836Y-106632532D01*
X126470000Y-106687663D01*
X126236609Y-106687663D01*
X125829522Y-106280576D01*
X125829521Y-106280576D01*
X125826310Y-106280891D01*
X125826310Y-106280892D01*
X125808771Y-106295550D01*
X125792419Y-106302667D01*
X125778735Y-106314102D01*
X125761048Y-106316322D01*
X125744707Y-106323435D01*
X125727105Y-106320582D01*
X125709409Y-106322804D01*
X125675744Y-106312260D01*
X125675737Y-106312259D01*
X125675728Y-106312255D01*
X125670416Y-106309713D01*
X125633886Y-106281852D01*
X125631635Y-106280688D01*
X125630475Y-106280574D01*
X125225901Y-106685150D01*
X125225901Y-106685151D01*
X125193554Y-106717499D01*
X124990000Y-106717499D01*
X124990000Y-106687663D01*
X124967164Y-106632532D01*
X124924968Y-106590336D01*
X124869837Y-106567500D01*
X124810163Y-106567500D01*
X124755032Y-106590336D01*
X124755030Y-106590337D01*
X124712837Y-106632530D01*
X124712836Y-106632531D01*
X124712836Y-106632532D01*
X124690000Y-106687663D01*
X124456609Y-106687663D01*
X124049522Y-106280576D01*
X124049521Y-106280576D01*
X124046310Y-106280891D01*
X124046310Y-106280892D01*
X124028771Y-106295550D01*
X124012419Y-106302667D01*
X123998735Y-106314102D01*
X123981048Y-106316322D01*
X123964707Y-106323435D01*
X123947105Y-106320582D01*
X123929409Y-106322804D01*
X123895744Y-106312260D01*
X123895737Y-106312259D01*
X123895728Y-106312255D01*
X123890416Y-106309713D01*
X123853886Y-106281852D01*
X123851635Y-106280688D01*
X123850475Y-106280574D01*
X123445901Y-106685150D01*
X123445901Y-106685151D01*
X123413554Y-106717499D01*
X123210000Y-106717499D01*
X123210000Y-106687663D01*
X123187164Y-106632532D01*
X123144968Y-106590336D01*
X123089837Y-106567500D01*
X123030163Y-106567500D01*
X122975032Y-106590336D01*
X122975030Y-106590337D01*
X122932837Y-106632530D01*
X122932836Y-106632531D01*
X122932836Y-106632532D01*
X122910000Y-106687663D01*
X122676609Y-106687663D01*
X122269522Y-106280576D01*
X122269521Y-106280576D01*
X122266310Y-106280891D01*
X122266310Y-106280892D01*
X122248771Y-106295550D01*
X122232419Y-106302667D01*
X122218735Y-106314102D01*
X122201048Y-106316322D01*
X122184707Y-106323435D01*
X122167105Y-106320582D01*
X122149409Y-106322804D01*
X122115744Y-106312260D01*
X122115737Y-106312259D01*
X122115728Y-106312255D01*
X122110416Y-106309713D01*
X122073886Y-106281852D01*
X122071635Y-106280688D01*
X122070475Y-106280574D01*
X121665901Y-106685150D01*
X121665901Y-106685151D01*
X121633554Y-106717499D01*
X121430000Y-106717499D01*
X121430000Y-106687663D01*
X121407164Y-106632532D01*
X121364968Y-106590336D01*
X121309837Y-106567500D01*
X121250163Y-106567500D01*
X121195032Y-106590336D01*
X121195030Y-106590337D01*
X121152837Y-106632530D01*
X121152836Y-106632531D01*
X121152836Y-106632532D01*
X121130000Y-106687663D01*
X120896609Y-106687663D01*
X120615000Y-106406054D01*
X120335901Y-106685152D01*
X120335901Y-106685153D01*
X120303554Y-106717500D01*
X120100000Y-106717500D01*
X120100000Y-106687663D01*
X120077164Y-106632532D01*
X120034968Y-106590336D01*
X119979837Y-106567500D01*
X119920163Y-106567500D01*
X119865032Y-106590336D01*
X119865030Y-106590337D01*
X119822837Y-106632530D01*
X119822836Y-106632531D01*
X119822836Y-106632532D01*
X119800000Y-106687663D01*
X119566609Y-106687663D01*
X119159522Y-106280576D01*
X119159521Y-106280576D01*
X119152433Y-106291184D01*
X119152430Y-106291189D01*
X119152429Y-106291191D01*
X119140255Y-106320582D01*
X119084586Y-106454979D01*
X119084578Y-106455012D01*
X119050000Y-106628849D01*
X118067770Y-106628849D01*
X118094616Y-106564038D01*
X118094617Y-106564031D01*
X118115892Y-106512670D01*
X118115894Y-106512666D01*
X118150500Y-106338691D01*
X118150500Y-106161309D01*
X118150500Y-106161306D01*
X118150500Y-106161122D01*
X118150064Y-106159117D01*
X118131840Y-106067499D01*
X119653554Y-106067499D01*
X119653554Y-106067500D01*
X119950000Y-106363946D01*
X120246446Y-106067500D01*
X120246445Y-106067499D01*
X120983554Y-106067499D01*
X120983554Y-106067500D01*
X121280000Y-106363946D01*
X121576446Y-106067500D01*
X121576445Y-106067499D01*
X122763554Y-106067499D01*
X122763554Y-106067500D01*
X123060000Y-106363946D01*
X123356446Y-106067500D01*
X123356445Y-106067499D01*
X124543554Y-106067499D01*
X124543554Y-106067500D01*
X124840000Y-106363946D01*
X125136446Y-106067500D01*
X125136445Y-106067499D01*
X126323554Y-106067499D01*
X126323554Y-106067500D01*
X126620000Y-106363946D01*
X126916446Y-106067500D01*
X126916445Y-106067499D01*
X127653554Y-106067499D01*
X127653554Y-106067500D01*
X127950000Y-106363946D01*
X128246446Y-106067500D01*
X127950000Y-105771054D01*
X127917653Y-105803401D01*
X127917652Y-105803401D01*
X127653554Y-106067499D01*
X126916445Y-106067499D01*
X126620000Y-105771054D01*
X126587653Y-105803401D01*
X126587652Y-105803401D01*
X126323554Y-106067499D01*
X125136445Y-106067499D01*
X124840000Y-105771054D01*
X124807653Y-105803401D01*
X124807652Y-105803401D01*
X124543554Y-106067499D01*
X123356445Y-106067499D01*
X123060000Y-105771054D01*
X123027653Y-105803401D01*
X123027652Y-105803401D01*
X122763554Y-106067499D01*
X121576445Y-106067499D01*
X121280000Y-105771054D01*
X121247653Y-105803401D01*
X121247652Y-105803401D01*
X120983554Y-106067499D01*
X120246445Y-106067499D01*
X119950000Y-105771054D01*
X119917653Y-105803401D01*
X119917652Y-105803401D01*
X119653554Y-106067499D01*
X118131840Y-106067499D01*
X118126436Y-106040329D01*
X118115896Y-105987341D01*
X118115893Y-105987332D01*
X118048016Y-105823459D01*
X118048009Y-105823446D01*
X117949464Y-105675965D01*
X117949461Y-105675961D01*
X117949457Y-105675956D01*
X117899426Y-105625926D01*
X117879643Y-105600113D01*
X117878961Y-105598929D01*
X117872115Y-105586391D01*
X117868542Y-105580832D01*
X117867037Y-105578217D01*
X117859525Y-105547088D01*
X117850500Y-105516348D01*
X117850500Y-105328849D01*
X119050000Y-105328849D01*
X119050000Y-105506149D01*
X119084578Y-105679986D01*
X119084586Y-105680021D01*
X119152429Y-105843809D01*
X119152431Y-105843814D01*
X119159521Y-105854423D01*
X119159521Y-105854422D01*
X119159522Y-105854423D01*
X119596446Y-105417500D01*
X119566609Y-105387663D01*
X119800000Y-105387663D01*
X119800000Y-105447337D01*
X119822836Y-105502468D01*
X119865032Y-105544664D01*
X119920163Y-105567500D01*
X119979837Y-105567500D01*
X120034968Y-105544664D01*
X120077164Y-105502468D01*
X120100000Y-105447337D01*
X120100000Y-105417500D01*
X120303554Y-105417500D01*
X120615000Y-105728946D01*
X120926446Y-105417500D01*
X120896609Y-105387663D01*
X121130000Y-105387663D01*
X121130000Y-105447337D01*
X121152836Y-105502468D01*
X121195032Y-105544664D01*
X121250163Y-105567500D01*
X121309837Y-105567500D01*
X121364968Y-105544664D01*
X121407164Y-105502468D01*
X121427342Y-105453752D01*
X121456043Y-105418137D01*
X121455189Y-105417498D01*
X121633552Y-105417498D01*
X122070476Y-105854423D01*
X122073678Y-105854107D01*
X122091234Y-105839437D01*
X122107581Y-105832324D01*
X122121263Y-105820892D01*
X122138950Y-105818672D01*
X122155298Y-105811558D01*
X122172899Y-105814411D01*
X122190589Y-105812192D01*
X122224264Y-105822740D01*
X122224267Y-105822741D01*
X122224269Y-105822742D01*
X122229587Y-105825287D01*
X122266109Y-105853142D01*
X122268361Y-105854308D01*
X122269522Y-105854423D01*
X122269523Y-105854423D01*
X122674098Y-105449848D01*
X122674098Y-105449847D01*
X122706446Y-105417500D01*
X122676609Y-105387663D01*
X122910000Y-105387663D01*
X122910000Y-105447337D01*
X122932836Y-105502468D01*
X122975032Y-105544664D01*
X123030163Y-105567500D01*
X123089837Y-105567500D01*
X123144968Y-105544664D01*
X123187164Y-105502468D01*
X123210000Y-105447337D01*
X123210000Y-105417499D01*
X123413554Y-105417499D01*
X123413554Y-105417501D01*
X123850476Y-105854423D01*
X123853678Y-105854107D01*
X123871234Y-105839437D01*
X123887581Y-105832324D01*
X123901263Y-105820892D01*
X123918950Y-105818672D01*
X123935298Y-105811558D01*
X123952899Y-105814411D01*
X123970589Y-105812192D01*
X124004264Y-105822740D01*
X124004267Y-105822741D01*
X124004269Y-105822742D01*
X124009587Y-105825287D01*
X124046109Y-105853142D01*
X124048361Y-105854308D01*
X124049522Y-105854423D01*
X124049523Y-105854423D01*
X124486446Y-105417500D01*
X124485241Y-105416295D01*
X124664411Y-105416295D01*
X124674649Y-105423403D01*
X124676211Y-105426036D01*
X124677365Y-105426900D01*
X124692658Y-105453754D01*
X124712836Y-105502468D01*
X124755032Y-105544664D01*
X124810163Y-105567500D01*
X124869837Y-105567500D01*
X124924968Y-105544664D01*
X124967164Y-105502468D01*
X124990000Y-105447337D01*
X124990000Y-105417499D01*
X125193554Y-105417499D01*
X125193554Y-105417501D01*
X125630476Y-105854423D01*
X125633678Y-105854107D01*
X125651234Y-105839437D01*
X125667581Y-105832324D01*
X125681263Y-105820892D01*
X125698950Y-105818672D01*
X125715298Y-105811558D01*
X125732899Y-105814411D01*
X125750589Y-105812192D01*
X125784264Y-105822740D01*
X125784267Y-105822741D01*
X125784269Y-105822742D01*
X125789587Y-105825287D01*
X125826109Y-105853142D01*
X125828361Y-105854308D01*
X125829522Y-105854423D01*
X125829523Y-105854423D01*
X126266446Y-105417500D01*
X126265807Y-105416861D01*
X126443955Y-105416861D01*
X126457365Y-105426900D01*
X126472658Y-105453754D01*
X126492836Y-105502468D01*
X126535032Y-105544664D01*
X126590163Y-105567500D01*
X126649837Y-105567500D01*
X126704968Y-105544664D01*
X126747164Y-105502468D01*
X126770000Y-105447337D01*
X126770000Y-105417500D01*
X126973554Y-105417500D01*
X127285000Y-105728946D01*
X127596446Y-105417500D01*
X127595240Y-105416294D01*
X127774412Y-105416294D01*
X127784649Y-105423402D01*
X127786210Y-105426033D01*
X127787365Y-105426898D01*
X127802658Y-105453754D01*
X127822836Y-105502468D01*
X127865032Y-105544664D01*
X127920163Y-105567500D01*
X127979837Y-105567500D01*
X128034968Y-105544664D01*
X128077164Y-105502468D01*
X128100000Y-105447337D01*
X128100000Y-105387663D01*
X128077164Y-105332532D01*
X128034968Y-105290336D01*
X127979837Y-105267500D01*
X127920163Y-105267500D01*
X127865032Y-105290336D01*
X127865030Y-105290337D01*
X127822837Y-105332530D01*
X127802659Y-105381244D01*
X127774412Y-105416294D01*
X127595240Y-105416294D01*
X127285000Y-105106054D01*
X127005901Y-105385152D01*
X127005901Y-105385153D01*
X126973554Y-105417500D01*
X126770000Y-105417500D01*
X126770000Y-105387663D01*
X126747164Y-105332532D01*
X126704968Y-105290336D01*
X126649837Y-105267500D01*
X126590163Y-105267500D01*
X126535032Y-105290336D01*
X126535030Y-105290337D01*
X126492837Y-105332530D01*
X126472659Y-105381244D01*
X126443955Y-105416861D01*
X126265807Y-105416861D01*
X125829522Y-104980576D01*
X125829521Y-104980576D01*
X125826310Y-104980891D01*
X125826310Y-104980892D01*
X125808771Y-104995550D01*
X125792419Y-105002667D01*
X125778735Y-105014102D01*
X125761048Y-105016322D01*
X125744707Y-105023435D01*
X125727105Y-105020582D01*
X125709409Y-105022804D01*
X125675744Y-105012260D01*
X125675737Y-105012259D01*
X125675728Y-105012255D01*
X125670416Y-105009713D01*
X125633886Y-104981852D01*
X125631635Y-104980688D01*
X125630475Y-104980574D01*
X125225901Y-105385150D01*
X125225901Y-105385151D01*
X125193554Y-105417499D01*
X124990000Y-105417499D01*
X124990000Y-105387663D01*
X124967164Y-105332532D01*
X124924968Y-105290336D01*
X124869837Y-105267500D01*
X124810163Y-105267500D01*
X124755032Y-105290336D01*
X124755030Y-105290337D01*
X124712837Y-105332530D01*
X124692659Y-105381244D01*
X124664411Y-105416295D01*
X124485241Y-105416295D01*
X124049522Y-104980576D01*
X124049521Y-104980576D01*
X124046310Y-104980891D01*
X124046310Y-104980892D01*
X124028771Y-104995550D01*
X124012419Y-105002667D01*
X123998735Y-105014102D01*
X123981048Y-105016322D01*
X123964707Y-105023435D01*
X123947105Y-105020582D01*
X123929409Y-105022804D01*
X123895744Y-105012260D01*
X123895737Y-105012259D01*
X123895728Y-105012255D01*
X123890416Y-105009713D01*
X123853886Y-104981852D01*
X123851635Y-104980688D01*
X123850475Y-104980574D01*
X123445901Y-105385150D01*
X123445901Y-105385151D01*
X123413554Y-105417499D01*
X123210000Y-105417499D01*
X123210000Y-105387663D01*
X123187164Y-105332532D01*
X123144968Y-105290336D01*
X123089837Y-105267500D01*
X123030163Y-105267500D01*
X122975032Y-105290336D01*
X122975030Y-105290337D01*
X122932837Y-105332530D01*
X122932836Y-105332531D01*
X122932836Y-105332532D01*
X122910000Y-105387663D01*
X122676609Y-105387663D01*
X122269522Y-104980576D01*
X122269521Y-104980576D01*
X122266310Y-104980891D01*
X122266310Y-104980892D01*
X122248771Y-104995550D01*
X122232419Y-105002667D01*
X122218735Y-105014102D01*
X122201048Y-105016322D01*
X122184707Y-105023435D01*
X122167105Y-105020582D01*
X122149409Y-105022804D01*
X122115744Y-105012260D01*
X122115737Y-105012259D01*
X122115728Y-105012255D01*
X122110416Y-105009713D01*
X122073886Y-104981852D01*
X122071635Y-104980688D01*
X122070475Y-104980574D01*
X121633552Y-105417498D01*
X121455189Y-105417498D01*
X121442634Y-105408100D01*
X121427340Y-105381242D01*
X121417901Y-105358454D01*
X121407164Y-105332532D01*
X121364968Y-105290336D01*
X121309837Y-105267500D01*
X121250163Y-105267500D01*
X121195032Y-105290336D01*
X121195030Y-105290337D01*
X121152837Y-105332530D01*
X121152836Y-105332531D01*
X121152836Y-105332532D01*
X121130000Y-105387663D01*
X120896609Y-105387663D01*
X120615000Y-105106054D01*
X120335901Y-105385152D01*
X120335901Y-105385153D01*
X120303554Y-105417500D01*
X120100000Y-105417500D01*
X120100000Y-105387663D01*
X120077164Y-105332532D01*
X120034968Y-105290336D01*
X119979837Y-105267500D01*
X119920163Y-105267500D01*
X119865032Y-105290336D01*
X119865030Y-105290337D01*
X119822837Y-105332530D01*
X119822836Y-105332531D01*
X119822836Y-105332532D01*
X119800000Y-105387663D01*
X119566609Y-105387663D01*
X119159522Y-104980576D01*
X119159521Y-104980576D01*
X119152433Y-104991184D01*
X119152430Y-104991189D01*
X119152429Y-104991191D01*
X119140255Y-105020582D01*
X119084586Y-105154979D01*
X119084578Y-105155012D01*
X119050000Y-105328849D01*
X117850500Y-105328849D01*
X117850500Y-104767499D01*
X119653554Y-104767499D01*
X119653554Y-104767500D01*
X119950000Y-105063946D01*
X120246446Y-104767500D01*
X120246445Y-104767499D01*
X120983554Y-104767499D01*
X120983554Y-104767500D01*
X121280000Y-105063946D01*
X121576446Y-104767500D01*
X121576445Y-104767499D01*
X122763554Y-104767499D01*
X122763554Y-104767500D01*
X123060000Y-105063946D01*
X123356446Y-104767500D01*
X123356445Y-104767499D01*
X124543554Y-104767499D01*
X124543554Y-104767500D01*
X124840000Y-105063946D01*
X125136446Y-104767500D01*
X125136445Y-104767499D01*
X126323554Y-104767499D01*
X126323554Y-104767500D01*
X126620000Y-105063946D01*
X126916446Y-104767500D01*
X126916445Y-104767499D01*
X127653554Y-104767499D01*
X127653554Y-104767500D01*
X127950000Y-105063946D01*
X128246446Y-104767500D01*
X127950000Y-104471054D01*
X127917653Y-104503401D01*
X127917652Y-104503401D01*
X127653554Y-104767499D01*
X126916445Y-104767499D01*
X126620000Y-104471054D01*
X126587653Y-104503401D01*
X126587652Y-104503401D01*
X126323554Y-104767499D01*
X125136445Y-104767499D01*
X124840000Y-104471054D01*
X124807653Y-104503401D01*
X124807652Y-104503401D01*
X124543554Y-104767499D01*
X123356445Y-104767499D01*
X123060000Y-104471054D01*
X123027653Y-104503401D01*
X123027652Y-104503401D01*
X122763554Y-104767499D01*
X121576445Y-104767499D01*
X121280000Y-104471054D01*
X121247653Y-104503401D01*
X121247652Y-104503401D01*
X120983554Y-104767499D01*
X120246445Y-104767499D01*
X119950000Y-104471054D01*
X119917653Y-104503401D01*
X119917652Y-104503401D01*
X119653554Y-104767499D01*
X117850500Y-104767499D01*
X117850500Y-104409829D01*
X117855523Y-104374893D01*
X117859927Y-104359895D01*
X117897702Y-104301118D01*
X117907994Y-104292200D01*
X117941744Y-104271352D01*
X117951044Y-104267500D01*
X118076547Y-104215516D01*
X118224035Y-104116967D01*
X118274080Y-104066920D01*
X118302327Y-104045776D01*
X118325417Y-104033168D01*
X118384841Y-104018003D01*
X118908170Y-104018003D01*
X118943106Y-104023026D01*
X118958104Y-104027430D01*
X118973094Y-104037060D01*
X118990175Y-104042070D01*
X119016855Y-104065175D01*
X119018042Y-104066544D01*
X119045518Y-104121405D01*
X119047163Y-104128963D01*
X119050000Y-104155334D01*
X119050000Y-104206149D01*
X119084578Y-104379986D01*
X119084582Y-104380005D01*
X119084584Y-104380012D01*
X119084586Y-104380020D01*
X119104852Y-104428946D01*
X119143702Y-104522741D01*
X119152430Y-104543811D01*
X119159522Y-104554422D01*
X119600418Y-104113527D01*
X119661740Y-104080043D01*
X119731432Y-104085027D01*
X119787365Y-104126899D01*
X119802658Y-104153754D01*
X119822836Y-104202468D01*
X119865032Y-104244664D01*
X119920163Y-104267500D01*
X119979837Y-104267500D01*
X120034968Y-104244664D01*
X120077164Y-104202468D01*
X120097342Y-104153752D01*
X120141180Y-104099354D01*
X120207474Y-104077288D01*
X120275173Y-104094567D01*
X120299581Y-104113527D01*
X120615000Y-104428946D01*
X120615001Y-104428946D01*
X120930417Y-104113528D01*
X120991740Y-104080043D01*
X121061431Y-104085027D01*
X121117365Y-104126898D01*
X121132658Y-104153754D01*
X121152836Y-104202468D01*
X121195032Y-104244664D01*
X121250163Y-104267500D01*
X121309837Y-104267500D01*
X121364968Y-104244664D01*
X121407164Y-104202468D01*
X121427342Y-104153752D01*
X121471180Y-104099354D01*
X121537474Y-104077288D01*
X121605173Y-104094567D01*
X121629581Y-104113527D01*
X122070476Y-104554423D01*
X122073678Y-104554107D01*
X122091234Y-104539437D01*
X122107581Y-104532324D01*
X122121263Y-104520892D01*
X122138950Y-104518672D01*
X122155298Y-104511558D01*
X122172899Y-104514411D01*
X122190589Y-104512192D01*
X122224264Y-104522740D01*
X122224267Y-104522741D01*
X122224269Y-104522742D01*
X122229587Y-104525287D01*
X122266109Y-104553142D01*
X122268361Y-104554308D01*
X122269522Y-104554423D01*
X122269523Y-104554423D01*
X122674098Y-104149848D01*
X122674098Y-104149847D01*
X122706446Y-104117500D01*
X122266414Y-103677468D01*
X122258295Y-103662600D01*
X122233338Y-103638938D01*
X122224380Y-103623525D01*
X122211448Y-103611267D01*
X122198235Y-103578544D01*
X122196406Y-103571095D01*
X122197051Y-103509416D01*
X122200497Y-103496560D01*
X122200497Y-103085429D01*
X122205519Y-103050496D01*
X122205766Y-103049656D01*
X122212931Y-103025251D01*
X122244225Y-102972509D01*
X122724714Y-102492020D01*
X122752964Y-102470872D01*
X122766688Y-102463378D01*
X122782881Y-102459855D01*
X122792982Y-102453364D01*
X122812718Y-102453363D01*
X122834946Y-102448527D01*
X122836756Y-102448656D01*
X122850899Y-102453363D01*
X122862852Y-102453363D01*
X122894951Y-102468021D01*
X122901471Y-102472211D01*
X122922106Y-102488841D01*
X123488500Y-103055235D01*
X123509652Y-103083490D01*
X123513964Y-103091387D01*
X123528815Y-103159660D01*
X123504397Y-103225124D01*
X123448464Y-103266995D01*
X123385272Y-103273212D01*
X123380218Y-103272392D01*
X123352628Y-103264555D01*
X123322527Y-103252087D01*
X123322486Y-103252078D01*
X123148649Y-103217500D01*
X123148646Y-103217500D01*
X122971353Y-103217500D01*
X122971349Y-103217500D01*
X122797512Y-103252078D01*
X122797488Y-103252083D01*
X122797487Y-103252084D01*
X122797479Y-103252086D01*
X122732001Y-103279208D01*
X122633689Y-103319930D01*
X122633684Y-103319933D01*
X122623076Y-103327020D01*
X122623076Y-103327022D01*
X123063971Y-103767917D01*
X123097456Y-103829240D01*
X123092472Y-103898932D01*
X123050600Y-103954865D01*
X123023745Y-103970158D01*
X122975035Y-103990335D01*
X122975030Y-103990337D01*
X122932837Y-104032530D01*
X122932836Y-104032531D01*
X122932836Y-104032532D01*
X122910000Y-104087663D01*
X122910000Y-104147337D01*
X122932836Y-104202468D01*
X122975032Y-104244664D01*
X123030163Y-104267500D01*
X123089837Y-104267500D01*
X123144968Y-104244664D01*
X123187164Y-104202468D01*
X123207342Y-104153752D01*
X123251180Y-104099354D01*
X123317474Y-104077288D01*
X123385173Y-104094567D01*
X123409580Y-104113527D01*
X123850476Y-104554423D01*
X123853678Y-104554107D01*
X123871234Y-104539437D01*
X123887581Y-104532324D01*
X123901263Y-104520892D01*
X123918950Y-104518672D01*
X123935298Y-104511558D01*
X123952899Y-104514411D01*
X123970589Y-104512192D01*
X124004264Y-104522740D01*
X124004267Y-104522741D01*
X124004269Y-104522742D01*
X124009587Y-104525287D01*
X124046103Y-104553138D01*
X124048362Y-104554308D01*
X124049521Y-104554423D01*
X124490418Y-104113525D01*
X124519204Y-104097807D01*
X124547430Y-104081060D01*
X124549724Y-104081141D01*
X124551739Y-104080042D01*
X124584461Y-104082382D01*
X124617255Y-104083553D01*
X124619140Y-104084862D01*
X124621430Y-104085026D01*
X124647696Y-104104688D01*
X124674648Y-104123401D01*
X124676209Y-104126032D01*
X124677364Y-104126897D01*
X124692657Y-104153754D01*
X124712834Y-104202465D01*
X124712835Y-104202466D01*
X124712836Y-104202468D01*
X124755032Y-104244664D01*
X124810163Y-104267500D01*
X124869837Y-104267500D01*
X124924968Y-104244664D01*
X124967164Y-104202468D01*
X124987340Y-104153757D01*
X125031181Y-104099354D01*
X125097475Y-104077289D01*
X125165174Y-104094568D01*
X125189582Y-104113529D01*
X125630476Y-104554423D01*
X125633678Y-104554107D01*
X125651234Y-104539437D01*
X125667581Y-104532324D01*
X125681263Y-104520892D01*
X125698950Y-104518672D01*
X125715298Y-104511558D01*
X125732899Y-104514411D01*
X125750589Y-104512192D01*
X125784264Y-104522740D01*
X125784267Y-104522741D01*
X125784269Y-104522742D01*
X125789587Y-104525287D01*
X125826109Y-104553142D01*
X125828361Y-104554308D01*
X125829522Y-104554423D01*
X126270418Y-104113527D01*
X126331740Y-104080043D01*
X126401431Y-104085027D01*
X126457365Y-104126898D01*
X126472658Y-104153754D01*
X126492836Y-104202468D01*
X126535032Y-104244664D01*
X126590163Y-104267500D01*
X126649837Y-104267500D01*
X126704968Y-104244664D01*
X126747164Y-104202468D01*
X126770000Y-104147337D01*
X126770000Y-104117500D01*
X126973554Y-104117500D01*
X127285000Y-104428946D01*
X127596446Y-104117500D01*
X127595240Y-104116294D01*
X127774412Y-104116294D01*
X127784649Y-104123402D01*
X127786210Y-104126033D01*
X127787365Y-104126898D01*
X127802658Y-104153754D01*
X127822836Y-104202468D01*
X127865032Y-104244664D01*
X127920163Y-104267500D01*
X127979837Y-104267500D01*
X128034968Y-104244664D01*
X128077164Y-104202468D01*
X128097340Y-104153757D01*
X128126043Y-104118138D01*
X128112634Y-104108100D01*
X128097340Y-104081242D01*
X128077164Y-104032532D01*
X128034968Y-103990336D01*
X128034966Y-103990335D01*
X128009045Y-103979598D01*
X128009044Y-103979598D01*
X127979837Y-103967500D01*
X127920163Y-103967500D01*
X127865032Y-103990336D01*
X127865030Y-103990337D01*
X127822837Y-104032530D01*
X127822836Y-104032531D01*
X127822836Y-104032532D01*
X127802660Y-104081242D01*
X127802659Y-104081244D01*
X127774412Y-104116294D01*
X127595240Y-104116294D01*
X127285000Y-103806054D01*
X127005901Y-104085152D01*
X127005901Y-104085153D01*
X126973554Y-104117500D01*
X126770000Y-104117500D01*
X126770000Y-104087663D01*
X126747164Y-104032532D01*
X126704968Y-103990336D01*
X126656255Y-103970158D01*
X126601853Y-103926318D01*
X126579788Y-103860023D01*
X126597067Y-103792324D01*
X126616028Y-103767917D01*
X126721345Y-103662600D01*
X127056922Y-103327022D01*
X127056921Y-103327021D01*
X127056920Y-103327020D01*
X127513076Y-103327020D01*
X127513076Y-103327021D01*
X127513076Y-103327022D01*
X127950000Y-103763946D01*
X127950001Y-103763946D01*
X128386923Y-103327022D01*
X128386922Y-103327021D01*
X128386923Y-103327021D01*
X128376314Y-103319931D01*
X128376309Y-103319929D01*
X128212521Y-103252086D01*
X128212486Y-103252078D01*
X128038649Y-103217500D01*
X128038646Y-103217500D01*
X127861353Y-103217500D01*
X127861349Y-103217500D01*
X127687512Y-103252078D01*
X127687488Y-103252083D01*
X127687487Y-103252084D01*
X127687479Y-103252086D01*
X127622001Y-103279208D01*
X127523689Y-103319930D01*
X127523684Y-103319933D01*
X127513076Y-103327020D01*
X127056920Y-103327020D01*
X127046316Y-103319933D01*
X127046309Y-103319929D01*
X126998334Y-103300057D01*
X126882520Y-103252086D01*
X126882512Y-103252084D01*
X126882505Y-103252082D01*
X126882486Y-103252078D01*
X126708649Y-103217500D01*
X126708646Y-103217500D01*
X126531359Y-103217500D01*
X126472749Y-103229157D01*
X126458202Y-103228425D01*
X126447172Y-103231531D01*
X126437506Y-103231045D01*
X126426244Y-103230037D01*
X126416867Y-103226347D01*
X126412295Y-103226118D01*
X126401570Y-103222838D01*
X126392106Y-103216605D01*
X126361226Y-103204455D01*
X126349982Y-103188862D01*
X126343219Y-103184408D01*
X126337552Y-103171624D01*
X126320361Y-103147782D01*
X126319449Y-103130780D01*
X126314907Y-103120531D01*
X126317875Y-103101405D01*
X126316622Y-103078016D01*
X126317161Y-103075734D01*
X126323672Y-103064059D01*
X126325624Y-103051488D01*
X126339272Y-103036089D01*
X126350152Y-103016580D01*
X127448713Y-101918021D01*
X127448716Y-101918020D01*
X127560520Y-101806216D01*
X127610639Y-101719404D01*
X127639577Y-101669285D01*
X127680500Y-101516557D01*
X127680500Y-101358443D01*
X127680500Y-100949690D01*
X127685522Y-100914757D01*
X127692506Y-100890972D01*
X127692934Y-100889512D01*
X127724228Y-100836769D01*
X127779464Y-100781535D01*
X127878013Y-100634047D01*
X127945894Y-100470166D01*
X127946029Y-100469490D01*
X127980499Y-100296195D01*
X127980500Y-100296193D01*
X127980500Y-100118806D01*
X127980499Y-100118804D01*
X127945896Y-99944841D01*
X127945893Y-99944832D01*
X127878015Y-99780957D01*
X127878014Y-99780956D01*
X127878013Y-99780953D01*
X127854799Y-99746212D01*
X127839568Y-99714377D01*
X127834897Y-99699460D01*
X127833649Y-99629605D01*
X127837253Y-99616464D01*
X127853732Y-99580385D01*
X127878013Y-99544047D01*
X127945894Y-99380166D01*
X127952195Y-99348492D01*
X127980499Y-99206195D01*
X127980500Y-99206193D01*
X127980500Y-99074476D01*
X127985521Y-99039549D01*
X127988707Y-99028696D01*
X128026477Y-98969915D01*
X128090031Y-98940886D01*
X128159186Y-98950824D01*
G37*
%TD.AperFunction*%
%TA.AperFunction,Conductor*%
G36*
X130398369Y-82941278D02*
G01*
X130416152Y-82942550D01*
X130430424Y-82953234D01*
X130447130Y-82959465D01*
X130457814Y-82973737D01*
X130472086Y-82984421D01*
X130489001Y-83015398D01*
X130491682Y-83022586D01*
X130499500Y-83065920D01*
X130499500Y-110060089D01*
X130494476Y-110095029D01*
X130491941Y-110103661D01*
X130454164Y-110162438D01*
X130390607Y-110191460D01*
X130321449Y-110181513D01*
X130272394Y-110141256D01*
X130269398Y-110137102D01*
X130255408Y-110112019D01*
X130247966Y-110094053D01*
X130209648Y-110001543D01*
X130200339Y-109979069D01*
X130198694Y-109974471D01*
X130131304Y-109873615D01*
X130131303Y-109873614D01*
X130116071Y-109841776D01*
X130106165Y-109810139D01*
X130100500Y-109773087D01*
X130100500Y-99519002D01*
X130100501Y-99518951D01*
X130100501Y-99348496D01*
X130100500Y-99348492D01*
X130089166Y-99306189D01*
X130089166Y-99306188D01*
X130059578Y-99195770D01*
X130059577Y-99195766D01*
X130020917Y-99128804D01*
X130020917Y-99128803D01*
X129989551Y-99074476D01*
X129980524Y-99058840D01*
X129980518Y-99058832D01*
X129980514Y-99058828D01*
X129980513Y-99058826D01*
X126849426Y-95927740D01*
X126849421Y-95927735D01*
X126828274Y-95899484D01*
X126815667Y-95876395D01*
X126800500Y-95816970D01*
X126800500Y-87859829D01*
X126805523Y-87824893D01*
X126809234Y-87812257D01*
X126809927Y-87809894D01*
X126847672Y-87751144D01*
X126849041Y-87749957D01*
X126903920Y-87722477D01*
X126911479Y-87720833D01*
X126937832Y-87718000D01*
X126992814Y-87718000D01*
X127000667Y-87715617D01*
X127046682Y-87706464D01*
X127046683Y-87706464D01*
X127162653Y-87683397D01*
X127162653Y-87683396D01*
X127162658Y-87683396D01*
X127162661Y-87683394D01*
X127162666Y-87683394D01*
X127165854Y-87682073D01*
X127173835Y-87678773D01*
X127173876Y-87678751D01*
X127326540Y-87615516D01*
X127326540Y-87615515D01*
X127326547Y-87615513D01*
X127474035Y-87516964D01*
X127599464Y-87391535D01*
X127698013Y-87244047D01*
X127765894Y-87080166D01*
X127766116Y-87079053D01*
X127788964Y-86964182D01*
X127800500Y-86906191D01*
X127800500Y-86728809D01*
X127800500Y-86728806D01*
X127800500Y-86728625D01*
X127800074Y-86726669D01*
X127765896Y-86554841D01*
X127765893Y-86554832D01*
X127698016Y-86390959D01*
X127698009Y-86390946D01*
X127599464Y-86243465D01*
X127599461Y-86243461D01*
X127599457Y-86243456D01*
X127549426Y-86193426D01*
X127549423Y-86193422D01*
X127549422Y-86193422D01*
X127528272Y-86165167D01*
X127515666Y-86142079D01*
X127500500Y-86082656D01*
X127500500Y-85820375D01*
X127505522Y-85785442D01*
X127512934Y-85760197D01*
X127544228Y-85707455D01*
X130275213Y-82976469D01*
X130303460Y-82955323D01*
X130313395Y-82949898D01*
X130330815Y-82946109D01*
X130346461Y-82937566D01*
X130364243Y-82938837D01*
X130381666Y-82935048D01*
X130398369Y-82941278D01*
G37*
%TD.AperFunction*%
%TD*%
%TA.AperFunction,Conductor*%
%TO.N,VIN*%
G36*
X122843039Y-89787185D02*
G01*
X122888794Y-89839989D01*
X122900000Y-89891500D01*
X122900000Y-99390279D01*
X122880315Y-99457318D01*
X122827511Y-99503073D01*
X122775982Y-99514279D01*
X114299310Y-99513066D01*
X114299310Y-99514727D01*
X112499296Y-99512808D01*
X112499296Y-111517500D01*
X113805111Y-111517500D01*
X113799499Y-111538443D01*
X113799499Y-111538445D01*
X113799499Y-111706546D01*
X113799500Y-111706559D01*
X113799500Y-114451717D01*
X113779815Y-114518756D01*
X113763181Y-114539398D01*
X112919481Y-115383097D01*
X112919475Y-115383105D01*
X112840426Y-115520024D01*
X112840423Y-115520029D01*
X112836761Y-115533697D01*
X112799499Y-115672758D01*
X112799499Y-115672759D01*
X112799499Y-115672760D01*
X112799500Y-115787191D01*
X112799500Y-116886031D01*
X112779815Y-116953070D01*
X112763181Y-116973712D01*
X112574214Y-117162678D01*
X112574215Y-117162679D01*
X112469478Y-117267415D01*
X112417305Y-117357786D01*
X112417303Y-117357788D01*
X112390425Y-117404340D01*
X112390423Y-117404343D01*
X112370749Y-117477767D01*
X112349499Y-117557073D01*
X112349500Y-117637402D01*
X112349500Y-121688432D01*
X112349498Y-121688444D01*
X112349498Y-121846558D01*
X112349499Y-121846564D01*
X112349500Y-122019816D01*
X112349500Y-122019818D01*
X112349501Y-122106197D01*
X112349501Y-122177934D01*
X112369963Y-122254297D01*
X112390425Y-122330662D01*
X112390426Y-122330663D01*
X112469483Y-122467593D01*
X112473875Y-122473316D01*
X112499070Y-122538485D01*
X112499500Y-122548803D01*
X112499500Y-123520780D01*
X112499499Y-123520798D01*
X112499499Y-123686504D01*
X112499498Y-123686504D01*
X112540423Y-123839235D01*
X112569358Y-123889350D01*
X112569359Y-123889354D01*
X112569360Y-123889354D01*
X112585898Y-123918000D01*
X112619479Y-123976164D01*
X112619481Y-123976167D01*
X112738349Y-124095035D01*
X112738354Y-124095039D01*
X114041337Y-125398023D01*
X114041339Y-125398024D01*
X114041343Y-125398027D01*
X114163922Y-125468797D01*
X114178269Y-125477080D01*
X114208738Y-125485244D01*
X114268396Y-125521607D01*
X114298926Y-125584454D01*
X114300643Y-125605011D01*
X114300690Y-126500185D01*
X114300690Y-126500186D01*
X123112106Y-126499734D01*
X123179145Y-126519415D01*
X123224903Y-126572217D01*
X123236111Y-126623382D01*
X123263127Y-136143148D01*
X123243632Y-136210243D01*
X123190958Y-136256148D01*
X123139127Y-136267500D01*
X112123988Y-136267500D01*
X112056949Y-136247815D01*
X112011194Y-136195011D01*
X111999988Y-136143512D01*
X111999459Y-130766885D01*
X105874012Y-130767487D01*
X105806971Y-130747809D01*
X105761211Y-130695010D01*
X105750000Y-130643487D01*
X105750000Y-121528713D01*
X108049500Y-121528713D01*
X108049500Y-121741286D01*
X108079201Y-121928815D01*
X108082754Y-121951243D01*
X108146939Y-122148784D01*
X108148444Y-122153414D01*
X108244951Y-122342820D01*
X108369890Y-122514786D01*
X108483430Y-122628326D01*
X108516915Y-122689649D01*
X108511931Y-122759341D01*
X108470059Y-122815274D01*
X108439083Y-122832189D01*
X108307669Y-122881203D01*
X108307664Y-122881206D01*
X108192455Y-122967452D01*
X108192452Y-122967455D01*
X108106206Y-123082664D01*
X108106202Y-123082671D01*
X108055908Y-123217517D01*
X108049501Y-123277116D01*
X108049501Y-123277123D01*
X108049500Y-123277135D01*
X108049500Y-125072870D01*
X108049501Y-125072876D01*
X108055908Y-125132483D01*
X108106202Y-125267328D01*
X108106206Y-125267335D01*
X108192452Y-125382544D01*
X108192455Y-125382547D01*
X108307664Y-125468793D01*
X108307671Y-125468797D01*
X108442517Y-125519091D01*
X108442516Y-125519091D01*
X108449444Y-125519835D01*
X108502127Y-125525500D01*
X110297872Y-125525499D01*
X110357483Y-125519091D01*
X110492331Y-125468796D01*
X110607546Y-125382546D01*
X110693796Y-125267331D01*
X110744091Y-125132483D01*
X110750500Y-125072873D01*
X110750499Y-123277128D01*
X110744091Y-123217517D01*
X110693796Y-123082669D01*
X110693795Y-123082668D01*
X110693793Y-123082664D01*
X110607547Y-122967455D01*
X110607544Y-122967452D01*
X110492335Y-122881206D01*
X110492328Y-122881202D01*
X110360917Y-122832189D01*
X110304983Y-122790318D01*
X110280566Y-122724853D01*
X110295418Y-122656580D01*
X110316563Y-122628332D01*
X110430104Y-122514792D01*
X110555051Y-122342816D01*
X110651557Y-122153412D01*
X110717246Y-121951243D01*
X110750500Y-121741287D01*
X110750500Y-121528713D01*
X110717246Y-121318757D01*
X110651557Y-121116588D01*
X110555051Y-120927184D01*
X110555049Y-120927181D01*
X110555048Y-120927179D01*
X110430109Y-120755213D01*
X110279786Y-120604890D01*
X110107820Y-120479951D01*
X109918414Y-120383444D01*
X109918413Y-120383443D01*
X109918412Y-120383443D01*
X109716243Y-120317754D01*
X109716241Y-120317753D01*
X109716240Y-120317753D01*
X109550704Y-120291535D01*
X109506287Y-120284500D01*
X109293713Y-120284500D01*
X109249296Y-120291535D01*
X109083760Y-120317753D01*
X108881585Y-120383444D01*
X108692179Y-120479951D01*
X108520213Y-120604890D01*
X108369890Y-120755213D01*
X108244951Y-120927179D01*
X108148444Y-121116585D01*
X108082753Y-121318760D01*
X108049500Y-121528713D01*
X105750000Y-121528713D01*
X105750000Y-96141500D01*
X105769685Y-96074461D01*
X105822489Y-96028706D01*
X105874000Y-96017500D01*
X115250000Y-96017500D01*
X115250000Y-89891500D01*
X115269685Y-89824461D01*
X115322489Y-89778706D01*
X115374000Y-89767500D01*
X122776000Y-89767500D01*
X122843039Y-89787185D01*
G37*
%TD.AperFunction*%
%TD*%
M02*
