%TF.GenerationSoftware,KiCad,Pcbnew,10.0.1-1.fc44*%
%TF.CreationDate,2026-05-14T21:29:10+03:00*%
%TF.ProjectId,helix_vape,68656c69-785f-4766-9170-652e6b696361,rev?*%
%TF.SameCoordinates,Original*%
%TF.FileFunction,Soldermask,Top*%
%TF.FilePolarity,Negative*%
%FSLAX46Y46*%
G04 Gerber Fmt 4.6, Leading zero omitted, Abs format (unit mm)*
G04 Created by KiCad (PCBNEW 10.0.1-1.fc44) date 2026-05-14 21:29:10*
%MOMM*%
%LPD*%
G01*
G04 APERTURE LIST*
G04 Aperture macros list*
%AMRoundRect*
0 Rectangle with rounded corners*
0 $1 Rounding radius*
0 $2 $3 $4 $5 $6 $7 $8 $9 X,Y pos of 4 corners*
0 Add a 4 corners polygon primitive as box body*
4,1,4,$2,$3,$4,$5,$6,$7,$8,$9,$2,$3,0*
0 Add four circle primitives for the rounded corners*
1,1,$1+$1,$2,$3*
1,1,$1+$1,$4,$5*
1,1,$1+$1,$6,$7*
1,1,$1+$1,$8,$9*
0 Add four rect primitives between the rounded corners*
20,1,$1+$1,$2,$3,$4,$5,0*
20,1,$1+$1,$4,$5,$6,$7,0*
20,1,$1+$1,$6,$7,$8,$9,0*
20,1,$1+$1,$8,$9,$2,$3,0*%
G04 Aperture macros list end*
%ADD10C,0.010000*%
%ADD11RoundRect,0.135000X-0.135000X-0.185000X0.135000X-0.185000X0.135000X0.185000X-0.135000X0.185000X0*%
%ADD12RoundRect,0.140000X-0.140000X-0.170000X0.140000X-0.170000X0.140000X0.170000X-0.140000X0.170000X0*%
%ADD13RoundRect,0.140000X0.170000X-0.140000X0.170000X0.140000X-0.170000X0.140000X-0.170000X-0.140000X0*%
%ADD14RoundRect,0.200000X-0.275000X0.200000X-0.275000X-0.200000X0.275000X-0.200000X0.275000X0.200000X0*%
%ADD15RoundRect,0.135000X0.185000X-0.135000X0.185000X0.135000X-0.185000X0.135000X-0.185000X-0.135000X0*%
%ADD16R,2.500000X2.500000*%
%ADD17RoundRect,0.140000X-0.170000X0.140000X-0.170000X-0.140000X0.170000X-0.140000X0.170000X0.140000X0*%
%ADD18RoundRect,0.250000X-1.100000X0.325000X-1.100000X-0.325000X1.100000X-0.325000X1.100000X0.325000X0*%
%ADD19R,0.812800X0.406400*%
%ADD20R,0.406400X0.812800*%
%ADD21R,1.447800X1.447800*%
%ADD22R,0.711200X0.711200*%
%ADD23R,0.400000X1.100000*%
%ADD24R,9.500000X3.400000*%
%ADD25RoundRect,0.250000X-0.400000X-2.975000X0.400000X-2.975000X0.400000X2.975000X-0.400000X2.975000X0*%
%ADD26RoundRect,0.250000X0.650000X-0.325000X0.650000X0.325000X-0.650000X0.325000X-0.650000X-0.325000X0*%
%ADD27RoundRect,0.250000X-0.375000X-1.075000X0.375000X-1.075000X0.375000X1.075000X-0.375000X1.075000X0*%
%ADD28RoundRect,0.200000X0.275000X-0.200000X0.275000X0.200000X-0.275000X0.200000X-0.275000X-0.200000X0*%
%ADD29RoundRect,0.150000X0.512500X0.150000X-0.512500X0.150000X-0.512500X-0.150000X0.512500X-0.150000X0*%
%ADD30RoundRect,0.250000X2.975000X-0.400000X2.975000X0.400000X-2.975000X0.400000X-2.975000X-0.400000X0*%
%ADD31RoundRect,0.140000X0.140000X0.170000X-0.140000X0.170000X-0.140000X-0.170000X0.140000X-0.170000X0*%
%ADD32C,3.800000*%
%ADD33RoundRect,0.150000X0.150000X-0.512500X0.150000X0.512500X-0.150000X0.512500X-0.150000X-0.512500X0*%
%ADD34RoundRect,0.200000X0.200000X0.275000X-0.200000X0.275000X-0.200000X-0.275000X0.200000X-0.275000X0*%
%ADD35RoundRect,0.150000X-0.150000X-0.425000X0.150000X-0.425000X0.150000X0.425000X-0.150000X0.425000X0*%
%ADD36RoundRect,0.075000X-0.075000X-0.500000X0.075000X-0.500000X0.075000X0.500000X-0.075000X0.500000X0*%
%ADD37O,1.200000X2.500000*%
%ADD38O,1.200000X2.100000*%
%ADD39RoundRect,0.150000X-0.150000X-0.200000X0.150000X-0.200000X0.150000X0.200000X-0.150000X0.200000X0*%
%ADD40RoundRect,0.135000X-0.185000X0.135000X-0.185000X-0.135000X0.185000X-0.135000X0.185000X0.135000X0*%
%ADD41RoundRect,0.102000X0.675000X0.900000X-0.675000X0.900000X-0.675000X-0.900000X0.675000X-0.900000X0*%
%ADD42RoundRect,0.250000X-0.250000X-0.475000X0.250000X-0.475000X0.250000X0.475000X-0.250000X0.475000X0*%
%ADD43RoundRect,0.075000X-0.075000X0.650000X-0.075000X-0.650000X0.075000X-0.650000X0.075000X0.650000X0*%
%ADD44RoundRect,0.250000X0.250000X0.475000X-0.250000X0.475000X-0.250000X-0.475000X0.250000X-0.475000X0*%
%ADD45RoundRect,0.250002X1.749998X-1.499998X1.749998X1.499998X-1.749998X1.499998X-1.749998X-1.499998X0*%
%ADD46RoundRect,0.225000X0.225000X0.375000X-0.225000X0.375000X-0.225000X-0.375000X0.225000X-0.375000X0*%
%ADD47R,1.700000X1.700000*%
%ADD48C,1.700000*%
%ADD49RoundRect,0.150000X-0.512500X-0.150000X0.512500X-0.150000X0.512500X0.150000X-0.512500X0.150000X0*%
G04 APERTURE END LIST*
D10*
%TO.C,Q1*%
X109099500Y-57862500D02*
X108174500Y-57862500D01*
X108174500Y-57362500D01*
X109099500Y-57362500D01*
X109099500Y-57862500D01*
G36*
X109099500Y-57862500D02*
G01*
X108174500Y-57862500D01*
X108174500Y-57362500D01*
X109099500Y-57362500D01*
X109099500Y-57862500D01*
G37*
X109099500Y-59132500D02*
X108174500Y-59132500D01*
X108174500Y-58632500D01*
X109099500Y-58632500D01*
X109099500Y-59132500D01*
G36*
X109099500Y-59132500D02*
G01*
X108174500Y-59132500D01*
X108174500Y-58632500D01*
X109099500Y-58632500D01*
X109099500Y-59132500D01*
G37*
X109099500Y-60402500D02*
X108174500Y-60402500D01*
X108174500Y-59902500D01*
X109099500Y-59902500D01*
X109099500Y-60402500D01*
G36*
X109099500Y-60402500D02*
G01*
X108174500Y-60402500D01*
X108174500Y-59902500D01*
X109099500Y-59902500D01*
X109099500Y-60402500D01*
G37*
X109099500Y-61672500D02*
X108174500Y-61672500D01*
X108174500Y-61172500D01*
X109099500Y-61172500D01*
X109099500Y-61672500D01*
G36*
X109099500Y-61672500D02*
G01*
X108174500Y-61672500D01*
X108174500Y-61172500D01*
X109099500Y-61172500D01*
X109099500Y-61672500D01*
G37*
X114825000Y-57912500D02*
X114025000Y-57912500D01*
X114025000Y-58582500D01*
X114825000Y-58582500D01*
X114825000Y-59182500D01*
X114025000Y-59182500D01*
X114025000Y-59852500D01*
X114825000Y-59852500D01*
X114825000Y-60452500D01*
X114025000Y-60452500D01*
X114025000Y-61122500D01*
X114825000Y-61122500D01*
X114825000Y-61722500D01*
X110370000Y-61722500D01*
X110370000Y-57312500D01*
X114825000Y-57312500D01*
X114825000Y-57912500D01*
G36*
X114825000Y-57912500D02*
G01*
X114025000Y-57912500D01*
X114025000Y-58582500D01*
X114825000Y-58582500D01*
X114825000Y-59182500D01*
X114025000Y-59182500D01*
X114025000Y-59852500D01*
X114825000Y-59852500D01*
X114825000Y-60452500D01*
X114025000Y-60452500D01*
X114025000Y-61122500D01*
X114825000Y-61122500D01*
X114825000Y-61722500D01*
X110370000Y-61722500D01*
X110370000Y-57312500D01*
X114825000Y-57312500D01*
X114825000Y-57912500D01*
G37*
%TO.C,Q4*%
X111325500Y-84362500D02*
X110400500Y-84362500D01*
X110400500Y-83862500D01*
X111325500Y-83862500D01*
X111325500Y-84362500D01*
G36*
X111325500Y-84362500D02*
G01*
X110400500Y-84362500D01*
X110400500Y-83862500D01*
X111325500Y-83862500D01*
X111325500Y-84362500D01*
G37*
X111325500Y-85632500D02*
X110400500Y-85632500D01*
X110400500Y-85132500D01*
X111325500Y-85132500D01*
X111325500Y-85632500D01*
G36*
X111325500Y-85632500D02*
G01*
X110400500Y-85632500D01*
X110400500Y-85132500D01*
X111325500Y-85132500D01*
X111325500Y-85632500D01*
G37*
X111325500Y-86902500D02*
X110400500Y-86902500D01*
X110400500Y-86402500D01*
X111325500Y-86402500D01*
X111325500Y-86902500D01*
G36*
X111325500Y-86902500D02*
G01*
X110400500Y-86902500D01*
X110400500Y-86402500D01*
X111325500Y-86402500D01*
X111325500Y-86902500D01*
G37*
X111325500Y-88172500D02*
X110400500Y-88172500D01*
X110400500Y-87672500D01*
X111325500Y-87672500D01*
X111325500Y-88172500D01*
G36*
X111325500Y-88172500D02*
G01*
X110400500Y-88172500D01*
X110400500Y-87672500D01*
X111325500Y-87672500D01*
X111325500Y-88172500D01*
G37*
X109130000Y-88222500D02*
X104675000Y-88222500D01*
X104675000Y-87622500D01*
X105475000Y-87622500D01*
X105475000Y-86952500D01*
X104675000Y-86952500D01*
X104675000Y-86352500D01*
X105475000Y-86352500D01*
X105475000Y-85682500D01*
X104675000Y-85682500D01*
X104675000Y-85082500D01*
X105475000Y-85082500D01*
X105475000Y-84412500D01*
X104675000Y-84412500D01*
X104675000Y-83812500D01*
X109130000Y-83812500D01*
X109130000Y-88222500D01*
G36*
X109130000Y-88222500D02*
G01*
X104675000Y-88222500D01*
X104675000Y-87622500D01*
X105475000Y-87622500D01*
X105475000Y-86952500D01*
X104675000Y-86952500D01*
X104675000Y-86352500D01*
X105475000Y-86352500D01*
X105475000Y-85682500D01*
X104675000Y-85682500D01*
X104675000Y-85082500D01*
X105475000Y-85082500D01*
X105475000Y-84412500D01*
X104675000Y-84412500D01*
X104675000Y-83812500D01*
X109130000Y-83812500D01*
X109130000Y-88222500D01*
G37*
%TO.C,Q2*%
X108999500Y-91345000D02*
X108074500Y-91345000D01*
X108074500Y-90845000D01*
X108999500Y-90845000D01*
X108999500Y-91345000D01*
G36*
X108999500Y-91345000D02*
G01*
X108074500Y-91345000D01*
X108074500Y-90845000D01*
X108999500Y-90845000D01*
X108999500Y-91345000D01*
G37*
X108999500Y-92615000D02*
X108074500Y-92615000D01*
X108074500Y-92115000D01*
X108999500Y-92115000D01*
X108999500Y-92615000D01*
G36*
X108999500Y-92615000D02*
G01*
X108074500Y-92615000D01*
X108074500Y-92115000D01*
X108999500Y-92115000D01*
X108999500Y-92615000D01*
G37*
X108999500Y-93885000D02*
X108074500Y-93885000D01*
X108074500Y-93385000D01*
X108999500Y-93385000D01*
X108999500Y-93885000D01*
G36*
X108999500Y-93885000D02*
G01*
X108074500Y-93885000D01*
X108074500Y-93385000D01*
X108999500Y-93385000D01*
X108999500Y-93885000D01*
G37*
X108999500Y-95155000D02*
X108074500Y-95155000D01*
X108074500Y-94655000D01*
X108999500Y-94655000D01*
X108999500Y-95155000D01*
G36*
X108999500Y-95155000D02*
G01*
X108074500Y-95155000D01*
X108074500Y-94655000D01*
X108999500Y-94655000D01*
X108999500Y-95155000D01*
G37*
X114725000Y-91395000D02*
X113925000Y-91395000D01*
X113925000Y-92065000D01*
X114725000Y-92065000D01*
X114725000Y-92665000D01*
X113925000Y-92665000D01*
X113925000Y-93335000D01*
X114725000Y-93335000D01*
X114725000Y-93935000D01*
X113925000Y-93935000D01*
X113925000Y-94605000D01*
X114725000Y-94605000D01*
X114725000Y-95205000D01*
X110270000Y-95205000D01*
X110270000Y-90795000D01*
X114725000Y-90795000D01*
X114725000Y-91395000D01*
G36*
X114725000Y-91395000D02*
G01*
X113925000Y-91395000D01*
X113925000Y-92065000D01*
X114725000Y-92065000D01*
X114725000Y-92665000D01*
X113925000Y-92665000D01*
X113925000Y-93335000D01*
X114725000Y-93335000D01*
X114725000Y-93935000D01*
X113925000Y-93935000D01*
X113925000Y-94605000D01*
X114725000Y-94605000D01*
X114725000Y-95205000D01*
X110270000Y-95205000D01*
X110270000Y-90795000D01*
X114725000Y-90795000D01*
X114725000Y-91395000D01*
G37*
%TO.C,Q3*%
X111248000Y-64362500D02*
X110323000Y-64362500D01*
X110323000Y-63862500D01*
X111248000Y-63862500D01*
X111248000Y-64362500D01*
G36*
X111248000Y-64362500D02*
G01*
X110323000Y-64362500D01*
X110323000Y-63862500D01*
X111248000Y-63862500D01*
X111248000Y-64362500D01*
G37*
X111248000Y-65632500D02*
X110323000Y-65632500D01*
X110323000Y-65132500D01*
X111248000Y-65132500D01*
X111248000Y-65632500D01*
G36*
X111248000Y-65632500D02*
G01*
X110323000Y-65632500D01*
X110323000Y-65132500D01*
X111248000Y-65132500D01*
X111248000Y-65632500D01*
G37*
X111248000Y-66902500D02*
X110323000Y-66902500D01*
X110323000Y-66402500D01*
X111248000Y-66402500D01*
X111248000Y-66902500D01*
G36*
X111248000Y-66902500D02*
G01*
X110323000Y-66902500D01*
X110323000Y-66402500D01*
X111248000Y-66402500D01*
X111248000Y-66902500D01*
G37*
X111248000Y-68172500D02*
X110323000Y-68172500D01*
X110323000Y-67672500D01*
X111248000Y-67672500D01*
X111248000Y-68172500D01*
G36*
X111248000Y-68172500D02*
G01*
X110323000Y-68172500D01*
X110323000Y-67672500D01*
X111248000Y-67672500D01*
X111248000Y-68172500D01*
G37*
X109052500Y-68222500D02*
X104597500Y-68222500D01*
X104597500Y-67622500D01*
X105397500Y-67622500D01*
X105397500Y-66952500D01*
X104597500Y-66952500D01*
X104597500Y-66352500D01*
X105397500Y-66352500D01*
X105397500Y-65682500D01*
X104597500Y-65682500D01*
X104597500Y-65082500D01*
X105397500Y-65082500D01*
X105397500Y-64412500D01*
X104597500Y-64412500D01*
X104597500Y-63812500D01*
X109052500Y-63812500D01*
X109052500Y-68222500D01*
G36*
X109052500Y-68222500D02*
G01*
X104597500Y-68222500D01*
X104597500Y-67622500D01*
X105397500Y-67622500D01*
X105397500Y-66952500D01*
X104597500Y-66952500D01*
X104597500Y-66352500D01*
X105397500Y-66352500D01*
X105397500Y-65682500D01*
X104597500Y-65682500D01*
X104597500Y-65082500D01*
X105397500Y-65082500D01*
X105397500Y-64412500D01*
X104597500Y-64412500D01*
X104597500Y-63812500D01*
X109052500Y-63812500D01*
X109052500Y-68222500D01*
G37*
%TD*%
D11*
%TO.C,R9*%
X125580000Y-93250000D03*
X126600000Y-93250000D03*
%TD*%
D12*
%TO.C,C9*%
X119770000Y-100267500D03*
X120730000Y-100267500D03*
%TD*%
D13*
%TO.C,C7*%
X125050000Y-111997500D03*
X125050000Y-111037500D03*
%TD*%
D14*
%TO.C,R26*%
X128950000Y-68742500D03*
X128950000Y-70392500D03*
%TD*%
D13*
%TO.C,C1*%
X129010000Y-74497500D03*
X129010000Y-73537500D03*
%TD*%
D15*
%TO.C,R2*%
X130000000Y-137027500D03*
X130000000Y-136007500D03*
%TD*%
%TO.C,C4*%
X123100000Y-101280000D03*
X123100000Y-100260000D03*
%TD*%
D16*
%TO.C,J4*%
X123450000Y-49767500D03*
%TD*%
D17*
%TO.C,C22*%
X128250000Y-111037500D03*
X128250000Y-111997500D03*
%TD*%
D18*
%TO.C,Cout2*%
X120825000Y-61042500D03*
X120825000Y-63992500D03*
%TD*%
D14*
%TO.C,R24*%
X129140000Y-76832500D03*
X129140000Y-78482500D03*
%TD*%
D19*
%TO.C,U5*%
X116450002Y-115900000D03*
X116450002Y-116700001D03*
X116450002Y-117500000D03*
X116450002Y-118300001D03*
X116450002Y-119099999D03*
X116450002Y-119900000D03*
X116450002Y-120700001D03*
X116450002Y-121499999D03*
X116450002Y-122300000D03*
X116450002Y-123099999D03*
X116450002Y-123900000D03*
D20*
X117549999Y-124800000D03*
X118350000Y-124800000D03*
X119150001Y-124800000D03*
X119950000Y-124800000D03*
X120750001Y-124800000D03*
X121549999Y-124800000D03*
X122350000Y-124800000D03*
X123150001Y-124800000D03*
X123949999Y-124800000D03*
X124750000Y-124800000D03*
X125549999Y-124800000D03*
X126350000Y-124800000D03*
X127149998Y-124800000D03*
D19*
X128249998Y-123900000D03*
X128249998Y-123099999D03*
X128249998Y-122300000D03*
X128249998Y-121499999D03*
X128249998Y-120700001D03*
X128249998Y-119900000D03*
X128249998Y-119099999D03*
X128249998Y-118300001D03*
X128249998Y-117500000D03*
X128249998Y-116700001D03*
X128249998Y-115900000D03*
D20*
X127150001Y-115000000D03*
X126350000Y-115000000D03*
X125549999Y-115000000D03*
X124750000Y-115000000D03*
X123949999Y-115000000D03*
X123150001Y-115000000D03*
X122350000Y-115000000D03*
X121549999Y-115000000D03*
X120750001Y-115000000D03*
X119950000Y-115000000D03*
X119150001Y-115000000D03*
X118350000Y-115000000D03*
X117550002Y-115000000D03*
D21*
X122350000Y-119900000D03*
D22*
X128300002Y-114950000D03*
X128300002Y-124850000D03*
X116400002Y-124850000D03*
X116400002Y-114950000D03*
D21*
X120375000Y-117925000D03*
X120375000Y-119900000D03*
X120375000Y-121875000D03*
X122350000Y-121875000D03*
X124325000Y-121875000D03*
X124325000Y-119900000D03*
X124325000Y-117925000D03*
X122350000Y-117925000D03*
%TD*%
D11*
%TO.C,R1*%
X128990000Y-67517500D03*
X130010000Y-67517500D03*
%TD*%
D23*
%TO.C,U1*%
X119725000Y-108267500D03*
X120375000Y-108267500D03*
X121025000Y-108267500D03*
X121675000Y-108267500D03*
X122325000Y-108267500D03*
X122975000Y-108267500D03*
X123625000Y-108267500D03*
X124275000Y-108267500D03*
X124925000Y-108267500D03*
X125575000Y-108267500D03*
X126225000Y-108267500D03*
X126875000Y-108267500D03*
X127525000Y-108267500D03*
X128175000Y-108267500D03*
X128175000Y-102567500D03*
X127525000Y-102567500D03*
X126875000Y-102567500D03*
X126225000Y-102567500D03*
X125575000Y-102567500D03*
X124925000Y-102567500D03*
X124275000Y-102567500D03*
X123625000Y-102567500D03*
X122975000Y-102567500D03*
X122325000Y-102567500D03*
X121675000Y-102567500D03*
X121025000Y-102567500D03*
X120375000Y-102567500D03*
X119725000Y-102567500D03*
D24*
X123950000Y-105417500D03*
%TD*%
D18*
%TO.C,Cout3*%
X116825000Y-61042500D03*
X116825000Y-63992500D03*
%TD*%
D13*
%TO.C,C14*%
X127750000Y-139247500D03*
X127750000Y-138287500D03*
%TD*%
D14*
%TO.C,R23*%
X114500000Y-120442500D03*
X114500000Y-122092500D03*
%TD*%
D17*
%TO.C,C20*%
X129190000Y-84437500D03*
X129190000Y-85397500D03*
%TD*%
D25*
%TO.C,RS1*%
X115175000Y-75517500D03*
X117825000Y-75517500D03*
%TD*%
D26*
%TO.C,Cin2*%
X117325000Y-88492500D03*
X117325000Y-85542500D03*
%TD*%
D12*
%TO.C,C24*%
X128020000Y-129300000D03*
X128980000Y-129300000D03*
%TD*%
D27*
%TO.C,L3*%
X118100000Y-139017500D03*
X120900000Y-139017500D03*
%TD*%
D28*
%TO.C,R4*%
X106900000Y-123225000D03*
X106900000Y-121575000D03*
%TD*%
D17*
%TO.C,C13*%
X122900000Y-111037500D03*
X122900000Y-111997500D03*
%TD*%
D29*
%TO.C,U2*%
X126637500Y-135717500D03*
X126637500Y-134767500D03*
X126637500Y-133817500D03*
X124362500Y-133817500D03*
X124362500Y-135717500D03*
%TD*%
D15*
%TO.C,R11*%
X127570000Y-94377500D03*
X127570000Y-93357500D03*
%TD*%
D13*
%TO.C,C25*%
X129300000Y-127280000D03*
X129300000Y-126320000D03*
%TD*%
D30*
%TO.C,Rshunt1*%
X124880000Y-57632500D03*
X124880000Y-54982500D03*
%TD*%
D16*
%TO.C,J5*%
X109500000Y-49767500D03*
%TD*%
D14*
%TO.C,R25*%
X127490000Y-76832500D03*
X127490000Y-78482500D03*
%TD*%
D13*
%TO.C,C2*%
X128500000Y-131197500D03*
X128500000Y-130237500D03*
%TD*%
D12*
%TO.C,C10*%
X125610000Y-94367500D03*
X126570000Y-94367500D03*
%TD*%
D14*
%TO.C,R10*%
X123000000Y-71925000D03*
X123000000Y-73575000D03*
%TD*%
D15*
%TO.C,R19*%
X128250000Y-137027500D03*
X128250000Y-136007500D03*
%TD*%
D13*
%TO.C,C11*%
X118650000Y-111480000D03*
X118650000Y-110520000D03*
%TD*%
D31*
%TO.C,C5*%
X126080000Y-100267500D03*
X125120000Y-100267500D03*
%TD*%
D32*
%TO.C,H2*%
X103500000Y-50517500D03*
%TD*%
D28*
%TO.C,R21*%
X102500000Y-136592500D03*
X102500000Y-134942500D03*
%TD*%
D33*
%TO.C,U3*%
X127437500Y-83025000D03*
X128387500Y-83025000D03*
X129337500Y-83025000D03*
X129337500Y-80750000D03*
X128387500Y-80750000D03*
X127437500Y-80750000D03*
%TD*%
D13*
%TO.C,C3*%
X122050000Y-101300000D03*
X122050000Y-100340000D03*
%TD*%
D15*
%TO.C,R18*%
X129250000Y-139277500D03*
X129250000Y-138257500D03*
%TD*%
D34*
%TO.C,R22*%
X126575000Y-126617500D03*
X124925000Y-126617500D03*
%TD*%
D18*
%TO.C,Cout1*%
X125075000Y-61042500D03*
X125075000Y-63992500D03*
%TD*%
D35*
%TO.C,J1*%
X108550000Y-137587500D03*
X109350000Y-137587500D03*
D36*
X110500000Y-137587500D03*
X111500000Y-137587500D03*
X112000000Y-137587500D03*
X113000000Y-137587500D03*
D35*
X114150000Y-137587500D03*
X114950000Y-137587500D03*
X114950000Y-137587500D03*
X114150000Y-137587500D03*
D36*
X113500000Y-137587500D03*
X112500000Y-137587500D03*
X111000000Y-137587500D03*
X110000000Y-137587500D03*
D35*
X109350000Y-137587500D03*
X108550000Y-137587500D03*
D37*
X107430000Y-138162500D03*
D38*
X107430000Y-142342500D03*
D37*
X116070000Y-138162500D03*
D38*
X116070000Y-142342500D03*
%TD*%
D15*
%TO.C,R16*%
X126000000Y-82260000D03*
X126000000Y-81240000D03*
%TD*%
D39*
%TO.C,D2*%
X106800000Y-55667500D03*
X105400000Y-55667500D03*
%TD*%
D15*
%TO.C,R3*%
X119750000Y-112027500D03*
X119750000Y-111007500D03*
%TD*%
D28*
%TO.C,R28*%
X123300000Y-80325000D03*
X123300000Y-78675000D03*
%TD*%
D29*
%TO.C,U6*%
X126637500Y-130217500D03*
X126637500Y-128317500D03*
X124362500Y-129267500D03*
%TD*%
D17*
%TO.C,C8*%
X127150000Y-111037500D03*
X127150000Y-111997500D03*
%TD*%
D40*
%TO.C,R27*%
X129000000Y-71657500D03*
X129000000Y-72677500D03*
%TD*%
D15*
%TO.C,R15*%
X123250000Y-77260000D03*
X123250000Y-76240000D03*
%TD*%
D28*
%TO.C,R6*%
X118000000Y-109325000D03*
X118000000Y-107675000D03*
%TD*%
D41*
%TO.C,SW1*%
X106875000Y-105100000D03*
X102725000Y-105100000D03*
%TD*%
D42*
%TO.C,Cin4*%
X124550000Y-132017500D03*
X126450000Y-132017500D03*
%TD*%
D26*
%TO.C,Cin3*%
X120675000Y-88492500D03*
X120675000Y-85542500D03*
%TD*%
D40*
%TO.C,R13*%
X121850000Y-111007500D03*
X121850000Y-112027500D03*
%TD*%
D43*
%TO.C,U4*%
X126890000Y-68557500D03*
X126390000Y-68557500D03*
X125890000Y-68557500D03*
X125390000Y-68557500D03*
X124890000Y-68557500D03*
X124890000Y-72857500D03*
X125390000Y-72857500D03*
X125890000Y-72857500D03*
X126390000Y-72857500D03*
X126890000Y-72857500D03*
%TD*%
D28*
%TO.C,R20*%
X104500000Y-137842500D03*
X104500000Y-136192500D03*
%TD*%
D44*
%TO.C,Cout6*%
X120450000Y-142267500D03*
X118550000Y-142267500D03*
%TD*%
D17*
%TO.C,C23*%
X124640000Y-76177500D03*
X124640000Y-77137500D03*
%TD*%
D15*
%TO.C,R5*%
X126100000Y-112027500D03*
X126100000Y-111007500D03*
%TD*%
D39*
%TO.C,D3*%
X106800000Y-95317500D03*
X105400000Y-95317500D03*
%TD*%
D45*
%TO.C,L1*%
X106825000Y-80767500D03*
X106825000Y-71267500D03*
%TD*%
D32*
%TO.C,H3*%
X103500000Y-142517500D03*
%TD*%
D46*
%TO.C,D4*%
X125900000Y-140017500D03*
X122600000Y-140017500D03*
%TD*%
D15*
%TO.C,R7*%
X120800000Y-112027500D03*
X120800000Y-111007500D03*
%TD*%
D41*
%TO.C,SW2*%
X106775000Y-108700000D03*
X102625000Y-108700000D03*
%TD*%
D17*
%TO.C,C6*%
X124000000Y-111037500D03*
X124000000Y-111997500D03*
%TD*%
D32*
%TO.C,H4*%
X128500000Y-142517500D03*
%TD*%
D14*
%TO.C,R8*%
X123250000Y-68675000D03*
X123250000Y-70325000D03*
%TD*%
D32*
%TO.C,H1*%
X128500000Y-50517500D03*
%TD*%
D47*
%TO.C,J2*%
X109400000Y-124175000D03*
D48*
X109400000Y-121635000D03*
%TD*%
D26*
%TO.C,Cin1*%
X113975000Y-88492500D03*
X113975000Y-85542500D03*
%TD*%
D49*
%TO.C,U8*%
X107112500Y-132067500D03*
X107112500Y-133017500D03*
X107112500Y-133967500D03*
X109387500Y-133967500D03*
X109387500Y-133017500D03*
X109387500Y-132067500D03*
%TD*%
D11*
%TO.C,R29*%
X124590000Y-78400000D03*
X125610000Y-78400000D03*
%TD*%
D47*
%TO.C,J3*%
X103500000Y-130157500D03*
D48*
X103500000Y-127617500D03*
X103500000Y-125077500D03*
X103500000Y-122537500D03*
X103500000Y-119997500D03*
X103500000Y-117457500D03*
X103500000Y-114917500D03*
X103500000Y-112377500D03*
%TD*%
D40*
%TO.C,R14*%
X127000000Y-100207500D03*
X127000000Y-101227500D03*
%TD*%
M02*
