%TF.GenerationSoftware,KiCad,Pcbnew,10.0.1-1.fc44*%
%TF.CreationDate,2026-05-14T21:29:10+03:00*%
%TF.ProjectId,helix_vape,68656c69-785f-4766-9170-652e6b696361,rev?*%
%TF.SameCoordinates,Original*%
%TF.FileFunction,Legend,Bot*%
%TF.FilePolarity,Positive*%
%FSLAX46Y46*%
G04 Gerber Fmt 4.6, Leading zero omitted, Abs format (unit mm)*
G04 Created by KiCad (PCBNEW 10.0.1-1.fc44) date 2026-05-14 21:29:10*
%MOMM*%
%LPD*%
G01*
G04 APERTURE LIST*
G04 Aperture macros list*
%AMRoundRect*
0 Rectangle with rounded corners*
0 $1 Rounding radius*
0 $2 $3 $4 $5 $6 $7 $8 $9 X,Y pos of 4 corners*
0 Add a 4 corners polygon primitive as box body*
4,1,4,$2,$3,$4,$5,$6,$7,$8,$9,$2,$3,0*
0 Add four circle primitives for the rounded corners*
1,1,$1+$1,$2,$3*
1,1,$1+$1,$4,$5*
1,1,$1+$1,$6,$7*
1,1,$1+$1,$8,$9*
0 Add four rect primitives between the rounded corners*
20,1,$1+$1,$2,$3,$4,$5,0*
20,1,$1+$1,$4,$5,$6,$7,0*
20,1,$1+$1,$6,$7,$8,$9,0*
20,1,$1+$1,$8,$9,$2,$3,0*%
G04 Aperture macros list end*
%ADD10C,0.153000*%
%ADD11C,0.127000*%
%ADD12C,3.800000*%
%ADD13C,0.650000*%
%ADD14O,1.200000X2.500000*%
%ADD15O,1.200000X2.100000*%
%ADD16R,1.700000X1.700000*%
%ADD17C,1.700000*%
%ADD18RoundRect,0.102000X-3.235000X3.730000X-3.235000X-3.730000X3.235000X-3.730000X3.235000X3.730000X0*%
G04 APERTURE END LIST*
D10*
X104930853Y-57981785D02*
X104978472Y-58124642D01*
X104978472Y-58124642D02*
X105026091Y-58172261D01*
X105026091Y-58172261D02*
X105121329Y-58219880D01*
X105121329Y-58219880D02*
X105264186Y-58219880D01*
X105264186Y-58219880D02*
X105359424Y-58172261D01*
X105359424Y-58172261D02*
X105407044Y-58124642D01*
X105407044Y-58124642D02*
X105454663Y-58029404D01*
X105454663Y-58029404D02*
X105454663Y-57648452D01*
X105454663Y-57648452D02*
X104454663Y-57648452D01*
X104454663Y-57648452D02*
X104454663Y-57981785D01*
X104454663Y-57981785D02*
X104502282Y-58077023D01*
X104502282Y-58077023D02*
X104549901Y-58124642D01*
X104549901Y-58124642D02*
X104645139Y-58172261D01*
X104645139Y-58172261D02*
X104740377Y-58172261D01*
X104740377Y-58172261D02*
X104835615Y-58124642D01*
X104835615Y-58124642D02*
X104883234Y-58077023D01*
X104883234Y-58077023D02*
X104930853Y-57981785D01*
X104930853Y-57981785D02*
X104930853Y-57648452D01*
X104454663Y-58505595D02*
X104454663Y-59077023D01*
X105454663Y-58791309D02*
X104454663Y-58791309D01*
X105454663Y-59934166D02*
X105454663Y-59362738D01*
X105454663Y-59648452D02*
X104454663Y-59648452D01*
X104454663Y-59648452D02*
X104597520Y-59553214D01*
X104597520Y-59553214D02*
X104692758Y-59457976D01*
X104692758Y-59457976D02*
X104740377Y-59362738D01*
%TO.C,BT1*%
D11*
X105875000Y-53722500D02*
X105875000Y-130772500D01*
X105875000Y-130772500D02*
X112650000Y-130772500D01*
X112650000Y-53722500D02*
X105875000Y-53722500D01*
X119750000Y-130772500D02*
X126525000Y-130772500D01*
X120200000Y-48997500D02*
X120200000Y-49997500D01*
X120200000Y-134997500D02*
X121200000Y-134997500D01*
X120700000Y-134497500D02*
X120700000Y-135497500D01*
X126525000Y-53722500D02*
X119750000Y-53722500D01*
X126525000Y-130772500D02*
X126525000Y-53722500D01*
%TD*%
%LPC*%
D12*
%TO.C,H2*%
X103500000Y-50517500D03*
%TD*%
D13*
%TO.C,J1*%
X108860000Y-138662500D03*
X114640000Y-138662500D03*
D14*
X107430000Y-138162500D03*
D15*
X107430000Y-142342500D03*
D14*
X116070000Y-138162500D03*
D15*
X116070000Y-142342500D03*
%TD*%
D12*
%TO.C,H3*%
X103500000Y-142517500D03*
%TD*%
%TO.C,H4*%
X128500000Y-142517500D03*
%TD*%
%TO.C,H1*%
X128500000Y-50517500D03*
%TD*%
D16*
%TO.C,J2*%
X109400000Y-124175000D03*
D17*
X109400000Y-121635000D03*
%TD*%
D16*
%TO.C,J3*%
X103500000Y-130157500D03*
D17*
X103500000Y-127617500D03*
X103500000Y-125077500D03*
X103500000Y-122537500D03*
X103500000Y-119997500D03*
X103500000Y-117457500D03*
X103500000Y-114917500D03*
X103500000Y-112377500D03*
%TD*%
D18*
%TO.C,BT1*%
X116200000Y-52577500D03*
X116200000Y-131917500D03*
%TD*%
%LPD*%
M02*
